<svg width="18" height="18" viewBox="0 0 18 18" fill="none" xmlns="http://www.w3.org/2000/svg">
<path fill-rule="evenodd" clip-rule="evenodd" d="M5.62473 12.9375C5.62473 12.7883 5.684 12.6453 5.78949 12.5398C5.89498 12.4343 6.03805 12.375 6.18723 12.375H16.3122C16.4614 12.375 16.6045 12.4343 16.71 12.5398C16.8155 12.6453 16.8747 12.7883 16.8747 12.9375C16.8747 13.0867 16.8155 13.2298 16.71 13.3353C16.6045 13.4408 16.4614 13.5 16.3122 13.5H6.18723C6.03805 13.5 5.89498 13.4408 5.78949 13.3353C5.684 13.2298 5.62473 13.0867 5.62473 12.9375ZM5.62473 8.43753C5.62473 8.28834 5.684 8.14527 5.78949 8.03978C5.89498 7.93429 6.03805 7.87503 6.18723 7.87503H16.3122C16.4614 7.87503 16.6045 7.93429 16.71 8.03978C16.8155 8.14527 16.8747 8.28834 16.8747 8.43753C16.8747 8.58671 16.8155 8.72979 16.71 8.83528C16.6045 8.94077 16.4614 9.00003 16.3122 9.00003H6.18723C6.03805 9.00003 5.89498 8.94077 5.78949 8.83528C5.684 8.72979 5.62473 8.58671 5.62473 8.43753ZM5.62473 3.93753C5.62473 3.78834 5.684 3.64527 5.78949 3.53978C5.89498 3.43429 6.03805 3.37503 6.18723 3.37503H16.3122C16.4614 3.37503 16.6045 3.43429 16.71 3.53978C16.8155 3.64527 16.8747 3.78834 16.8747 3.93753C16.8747 4.08671 16.8155 4.22979 16.71 4.33528C16.6045 4.44077 16.4614 4.50003 16.3122 4.50003H6.18723C6.03805 4.50003 5.89498 4.44077 5.78949 4.33528C5.684 4.22979 5.62473 4.08671 5.62473 3.93753ZM4.33548 2.41428C4.38787 2.46653 4.42943 2.5286 4.45779 2.59694C4.48614 2.66528 4.50074 2.73854 4.50074 2.81253C4.50074 2.88652 4.48614 2.95978 4.45779 3.02812C4.42943 3.09646 4.38787 3.15853 4.33548 3.21078L2.64798 4.89828C2.59573 4.95066 2.53366 4.99222 2.46532 5.02058C2.39698 5.04894 2.32372 5.06353 2.24973 5.06353C2.17575 5.06353 2.10248 5.04894 2.03415 5.02058C1.96581 4.99222 1.90374 4.95066 1.85148 4.89828L1.28898 4.33578C1.23669 4.28348 1.1952 4.22139 1.1669 4.15306C1.13859 4.08473 1.12402 4.01149 1.12402 3.93753C1.12402 3.86357 1.13859 3.79033 1.1669 3.722C1.1952 3.65367 1.23669 3.59158 1.28898 3.53928C1.34128 3.48698 1.40337 3.44549 1.4717 3.41719C1.54003 3.38889 1.61327 3.37432 1.68723 3.37432C1.7612 3.37432 1.83443 3.38889 1.90277 3.41719C1.9711 3.44549 2.03319 3.48698 2.08548 3.53928L2.24973 3.70465L3.53898 2.41428C3.59124 2.3619 3.65331 2.32033 3.72165 2.29198C3.78998 2.26362 3.86325 2.24902 3.93723 2.24902C4.01122 2.24902 4.08448 2.26362 4.15282 2.29198C4.22116 2.32033 4.28323 2.3619 4.33548 2.41428ZM4.33548 6.91428C4.38787 6.96653 4.42943 7.0286 4.45779 7.09694C4.48614 7.16528 4.50074 7.23854 4.50074 7.31253C4.50074 7.38652 4.48614 7.45978 4.45779 7.52812C4.42943 7.59646 4.38787 7.65853 4.33548 7.71078L2.64798 9.39828C2.59573 9.45066 2.53366 9.49222 2.46532 9.52058C2.39698 9.54894 2.32372 9.56353 2.24973 9.56353C2.17575 9.56353 2.10248 9.54894 2.03415 9.52058C1.96581 9.49222 1.90374 9.45066 1.85148 9.39828L1.28898 8.83578C1.18336 8.73016 1.12402 8.5869 1.12402 8.43753C1.12402 8.28816 1.18336 8.1449 1.28898 8.03928C1.39461 7.93366 1.53786 7.87432 1.68723 7.87432C1.83661 7.87432 1.97986 7.93366 2.08548 8.03928L2.24973 8.20465L3.53898 6.91428C3.59124 6.86189 3.65331 6.82033 3.72165 6.79198C3.78998 6.76362 3.86325 6.74902 3.93723 6.74902C4.01122 6.74902 4.08448 6.76362 4.15282 6.79198C4.22116 6.82033 4.28323 6.86189 4.33548 6.91428ZM4.33548 11.4143C4.38787 11.4665 4.42943 11.5286 4.45779 11.5969C4.48614 11.6653 4.50074 11.7385 4.50074 11.8125C4.50074 11.8865 4.48614 11.9598 4.45779 12.0281C4.42943 12.0965 4.38787 12.1585 4.33548 12.2108L2.64798 13.8983C2.59573 13.9507 2.53366 13.9922 2.46532 14.0206C2.39698 14.0489 2.32372 14.0635 2.24973 14.0635C2.17575 14.0635 2.10248 14.0489 2.03415 14.0206C1.96581 13.9922 1.90374 13.9507 1.85148 13.8983L1.28898 13.3358C1.18336 13.2302 1.12402 13.0869 1.12402 12.9375C1.12402 12.7882 1.18336 12.6449 1.28898 12.5393C1.39461 12.4337 1.53786 12.3743 1.68723 12.3743C1.83661 12.3743 1.97986 12.4337 2.08548 12.5393L2.24973 12.7047L3.53898 11.4143C3.59124 11.3619 3.65331 11.3203 3.72165 11.292C3.78998 11.2636 3.86325 11.249 3.93723 11.249C4.01122 11.249 4.08448 11.2636 4.15282 11.292C4.22116 11.3203 4.28323 11.3619 4.33548 11.4143Z" fill="#3E4A3D"/>
</svg>
