<svg preserveAspectRatio="none" width="100%" height="100%" overflow="visible" style="display: block;" viewBox="0 0 28.25 44.75" fill="none" xmlns="http://www.w3.org/2000/svg">
<path id="Vector" d="M10.8746 43.7349C10.9503 43.7025 11.0043 43.6269 11.0476 43.5513C14.075 39.0267 16.1078 33.8325 16.9295 28.4439C17.0484 27.688 18.0107 27.4504 18.7784 27.3964C20.357 27.2776 21.9356 27.1588 23.5034 27.0509C25.2658 26.9213 27.2877 26.6513 28.25 25.1719C26.0227 22.7746 23.7953 20.3772 21.5788 17.9907C21.4166 17.8179 21.2544 17.6343 21.2112 17.4076C21.1679 17.1484 21.276 16.9 21.3842 16.6625L24.4765 10.0536C23.9575 9.98884 23.4493 9.93484 22.9303 9.87005C22.2816 8.86577 21.622 7.87229 20.9733 6.868C19.6109 8.23944 18.2486 9.62168 16.8862 11.0039C16.7024 11.1875 16.4862 11.3927 16.2267 11.3711C15.9564 11.3603 15.7617 11.1011 15.5996 10.8743L12.7127 6.70602C12.5937 6.52244 12.3667 6.80321 12.2477 6.98679C12.1288 7.17037 11.7504 6.9112 11.9666 6.8896C12.464 6.36046 11.9126 5.52896 11.3936 5.02142C11.2422 4.88103 11.0584 4.72985 10.8529 4.77304C10.7773 4.79464 10.7232 4.87023 10.7124 4.94582C9.47979 3.04525 7.91199 1.37144 6.10632 0C4.98184 0.928692 5.1981 2.67809 5.49003 4.10352C6.38745 8.37983 7.07945 12.6993 7.58763 17.0296C7.72819 18.2175 7.73898 19.6645 6.74425 20.334C4.7764 21.6731 2.91669 23.1525 1.16509 24.7615C0.635286 25.2583 0.0730365 25.8306 0.00816239 26.5541C-0.0999611 27.5908 0.883962 28.4763 1.90032 28.6923C2.9275 28.8974 3.97629 28.6275 5.00346 28.4223C6.18201 28.1847 7.37137 28.0443 8.56073 27.9903C8.99322 32.3746 8.99322 36.8021 8.56073 41.1864C8.4418 42.3959 8.30124 43.7025 8.91754 44.75C9.43653 44.696 9.95552 44.6528 10.4853 44.5988C9.86902 43.9725 9.94472 42.817 10.6259 42.2771C10.7232 42.5579 10.5286 42.8494 10.4529 43.141C10.3772 43.4325 10.6043 43.8537 10.8746 43.7241V43.7349ZM25.1144 22.8177C25.2334 22.8285 25.2334 23.0445 25.1144 23.0553C24.9955 23.0553 24.9955 22.8285 25.1144 22.8177ZM22.5195 11.7382C22.5519 11.8678 22.4654 11.9974 22.3681 12.1054C22.2384 12.019 22.1843 11.8354 22.2383 11.695H22.2167C22.2384 11.5547 22.4762 11.5979 22.5086 11.7382H22.5195ZM21.0382 14.6107C21.2004 14.9455 21.1896 15.3558 21.0166 15.6906V15.7338C21.0166 15.7338 20.9841 15.7338 20.9733 15.7338C20.7462 15.7338 20.5732 15.453 20.6165 15.2154C20.6597 14.9671 20.8544 14.7727 21.0382 14.5999V14.6107ZM16.4646 27.8716C16.3456 28.0551 16.0321 28.0443 15.9131 27.8716C16.0321 27.688 16.3456 27.688 16.4646 27.8716ZM13.4804 37.3529C13.383 36.8777 13.4155 36.3702 13.5777 35.9058C13.7615 36.3918 13.902 37.0397 13.4804 37.3529ZM15.3833 29.7721C15.4266 29.6426 15.6644 29.7181 15.632 29.8369C15.5455 29.8369 15.459 29.8477 15.3725 29.8585L15.3941 29.7721H15.3833ZM15.3617 31.1544H15.3184C15.3076 31.2408 15.2319 31.284 15.1454 31.284C15.0049 31.284 14.8427 31.1868 14.8319 31.0356C14.8211 30.7872 15.0481 30.6036 15.2644 30.4741C15.3833 30.6684 15.4266 30.9276 15.3725 31.1544H15.3617ZM14.9508 17.332L15.0373 17.3104C15.0373 17.5372 14.8751 17.7531 14.6697 17.8395C14.4102 17.6883 14.6805 17.1916 14.9508 17.332ZM14.7995 32.0291L14.421 32.1587L14.3345 32.1371C14.2372 31.8779 14.767 31.7591 14.7995 32.0291ZM14.4751 33.2817C14.6048 33.4113 14.5724 33.6597 14.4102 33.7569C14.2697 33.6273 14.1399 33.4869 13.9993 33.3573C14.0858 33.1953 14.3453 33.1629 14.4751 33.2925V33.2817ZM13.6966 20.7552C13.502 20.9712 13.2641 21.1331 13.0154 21.2951C12.8965 21.3707 12.7559 21.4355 12.6262 21.4355C12.5505 21.4355 12.4748 21.4139 12.4207 21.3491C12.2694 21.1655 12.4424 20.8956 12.6154 20.7336C13.1344 20.2368 13.6533 19.7293 14.1723 19.2326C14.248 19.7833 14.0642 20.3556 13.6966 20.7552ZM13.0478 16.2305C13.156 16.2305 13.1668 16.4573 13.0478 16.4681C12.9289 16.4681 12.9289 16.2413 13.0478 16.2305ZM10.3556 9.01695C11.3395 10.41 12.3126 11.8138 13.2965 13.2069C13.3939 13.3364 13.4912 13.4876 13.4912 13.6496C13.4912 13.8332 13.3939 13.9952 13.2965 14.1464C12.8316 14.8159 12.291 15.4098 11.6639 15.9281C11.3503 15.7878 11.2854 15.3774 11.253 15.0319C11.1125 13.466 10.7989 11.911 10.3231 10.41C10.1718 9.94564 10.0312 9.38411 10.3556 9.02775V9.01695ZM8.75535 8.05586C8.77697 7.79669 8.8851 7.53752 8.77697 7.29995H8.78778C8.82022 7.07318 8.67966 6.8356 8.47423 6.74921C8.63642 6.47925 9.0689 6.74922 9.17703 7.04078C9.28515 7.34315 9.32841 7.7319 9.63116 7.83989C9.35004 7.88308 9.44735 8.40142 9.18785 8.53101C9.15541 8.55261 9.12298 8.55261 9.09054 8.55261C8.89592 8.55261 8.74453 8.28264 8.75535 8.06666V8.05586ZM10.3015 41.4132C10.1826 41.4132 10.1826 41.1864 10.3015 41.1756C10.4205 41.1756 10.4205 41.4024 10.3015 41.4132ZM10.2799 17.008C10.0528 16.5437 10.1069 15.9713 10.3988 15.5394C10.0528 15.183 9.94471 14.6647 9.85821 14.1788C9.71765 13.3904 9.57709 12.6129 9.43653 11.8246C9.3284 11.2415 9.2311 10.6584 9.12298 10.0752C9.09054 9.87005 9.1446 9.54609 9.36085 9.58929C9.4906 9.61088 9.53384 9.77286 9.55546 9.90245C9.81496 11.4251 10.0853 12.9369 10.3448 14.4487C10.388 14.7187 10.6691 14.8807 10.8421 15.0966C11.0151 15.3126 10.9935 15.7554 10.7124 15.7446C10.9611 15.8634 11.0043 16.2197 10.8746 16.4573C10.7448 16.6949 10.5069 16.846 10.2799 16.9972V17.008Z" fill="var(--fill-0, #C2D832)"/>
</svg>
