<svg preserveAspectRatio="none" width="100%" height="100%" overflow="visible" style="display: block;" viewBox="0 0 45.8993 33.5974" fill="none" xmlns="http://www.w3.org/2000/svg">
<path id="Vector" d="M6.08432 32.4814C6.5233 31.1495 7.14304 30.0763 8.27922 29.572C10.0739 28.7703 11.0422 27.3092 11.8685 25.6929C12.5657 24.3222 13.1726 22.8999 13.8698 21.3999C13.2242 21.1025 12.7207 20.7793 12.1655 20.637C10.0093 20.0552 7.85314 19.4992 5.67115 19.0207C4.07016 18.6716 2.495 18.2579 1.06185 17.4433C0.183893 16.939 -0.190532 16.008 0.0935144 15.0382C0.480851 13.7322 1.62995 12.9047 2.98563 12.9822C3.24385 12.9952 3.48915 13.0857 3.74738 13.1115C6.05848 13.2538 8.35669 13.4219 10.6678 12.9176C13.0047 12.4004 15.3933 12.0771 17.756 11.6763C19.2021 11.4306 20.3512 10.8228 20.9451 9.38753C21.1129 8.99962 21.3324 8.61171 21.6036 8.28844C22.9334 6.67214 23.9147 4.87481 24.5086 2.87059C24.9476 1.39652 25.7352 0.491371 27.4524 0.594814C28.085 0.633606 28.7435 0.245679 29.544 0C30.0862 1.15081 30.6673 2.27578 31.1321 3.43952C32.2812 6.29715 33.469 6.86608 36.5031 6.33593C39.1112 5.87043 41.7709 5.62481 44.4177 5.35327C45.6184 5.23689 46.2381 6.06442 45.7088 7.13765C45.3085 7.9652 44.7276 8.76687 44.0433 9.38753C42.4423 10.8099 40.738 12.1159 39.0724 13.4736C38.6722 13.7968 38.1816 14.0813 37.9492 14.508C37.4844 15.3485 37.2649 16.2795 37.8459 17.1975C37.9879 17.4173 38.1299 17.6372 38.3236 17.8053C39.2145 18.5811 38.7626 19.7837 39.2403 20.6629C39.7309 21.5551 40.5314 22.2921 40.9446 23.2102C41.4094 24.2446 40.9575 25.292 40.1312 25.9902C38.84 27.0893 37.4844 27.7617 35.6768 26.8566C33.7659 25.8998 31.713 25.2015 29.7247 24.3998C27.788 23.624 25.9288 23.4817 24.0954 24.7619C22.2621 26.042 20.2866 27.1023 18.5307 28.4729C15.7032 30.6711 12.4366 31.9641 9.22175 33.3736C8.09847 33.852 7.09139 33.5675 6.08432 32.4814ZM19.4862 18.6845C20.4158 18.6069 21.1775 18.4647 21.9264 18.5035C22.6881 18.5423 23.437 18.788 24.1987 18.8914C24.5215 18.9302 24.9217 18.9561 25.2058 18.8138C27.0908 17.7923 28.9759 16.7579 30.2283 14.9089C30.9255 13.8744 30.4348 12.5167 29.2083 12.3228C28.5498 12.2193 27.8268 12.271 27.1812 12.4262C26.0192 12.6977 24.8185 12.9564 23.7469 13.4736C21.5778 14.4822 20.1059 16.1502 19.4862 18.6845ZM16.1679 25.0851C17.4591 24.4645 18.2854 24.0895 19.0988 23.6757C19.3054 23.5723 19.5249 23.3654 19.6153 23.1455C19.7315 22.8611 19.8347 22.4603 19.7185 22.2146C19.6023 21.9689 19.2279 21.7103 18.9439 21.6974C18.5565 21.6715 18.053 21.762 17.7818 21.9947C17.033 22.6671 16.452 23.4688 16.1679 25.0851ZM25.1025 9.64614C26.3291 9.27116 27.207 9.05133 27.8397 8.08154C27.5298 7.60312 27.2458 7.15059 26.9101 6.63337C25.761 7.30575 25.1025 8.04277 25.1025 9.64614ZM13.9602 16.5122C14.7219 16.926 15.4191 16.9907 16.1034 16.4476C16.2067 16.37 16.2712 16.1373 16.2325 16.008C16.1938 15.8787 16.0388 15.7106 15.9097 15.6847C15.0576 15.5554 15.0576 15.5683 13.9602 16.5122ZM36.9679 10.409C36.6839 10.2668 36.4256 10.0987 36.1545 10.047C36.0641 10.0341 35.9221 10.3702 35.8059 10.5383C36.077 10.6547 36.3482 10.797 36.6322 10.8875C36.6839 10.9004 36.8001 10.6676 36.9679 10.409ZM32.9009 20.3526C32.9525 20.1974 33.0687 20.0035 33.0171 19.9C32.8234 19.4733 32.4619 19.2665 31.9842 19.3828C31.8551 19.4087 31.7647 19.6026 31.6614 19.719C31.9842 19.9259 32.307 20.1457 32.6427 20.3397C32.7072 20.3785 32.8105 20.3526 32.9009 20.3526Z" fill="var(--fill-0, #C2D832)"/>
</svg>
