<svg width="60" height="71" viewBox="0 0 60 71" fill="none" xmlns="http://www.w3.org/2000/svg">
<path d="M32.3387 60.4361C33.1645 60.5234 33.2922 61.6594 33.1736 62.4911C32.9726 64.075 32.7744 65.7043 33.2483 67.216C33.7361 68.7313 35.0852 70.0903 36.6814 70.0267C38.8862 66.7464 40.5861 63.182 42.3 59.6213C44.5025 55.0154 46.7087 50.3955 48.9112 45.7895C53.88 35.4185 58.9318 24.6826 59.3711 13.2021C59.4444 11.316 59.3289 9.24533 58.0893 7.81142C56.908 6.43781 54.691 5.42688 55.0173 3.65323C55.3091 2.06389 53.9518 0.568685 52.3812 0.147833C52.2839 0.121762 52.1866 0.0956915 52.0893 0.0696214C50.3943 -0.220774 48.6974 0.441184 47.1829 1.25625C42.5199 3.75871 38.809 7.76695 35.9356 12.208C33.0761 16.6528 31.0012 21.561 29.045 26.4711C28.547 24.9382 27.6345 23.5621 26.4093 22.5192C26.6545 22.0489 26.6996 21.4357 26.3469 21.0285C26.0081 20.6251 25.2759 20.5778 24.9788 21.0193C24.6231 19.9562 24.0745 18.9456 23.37 18.072C23.0794 17.7112 22.2424 17.6657 22.4413 18.0912C21.8172 16.584 20.555 15.4567 19.213 14.5164C16.563 12.6748 13.386 11.4662 10.1668 11.5267C6.93003 11.5974 3.66677 13.0456 1.80096 15.6723C-0.136332 18.3989 -0.385792 22.0542 0.460778 25.2886C1.30735 28.5229 3.12288 31.4213 5.06373 34.13C10.504 41.7367 17.1188 48.4075 23.7169 55.0291C26.1576 57.4846 28.8892 60.0776 32.3286 60.4185L32.3387 60.4361ZM51.6901 34.2511C51.5086 34.0387 51.6268 33.6534 51.8966 33.5917L51.8826 33.588C52.0747 33.3715 52.2631 33.1689 52.4515 32.9662C52.666 33.5001 52.2741 34.1842 51.704 34.2548L51.6901 34.2511ZM52.5192 32.0464C52.5601 31.8936 52.852 31.9718 52.825 32.1283C52.784 32.2811 52.4922 32.2029 52.5192 32.0464ZM54.1342 28.1317C53.8677 27.7922 54.087 27.1959 54.5107 27.1159L54.5077 27.2938C54.4991 27.6041 54.368 27.9263 54.1342 28.1317ZM54.5866 26.3323C54.4513 26.2811 54.5258 26.0033 54.6685 26.0266C54.8177 26.0815 54.7432 26.3593 54.5866 26.3323ZM54.8807 25.2348C54.8112 25.2162 54.7528 25.1559 54.7575 25.0827C54.8124 24.9337 55.0904 25.0081 55.0633 25.1647C55.0447 25.2341 54.9502 25.2535 54.8807 25.2348ZM55.4166 23.2345C55.3248 22.4655 55.5444 21.6459 56.0122 21.0119C56.1003 21.7948 55.8845 22.6005 55.4166 23.2345ZM56.3497 20.0304C55.9528 19.3433 55.9889 18.43 56.4466 17.7784C56.8435 18.4654 56.8073 19.3788 56.3497 20.0304ZM57.4284 13.1133C57.4585 13.6127 57.3662 14.124 57.1701 14.5777L57.286 14.5343C57.4109 14.791 57.507 15.0997 57.3908 15.3663C57.3072 15.5672 57.0503 15.692 56.8557 15.6398C56.7862 15.6212 56.7344 15.5924 56.6899 15.5358C56.4715 15.2391 56.8371 14.8755 57.1682 14.6962C56.8062 14.2122 56.9377 13.4434 57.4423 13.1171L57.4284 13.1133ZM50.1251 37.2561C50.2472 37.4675 50.3694 37.6789 50.4739 37.9004C50.0386 38.4687 49.7135 39.126 49.5097 39.8307C49.3781 38.9319 49.5997 37.9938 50.1075 37.2663L50.1251 37.2561ZM48.6836 41.0237C48.9874 41.2243 48.7365 41.827 48.3927 41.72L48.3649 41.7126C48.4148 41.86 48.2247 41.9579 48.0996 41.9244C48.044 41.9095 48.0097 41.8705 47.9968 41.8075C48.3307 41.6736 48.5905 41.371 48.6836 41.0237ZM48.0537 42.3736C48.1359 42.6785 48.1059 43.0129 47.9582 43.286L47.8857 43.4453C47.5412 43.1743 47.6531 42.5343 48.0676 42.3773L48.0537 42.3736ZM42.3003 53.1151C42.5294 52.9829 42.7585 52.8508 42.9876 52.7186C43.1013 53.017 43.0675 53.3653 42.9023 53.6486C42.8405 54.2127 42.6536 54.7433 42.3491 55.2126C42.2029 54.9798 42.0706 54.7508 41.9383 54.5218C42.4928 54.3428 42.7049 53.5511 42.3142 53.1188L42.3003 53.1151ZM40.5462 58.8834C40.7685 58.943 40.4762 59.3113 40.29 59.1721L40.2548 59.1924C40.3047 59.3398 40.1081 59.4062 39.983 59.3727C39.9274 59.3578 39.8793 59.3151 39.884 59.2419C40.1362 59.1904 40.3791 59.0619 40.536 58.8658L40.5462 58.8834ZM38.5184 63.0597L38.6844 62.9404C38.9138 63.4188 38.7602 64.0476 38.3085 64.3434C38.2459 63.9098 38.3131 63.4365 38.5221 63.0458L38.5184 63.0597ZM36.506 68.4015C36.6589 68.4425 36.5808 68.7342 36.4242 68.7071C36.2713 68.6661 36.3494 68.3744 36.506 68.4015ZM44.5441 10.0481C44.7975 9.71399 45.0824 9.37347 45.4922 9.28971C45.902 9.20596 46.3872 9.61886 46.2135 9.9892C45.5101 9.89005 44.7975 10.5478 44.845 11.2602C44.5514 11.0773 44.2597 10.7759 44.3351 10.4388C44.3761 10.286 44.455 10.1582 44.5478 10.0342L44.5441 10.0481ZM43.6985 11.1466C43.6799 11.2161 43.5854 11.2354 43.5159 11.2168C43.4464 11.1981 43.388 11.1379 43.3928 11.0647C43.4337 10.9119 43.7256 10.9901 43.6985 11.1466ZM42.141 14.1239C42.1224 14.1933 42.0278 14.2127 41.9583 14.194C41.8888 14.1754 41.8305 14.1151 41.8352 14.0419C41.8762 13.8891 42.1681 13.9673 42.141 14.1239ZM39.4655 16.3251C39.813 15.5845 40.2679 14.8875 40.8052 14.2721C40.8159 14.677 40.8127 15.0782 40.8234 15.483C40.9783 15.4054 41.1369 15.3139 41.2917 15.2363C41.465 15.3125 41.4573 15.5635 41.3432 15.7116C41.2188 15.8421 41.026 15.8946 40.8572 15.9685C40.2702 16.2132 39.8247 16.7638 39.7026 17.3862C39.6748 17.3788 39.647 17.3713 39.6192 17.3639C39.2718 17.2708 39.2956 16.6816 39.4693 16.3112L39.4655 16.3251ZM39.5935 18.9054C39.3982 18.6893 39.1964 18.4416 39.2115 18.1628C39.2303 17.8701 39.6458 17.6539 39.8198 17.894L39.8588 17.8598C40.0169 18.2148 39.8941 18.6733 39.5759 18.9156L39.5935 18.9054ZM38.3368 17.8689C38.4721 17.92 38.3977 18.1978 38.2549 18.1745C38.1058 18.1196 38.1802 17.8418 38.3368 17.8689ZM37.3641 20.9433C37.6976 20.1989 38.1155 19.4176 38.8306 19.0285C38.78 19.5509 38.5626 20.0287 38.3591 20.5101C37.6808 22.0406 36.985 23.5812 35.9511 24.8823C36.3121 23.5349 36.7982 22.221 37.378 20.947L37.3641 20.9433ZM33.4749 39.4052C33.2893 39.6533 32.9592 39.7733 32.6673 39.695L32.7286 39.5775C32.6548 39.1855 33.3697 39.0197 33.4786 39.3913L33.4749 39.4052ZM36.0335 21.4056C36.3569 21.4774 36.515 21.8324 36.6074 22.1549C36.3969 22.2176 36.1735 22.2174 35.965 22.1615C35.8677 22.1354 35.7843 22.1131 35.6945 22.0592L35.7094 22.0036C35.4148 21.88 35.7064 21.3477 36.0298 21.4195L36.0335 21.4056ZM34.1196 29.2155C34.2178 28.3485 34.3161 27.4815 34.4004 26.6108C34.419 26.5414 34.4237 26.4682 34.4525 26.4163C34.5491 26.2784 34.7891 26.3279 34.8844 26.4725C34.9797 26.6172 34.9767 26.795 34.9738 26.9729C34.9562 27.8168 34.8384 28.8126 34.102 29.2257L34.1196 29.2155ZM33.3686 30.2947C33.5245 30.1578 33.8109 30.1452 33.9127 30.3214C33.9598 30.4233 33.9579 30.5419 33.942 30.6568C33.8552 31.2588 33.6534 31.845 33.372 32.3949C32.8986 32.1043 32.9698 31.3938 33.1011 30.8483C33.1532 30.6539 33.2128 30.4316 33.3686 30.2947ZM17.759 14.2161L17.7515 14.2439C17.9508 14.2229 18.1685 14.3556 18.235 14.5521C18.0663 14.626 17.866 14.7064 17.7103 14.62C17.5547 14.5336 17.581 14.2131 17.7691 14.2338L17.759 14.2161ZM21.8077 43.3064C21.8077 43.3064 21.7243 43.2841 21.704 43.2488C21.5049 43.0466 21.6369 42.6651 21.8938 42.5404C21.9715 42.6952 22.0668 42.8399 22.1584 42.9984L22.2048 42.9364C22.3269 43.1478 22.0301 43.366 21.8216 43.3102L21.8077 43.3064ZM20.2002 40.0766C19.1753 38.9534 18.168 37.8199 17.1431 36.6967C15.0285 34.3583 12.9279 32.0237 10.6676 29.8399C9.24904 28.4622 7.64532 26.8861 7.66778 24.9119C7.68972 22.5505 10.183 20.8067 12.5392 20.7978C14.8954 20.7889 17.063 22.0397 18.9951 23.3912C23.6012 26.6055 27.7779 30.8662 29.3109 36.2646C29.6046 37.2813 29.8064 38.3627 30.3885 39.2482C30.7596 39.8092 31.3625 40.2834 32.0019 40.4547C32.3633 40.5516 32.7368 40.5474 33.0947 40.4349C34.7554 39.8526 34.6021 37.5335 34.5688 35.7677C34.474 32.452 35.8565 29.2938 37.2334 26.2682C40.2379 19.614 43.584 12.575 49.8046 8.76282C50.3723 8.42359 51.2318 8.16256 51.5751 8.71609C50.0363 18.5174 46.2791 27.8135 42.5619 37.0162C39.7294 44.029 36.8931 51.0558 34.0606 58.0687C32.0784 53.2347 28.5113 49.2565 25.0052 45.384C23.3942 43.6124 21.7972 41.8445 20.2002 40.0766Z" fill="#C2D832"/>
</svg>
