<svg width="117" height="84" viewBox="0 0 117 84" fill="none" xmlns="http://www.w3.org/2000/svg">
<path d="M60.6737 72.0426C61.4995 72.1299 61.6271 73.2658 61.5085 74.0976C61.3076 75.6815 61.1094 77.3108 61.5833 78.8224C62.0711 80.3377 63.4202 81.6967 65.0163 81.6331C67.2212 78.3529 68.9211 74.7884 70.635 71.2278C72.8375 66.6218 75.0437 62.002 77.2462 57.396C82.215 47.025 87.2667 36.289 87.7061 24.8085C87.7794 22.9225 87.6639 20.8518 86.4242 19.4179C85.243 18.0443 83.026 17.0333 83.3523 15.2597C83.644 13.6703 82.2868 12.1751 80.7161 11.7543C80.6188 11.7282 80.5215 11.7021 80.4242 11.6761C78.7293 11.3857 77.0323 12.0476 75.5179 12.8627C70.8548 15.3652 67.144 19.3734 64.2706 23.8145C61.4111 28.2593 59.3362 33.1674 57.3799 38.0776C56.8819 36.5446 55.9695 35.1686 54.7443 34.1256C54.9895 33.6554 55.0346 33.0421 54.6819 32.635C54.3431 32.2315 53.6109 32.1842 53.3138 32.6257C52.9581 31.5626 52.4095 30.5521 51.705 29.6785C51.4143 29.3177 50.5774 29.2721 50.7762 29.6976C50.1522 28.1904 48.89 27.0631 47.5479 26.1228C44.898 24.2813 41.7209 23.0727 38.5018 23.1332C35.265 23.2039 32.0017 24.6521 30.1359 27.2788C28.1986 30.0054 27.9492 33.6607 28.7957 36.895C29.6423 40.1293 31.4578 43.0278 33.3987 45.7364C38.839 53.3431 45.4537 60.0139 52.0518 66.6355C54.4926 69.091 57.2242 71.684 60.6635 72.025L60.6737 72.0426ZM80.0251 45.8575C79.8436 45.6451 79.9617 45.2599 80.2315 45.1982L80.2176 45.1945C80.4097 44.9779 80.5981 44.7753 80.7865 44.5727C81.0009 45.1066 80.6091 45.7907 80.0389 45.8612L80.0251 45.8575ZM80.8542 43.6528C80.8951 43.5 81.187 43.5782 81.1599 43.7348C81.119 43.8876 80.8271 43.8094 80.8542 43.6528ZM82.4692 39.7381C82.2026 39.3987 82.422 38.8024 82.8457 38.7223L82.8427 38.9002C82.834 39.2106 82.703 39.5328 82.4692 39.7381ZM82.9216 37.9387C82.7863 37.8876 82.8607 37.6097 83.0034 37.6331C83.1526 37.688 83.0782 37.9658 82.9216 37.9387ZM83.2156 36.8413C83.1461 36.8227 83.0878 36.7624 83.0925 36.6892C83.1473 36.5401 83.4253 36.6146 83.3983 36.7711C83.3797 36.8406 83.2851 36.8599 83.2156 36.8413ZM83.7516 34.841C83.6597 34.0719 83.8793 33.2523 84.3471 32.6184C84.4353 33.4013 84.2194 34.207 83.7516 34.841ZM84.6846 31.6368C84.2877 30.9498 84.3239 30.0364 84.7815 29.3848C85.1785 30.0718 85.1423 30.9852 84.6846 31.6368ZM85.7634 24.7198C85.7934 25.2192 85.7011 25.7304 85.5051 26.1841L85.621 26.1407C85.7459 26.3975 85.8419 26.7061 85.7258 26.9728C85.6422 27.1737 85.3853 27.2984 85.1907 27.2463C85.1212 27.2277 85.0693 27.1989 85.0249 27.1423C84.8064 26.8455 85.172 26.482 85.5031 26.3027C85.1412 25.8186 85.2727 25.0499 85.7773 24.7235L85.7634 24.7198ZM78.4601 48.8626C78.5822 49.0739 78.7043 49.2853 78.8088 49.5069C78.3735 50.0751 78.0484 50.7324 77.8447 51.4372C77.7131 50.5384 77.9347 49.6002 78.4425 48.8727L78.4601 48.8626ZM77.0185 52.6302C77.3223 52.8307 77.0714 53.4335 76.7277 53.3265L76.6999 53.319C76.7498 53.4664 76.5596 53.5643 76.4346 53.5308C76.379 53.5159 76.3447 53.477 76.3318 53.414C76.6656 53.2801 76.9255 52.9775 77.0185 52.6302ZM76.3887 53.9801C76.4708 54.285 76.4408 54.6194 76.2932 54.8925L76.2207 55.0517C75.8762 54.7807 75.9881 54.1407 76.4026 53.9838L76.3887 53.9801ZM70.6353 64.7215C70.8644 64.5894 71.0935 64.4572 71.3225 64.325C71.4362 64.6235 71.4025 64.9718 71.2372 65.255C71.1754 65.8191 70.9886 66.3497 70.6841 66.819C70.5379 66.5863 70.4056 66.3573 70.2733 66.1283C70.8277 65.9493 71.0399 65.1575 70.6492 64.7253L70.6353 64.7215ZM68.8811 70.4898C69.1035 70.5494 68.8112 70.9177 68.625 70.7785L68.5897 70.7989C68.6396 70.9462 68.4431 71.0127 68.318 70.9791C68.2624 70.9642 68.2142 70.9216 68.2189 70.8484C68.4711 70.7969 68.7141 70.6684 68.8709 70.4722L68.8811 70.4898ZM66.8533 74.6662L67.0194 74.5469C67.2487 75.0252 67.0951 75.654 66.6434 75.9499C66.5809 75.5162 66.6481 75.0429 66.8571 74.6523L66.8533 74.6662ZM64.841 80.008C64.9939 80.0489 64.9157 80.3406 64.7591 80.3136C64.6062 80.2726 64.6844 79.9809 64.841 80.008ZM72.8791 21.6545C73.1324 21.3204 73.4174 20.9799 73.8271 20.8962C74.2369 20.8124 74.7222 21.2253 74.5485 21.5956C73.845 21.4965 73.1325 22.1542 73.18 22.8667C72.8863 22.6838 72.5947 22.3823 72.6701 22.0452C72.711 21.8924 72.79 21.7647 72.8828 21.6407L72.8791 21.6545ZM72.0335 22.7531C72.0149 22.8225 71.9203 22.8418 71.8508 22.8232C71.7813 22.8046 71.723 22.7443 71.7277 22.6711C71.7687 22.5183 72.0605 22.5965 72.0335 22.7531ZM70.476 25.7303C70.4574 25.7998 70.3628 25.8191 70.2933 25.8005C70.2238 25.7819 70.1655 25.7216 70.1702 25.6484C70.2111 25.4956 70.503 25.5738 70.476 25.7303ZM67.8005 27.9316C68.1479 27.1909 68.6029 26.4939 69.1402 25.8786C69.1509 26.2834 69.1477 26.6846 69.1584 27.0895C69.3132 27.0118 69.4718 26.9203 69.6267 26.8427C69.8 26.9189 69.7923 27.17 69.6781 27.3181C69.5538 27.4485 69.3609 27.501 69.1922 27.5749C68.6052 27.8196 68.1597 28.3703 68.0376 28.9927C68.0098 28.9852 67.982 28.9778 67.9542 28.9703C67.6067 28.8772 67.6305 28.288 67.8042 27.9177L67.8005 27.9316ZM67.9285 30.5118C67.7331 30.2957 67.5313 30.0481 67.5465 29.7693C67.5653 29.4765 67.9808 29.2603 68.1548 29.5005L68.1938 29.4663C68.3519 29.8213 68.229 30.2797 67.9109 30.522L67.9285 30.5118ZM66.6718 29.4753C66.8071 29.5265 66.7326 29.8043 66.5899 29.7809C66.4407 29.7261 66.5152 29.4482 66.6718 29.4753ZM65.699 32.5497C66.0326 31.8053 66.4505 31.024 67.1655 30.6349C67.1149 31.1574 66.8975 31.6351 66.694 32.1166C66.0158 33.647 65.3199 35.1876 64.286 36.4888C64.6471 35.1413 65.1332 33.8274 65.7129 32.5534L65.699 32.5497ZM61.8099 51.0117C61.6242 51.2597 61.2941 51.3797 61.0023 51.3015L61.0636 51.1839C60.9898 50.7919 61.7046 50.6261 61.8136 50.9978L61.8099 51.0117ZM64.3685 33.0121C64.6919 33.0838 64.85 33.4389 64.9423 33.7614C64.7319 33.8241 64.5085 33.8238 64.3 33.7679C64.2027 33.7419 64.1193 33.7195 64.0295 33.6657L64.0443 33.6101C63.7497 33.4865 64.0413 32.9542 64.3647 33.026L64.3685 33.0121ZM62.4546 40.822C62.5528 39.955 62.651 39.088 62.7354 38.2173C62.754 38.1478 62.7587 38.0746 62.7875 38.0228C62.884 37.8849 63.124 37.9343 63.2193 38.079C63.3147 38.2236 63.3117 38.4015 63.3087 38.5793C63.2912 39.4233 63.1733 40.419 62.4369 40.8321L62.4546 40.822ZM61.7036 41.9012C61.8594 41.7643 62.1459 41.7517 62.2476 41.9278C62.2948 42.0298 62.2928 42.1484 62.2769 42.2632C62.1901 42.8653 61.9884 43.4514 61.7069 44.0013C61.2336 43.7107 61.3048 43.0003 61.4361 42.4548C61.4882 42.2603 61.5477 42.0381 61.7036 41.9012ZM46.0939 25.8226L46.0865 25.8504C46.2858 25.8293 46.5035 25.9621 46.57 26.1586C46.4012 26.2325 46.2009 26.3128 46.0453 26.2264C45.8897 26.1401 45.916 25.8196 46.1041 25.8402L46.0939 25.8226ZM50.1427 54.9129C50.1427 54.9129 50.0593 54.8905 50.0389 54.8553C49.8399 54.6531 49.9719 54.2716 50.2288 54.1468C50.3065 54.3017 50.4018 54.4463 50.4934 54.6048L50.5398 54.5428C50.6619 54.7542 50.3651 54.9725 50.1566 54.9166L50.1427 54.9129ZM48.5351 51.6831C47.5102 50.5598 46.503 49.4264 45.4781 48.3031C43.3635 45.9648 41.2628 43.6301 39.0026 41.4463C37.584 40.0687 35.9803 38.4925 36.0027 36.5184C36.0247 34.157 38.518 32.4131 40.8742 32.4042C43.2303 32.3954 45.398 33.6462 47.3301 34.9976C51.9361 38.212 56.1129 42.4727 57.6459 47.8711C57.9395 48.8878 58.1414 49.9692 58.7235 50.8547C59.0946 51.4157 59.6975 51.8899 60.3369 52.0612C60.6983 52.158 61.0718 52.1539 61.4297 52.0413C63.0904 51.459 62.9371 49.14 62.9037 47.3742C62.8089 44.0584 64.1915 40.9003 65.5683 37.8746C68.5729 31.2205 71.9189 24.1814 78.1396 20.3693C78.7072 20.03 79.5667 19.769 79.91 20.3225C78.3713 30.1238 74.6141 39.42 70.8969 48.6226C68.0644 55.6355 65.2281 62.6623 62.3956 69.6751C60.4134 64.8412 56.8462 60.863 53.3401 56.9905C51.7292 55.2189 50.1322 53.451 48.5351 51.6831Z" fill="#C2D832"/>
<path d="M86.5131 72.1548C86.7973 72.4576 86.4746 72.9293 86.1581 73.2055C85.5647 73.7395 84.9575 74.2917 84.6432 75.0187C84.333 75.7517 84.3999 76.7069 85.025 77.2041C86.9311 76.6823 88.7388 75.888 90.5505 75.0997C92.8887 74.0752 95.2328 73.0467 97.5709 72.0222C102.839 69.7186 108.258 67.3039 112.174 63.1009C112.818 62.4108 113.45 61.5891 113.449 60.6414C113.451 59.7356 112.941 58.6288 113.644 58.0638C114.274 57.5574 114.248 56.548 113.791 55.8757C113.763 55.8341 113.734 55.7925 113.706 55.7508C113.159 55.0873 112.301 54.7837 111.461 54.5977C108.878 54.0221 106.164 54.3277 103.626 55.0706C101.092 55.8195 98.7033 57.0001 96.359 58.2201C96.6711 57.4771 96.7751 56.6581 96.6518 55.8631C96.8982 55.7652 97.1156 55.5477 97.1151 55.2784C97.1185 55.015 96.8568 54.7579 96.6001 54.8281C96.8126 54.3094 96.935 53.7477 96.9536 53.1868C96.9614 52.9553 96.6594 52.6647 96.5957 52.8907C96.8517 52.1163 96.742 51.2773 96.541 50.483C96.1392 48.9203 95.3311 47.4251 94.0926 46.3967C92.8441 45.3663 91.1356 44.8488 89.5714 45.2339C87.9474 45.6335 86.6592 46.9359 85.9234 48.4369C85.1875 49.9379 84.9283 51.6282 84.7784 53.2875C84.3538 57.9442 84.6795 62.6301 85.0149 67.2919C85.1369 69.0187 85.3243 70.8925 86.515 72.1449L86.5131 72.1548ZM102.391 68.5614C102.392 68.4217 102.563 68.3144 102.685 68.3792L102.681 68.3732C102.824 68.354 102.962 68.3388 103.099 68.3236C103.006 68.5958 102.634 68.7268 102.395 68.5673L102.391 68.5614ZM103.425 67.9975C103.491 67.953 103.576 68.0779 103.514 68.1284C103.449 68.1728 103.364 68.0479 103.425 67.9975ZM105.315 67.0428C105.325 66.8273 105.603 66.6732 105.79 66.7812L105.73 66.8476C105.626 66.9623 105.471 67.0415 105.315 67.0428ZM106.074 66.5093C106.04 66.4458 106.159 66.3649 106.205 66.4204C106.244 66.4899 106.125 66.5707 106.074 66.5093ZM106.544 66.1899C106.524 66.1602 106.521 66.1183 106.547 66.0921C106.617 66.0536 106.697 66.1726 106.636 66.223C106.606 66.2432 106.564 66.2196 106.544 66.1899ZM107.4 65.6076C107.617 65.2865 107.967 65.0479 108.352 64.9607C108.129 65.2859 107.784 65.5204 107.4 65.6076ZM108.8 64.6993C108.874 64.3096 109.186 63.9756 109.572 63.8783C109.498 64.2681 109.186 64.6021 108.8 64.6993ZM111.467 62.4328C111.316 62.6317 111.114 62.7951 110.891 62.9029L110.949 62.9243C110.913 63.0623 110.848 63.2105 110.717 63.2735C110.62 63.3223 110.482 63.2856 110.425 63.2023C110.405 63.1726 110.395 63.1447 110.397 63.1088C110.411 62.9251 110.668 62.9069 110.852 62.9471C110.873 62.6457 111.174 62.3976 111.471 62.4388L111.467 62.4328ZM100.818 69.188C100.795 69.3079 100.772 69.4278 100.739 69.5458C100.389 69.6188 100.051 69.7614 99.7437 69.9617C99.9874 69.5785 100.378 69.2956 100.808 69.1861L100.818 69.188ZM99.0412 70.1436C99.0908 70.3187 98.7989 70.465 98.7037 70.3122L98.6956 70.3003C98.6664 70.3724 98.5624 70.3474 98.526 70.2938C98.5098 70.27 98.5096 70.2441 98.5253 70.216C98.6954 70.2743 98.8926 70.2447 99.0412 70.1436ZM98.3619 70.4489C98.2934 70.5912 98.1729 70.708 98.0278 70.7632L97.9483 70.7998C97.9064 70.5847 98.1578 70.3789 98.366 70.4549L98.3619 70.4489ZM92.6756 72.6366C92.8055 72.6613 92.9354 72.6861 93.0653 72.7109C93.0108 72.861 92.8843 72.9819 92.7292 73.0351C92.5216 73.2285 92.2776 73.3684 92.009 73.4466C92.0297 73.3107 92.0544 73.1808 92.0791 73.0509C92.3475 73.1642 92.6864 72.9337 92.6796 72.6425L92.6756 72.6366ZM90.1276 74.2475C90.1923 74.3427 89.9613 74.3866 89.9363 74.2731L89.9163 74.2693C89.8871 74.3414 89.791 74.3024 89.7546 74.2488C89.7384 74.225 89.7341 74.1931 89.7598 74.167C89.8721 74.2298 90.006 74.2605 90.1295 74.2375L90.1276 74.2475ZM87.9959 75.1664L88.0977 75.1754C88.0283 75.4314 87.7648 75.6194 87.4971 75.5838C87.6151 75.3992 87.7951 75.242 88.0018 75.1623L87.9959 75.1664ZM85.4894 76.5315C85.5339 76.597 85.409 76.6819 85.3586 76.6205C85.3141 76.555 85.4389 76.4701 85.4894 76.5315ZM107.591 57.0644C107.796 57.0206 108.015 56.9848 108.197 57.0869C108.38 57.189 108.429 57.5038 108.242 57.5873C108.008 57.32 107.523 57.3363 107.309 57.6216C107.257 57.4564 107.245 57.247 107.384 57.144C107.449 57.0996 107.521 57.077 107.597 57.0603L107.591 57.0644ZM106.912 57.2041C106.882 57.2243 106.84 57.2008 106.82 57.171C106.799 57.1413 106.797 57.0994 106.823 57.0732C106.888 57.0288 106.973 57.1537 106.912 57.2041ZM105.35 57.8226C105.32 57.8428 105.278 57.8193 105.258 57.7895C105.237 57.7598 105.235 57.7179 105.261 57.6917C105.326 57.6472 105.411 57.7722 105.35 57.8226ZM103.618 57.7822C103.991 57.6153 104.391 57.5 104.796 57.4425C104.667 57.5993 104.535 57.7501 104.407 57.9068C104.491 57.928 104.581 57.9452 104.665 57.9664C104.706 58.0518 104.621 58.1444 104.529 58.1631C104.439 58.1719 104.349 58.1288 104.261 58.1017C103.959 58.0026 103.611 58.0656 103.361 58.2614C103.353 58.2495 103.345 58.2376 103.337 58.2257C103.236 58.0769 103.437 57.8616 103.624 57.7782L103.618 57.7822ZM102.824 58.8009C102.82 58.6553 102.825 58.4956 102.921 58.395C103.024 58.2903 103.252 58.3441 103.24 58.4919L103.265 58.4917C103.209 58.6777 103.013 58.8112 102.814 58.799L102.824 58.8009ZM102.686 57.998C102.721 58.0616 102.602 58.1424 102.555 58.087C102.517 58.0175 102.636 57.9366 102.686 57.998ZM101.314 58.8443C101.683 58.6714 102.097 58.5121 102.495 58.5983C102.305 58.7796 102.066 58.8894 101.832 59.0053C101.075 59.3632 100.309 59.7192 99.4925 59.8741C100.069 59.4819 100.682 59.1432 101.318 58.8502L101.314 58.8443ZM93.8119 64.5637C93.6606 64.597 93.4965 64.5346 93.4115 64.4097L93.4731 64.3852C93.5732 64.2127 93.898 64.3834 93.8179 64.5597L93.8119 64.5637ZM100.659 58.5848C100.758 58.7176 100.702 58.9036 100.632 59.0559C100.532 59.0109 100.447 58.9378 100.386 58.8486C100.358 58.8069 100.334 58.7712 100.317 58.7215L100.341 58.7053C100.27 58.5623 100.554 58.456 100.653 58.5888L100.659 58.5848ZM97.3839 60.9165C97.7043 60.6203 98.0246 60.3242 98.3409 60.0221C98.3706 60.0018 98.3963 59.9757 98.4242 59.9654C98.5057 59.9448 98.5805 60.0419 98.5693 60.1278C98.5582 60.2137 98.499 60.28 98.4397 60.3464C98.1575 60.6602 97.7876 60.9987 97.3739 60.9146L97.3839 60.9165ZM96.7471 61.0798C96.8509 61.0789 96.9634 61.1676 96.9444 61.2676C96.929 61.3216 96.8895 61.3658 96.846 61.4041C96.6165 61.6037 96.3486 61.7597 96.0625 61.876C95.9782 61.6114 96.2372 61.3657 96.465 61.202C96.5483 61.1454 96.6434 61.0807 96.7471 61.0798ZM96.0886 49.8945L96.0767 49.9025C96.159 49.9597 96.1981 50.081 96.1591 50.1771C96.0711 50.15 95.969 50.115 95.9383 50.0315C95.9076 49.9479 96.0222 49.8352 96.0867 49.9044L96.0886 49.8945ZM88.1206 62.2302C88.1206 62.2302 88.0964 62.1945 88.1002 62.1745C88.0908 62.033 88.2654 61.9316 88.4034 61.9683C88.3823 62.0523 88.3711 62.1382 88.354 62.2281L88.3918 62.2198C88.369 62.3397 88.1854 62.3254 88.1247 62.2362L88.1206 62.2302ZM88.5669 60.4824C88.5457 59.7224 88.5345 58.9643 88.5134 58.2043C88.4765 56.6284 88.4437 55.0585 88.3012 53.4935C88.214 52.5087 88.1216 51.3882 88.7749 50.6481C89.5544 49.7612 91.0679 49.9153 91.9629 50.6815C92.8578 51.4476 93.27 52.6291 93.5601 53.7718C94.2541 56.4931 94.4439 59.4703 93.2611 62.0147C93.0403 62.4956 92.7635 62.9709 92.6947 63.4963C92.652 63.8298 92.7254 64.2063 92.9115 64.48C93.0167 64.6347 93.1594 64.7551 93.3317 64.8294C94.1506 65.1513 94.85 64.2232 95.414 63.5438C96.4611 62.2575 98.0159 61.5134 99.5254 60.8176C102.836 59.2796 106.402 57.7075 110.002 58.2959C110.328 58.3528 110.738 58.5347 110.688 58.8564C106.904 62.0646 102.445 64.357 98.0325 66.627C94.6697 68.357 91.301 70.0909 87.9382 71.8209C88.7665 69.3434 88.7153 66.6723 88.6526 64.0611C88.6214 62.8642 88.5941 61.6733 88.5669 60.4824Z" fill="#FCAB29"/>
<path d="M30.4552 73.6429C30.1711 73.9456 30.4937 74.4174 30.8103 74.6935C31.4036 75.2276 32.0108 75.7797 32.3251 76.5068C32.6353 77.2398 32.5684 78.1949 31.9433 78.6921C30.0373 78.1703 28.2295 77.376 26.4178 76.5877C24.0796 75.5632 21.7355 74.5347 19.3974 73.5103C14.1291 71.2066 8.71019 68.7919 4.79437 64.589C4.15061 63.8988 3.51808 63.0772 3.51908 62.1294C3.51769 61.2236 4.02687 60.1168 3.32408 59.5519C2.69454 59.0454 2.72006 58.0361 3.17725 57.3638C3.20557 57.3221 3.23389 57.2805 3.26221 57.2388C3.80909 56.5753 4.66772 56.2717 5.50729 56.0857C8.09 55.5102 10.804 55.8157 13.3423 56.5587C15.8765 57.3075 18.2651 58.4881 20.6093 59.7081C20.2972 58.9651 20.1933 58.1462 20.3165 57.3512C20.0701 57.2532 19.8527 57.0358 19.8533 56.7664C19.8498 56.503 20.1115 56.246 20.3682 56.3161C20.1557 55.7974 20.0333 55.2357 20.0147 54.6749C20.0069 54.4434 20.3089 54.1528 20.3726 54.3788C20.1166 53.6043 20.2263 52.7653 20.4273 51.971C20.8291 50.4084 21.6372 48.9132 22.8757 47.8847C24.1243 46.8544 25.8327 46.3369 27.3969 46.722C29.0209 47.1215 30.3091 48.4239 31.045 49.9249C31.7808 51.4259 32.04 53.1162 32.1899 54.7756C32.6145 59.4322 32.2889 64.1181 31.9535 68.7799C31.8314 70.5067 31.6441 72.3805 30.4533 73.6329L30.4552 73.6429ZM14.5769 70.0494C14.5762 69.9097 14.4057 69.8025 14.2834 69.8672L14.2874 69.8613C14.144 69.842 14.0065 69.8268 13.869 69.8117C13.9622 70.0838 14.334 70.2148 14.5728 70.0554L14.5769 70.0494ZM13.543 69.4855C13.4775 69.441 13.3926 69.566 13.4539 69.6164C13.5193 69.6609 13.6043 69.5359 13.543 69.4855ZM11.653 68.5309C11.643 68.3153 11.3652 68.1612 11.1787 68.2693L11.2379 68.3356C11.3426 68.4503 11.4974 68.5295 11.653 68.5309ZM10.894 67.9974C10.9285 67.9338 10.8096 67.853 10.7632 67.9084C10.7247 67.9779 10.8436 68.0588 10.894 67.9974ZM10.4243 67.6779C10.4445 67.6482 10.4469 67.6063 10.4212 67.5801C10.3518 67.5416 10.2709 67.6606 10.3322 67.711C10.3619 67.7312 10.4041 67.7077 10.4243 67.6779ZM9.56807 67.0957C9.35169 66.7745 9.00087 66.5359 8.6167 66.4487C8.83903 66.7739 9.1839 67.0084 9.56807 67.0957ZM8.16836 66.1873C8.09425 65.7976 7.78225 65.4636 7.39618 65.3664C7.47028 65.7561 7.78229 66.0901 8.16836 66.1873ZM5.50088 63.9209C5.65259 64.1198 5.85451 64.2832 6.0769 64.3909L6.01885 64.4123C6.05544 64.5503 6.11986 64.6986 6.25092 64.7616C6.3482 64.8103 6.4862 64.7737 6.54284 64.6904C6.56307 64.6606 6.5733 64.6328 6.57165 64.5968C6.55743 64.4132 6.30028 64.3949 6.11638 64.4352C6.0953 64.1337 5.79444 63.8856 5.49683 63.9268L5.50088 63.9209ZM16.1508 70.676C16.1736 70.7959 16.1964 70.9158 16.2292 71.0338C16.5796 71.1068 16.9174 71.2495 17.2247 71.4498C16.9809 71.0665 16.5906 70.7837 16.1608 70.6741L16.1508 70.676ZM17.9271 71.6316C17.8776 71.8067 18.1694 71.953 18.2646 71.8002L18.2727 71.7883C18.3019 71.8604 18.4059 71.8354 18.4423 71.7819C18.4585 71.7581 18.4587 71.7321 18.4431 71.704C18.2729 71.7624 18.0757 71.7327 17.9271 71.6316ZM18.6064 71.937C18.6749 72.0792 18.7955 72.196 18.9406 72.2512L19.02 72.2878C19.0619 72.0727 18.8105 71.8669 18.6024 71.9429L18.6064 71.937ZM24.2927 74.1246C24.1628 74.1494 24.0329 74.1741 23.9031 74.1989C23.9575 74.3491 24.084 74.4699 24.2391 74.5232C24.4467 74.7166 24.6907 74.8564 24.9593 74.9346C24.9386 74.7988 24.9139 74.6688 24.8892 74.5389C24.6209 74.6523 24.2819 74.4218 24.2887 74.1305L24.2927 74.1246ZM26.8408 75.7355C26.776 75.8307 27.007 75.8747 27.032 75.7612L27.052 75.7574C27.0812 75.8295 27.1774 75.7904 27.2138 75.7369C27.23 75.7131 27.2343 75.6812 27.2086 75.655C27.0963 75.7179 26.9623 75.7486 26.8389 75.7255L26.8408 75.7355ZM28.9725 76.6544L28.8706 76.6635C28.94 76.9195 29.2035 77.1074 29.4712 77.0719C29.3532 76.8873 29.1732 76.73 28.9665 76.6504L28.9725 76.6544ZM31.4789 78.0196C31.4344 78.085 31.5593 78.1699 31.6097 78.1085C31.6542 78.0431 31.5294 77.9582 31.4789 78.0196ZM9.37772 58.5524C9.17268 58.5087 8.95359 58.4728 8.7711 58.5749C8.58861 58.6771 8.53974 58.9919 8.72646 59.0753C8.96039 58.8081 9.44496 58.8244 9.65969 59.1096C9.71112 58.9445 9.72309 58.7351 9.58443 58.6321C9.51902 58.5876 9.44742 58.565 9.37178 58.5484L9.37772 58.5524ZM10.0566 58.6922C10.0863 58.7124 10.1285 58.6888 10.1487 58.6591C10.1689 58.6293 10.1713 58.5874 10.1456 58.5613C10.0802 58.5168 9.99526 58.6417 10.0566 58.6922ZM11.6187 59.3107C11.6484 59.3309 11.6905 59.3073 11.7107 59.2776C11.731 59.2478 11.7333 59.2059 11.7077 59.1798C11.6423 59.1353 11.5573 59.2602 11.6187 59.3107ZM13.3505 59.2702C12.9771 59.1033 12.5772 58.988 12.1728 58.9305C12.301 59.0873 12.4332 59.2381 12.5614 59.3949C12.4774 59.4161 12.3875 59.4332 12.3035 59.4544C12.2628 59.5399 12.3477 59.6324 12.4393 59.6512C12.529 59.66 12.6191 59.6169 12.7072 59.5897C13.0093 59.4907 13.3578 59.5536 13.6073 59.7494C13.6154 59.7375 13.6235 59.7256 13.6316 59.7137C13.7327 59.565 13.5313 59.3497 13.3446 59.2662L13.3505 59.2702ZM14.1447 60.2889C14.1481 60.1433 14.1437 59.9836 14.0469 59.883C13.9441 59.7783 13.7162 59.8322 13.7288 59.9799L13.7028 59.9797C13.7589 60.1658 13.9551 60.2992 14.1547 60.287L14.1447 60.2889ZM14.282 59.4861C14.2475 59.5496 14.3664 59.6305 14.4128 59.575C14.4514 59.5055 14.3325 59.4247 14.282 59.4861ZM15.6544 60.3323C15.285 60.1594 14.8716 60.0001 14.4738 60.0863C14.6636 60.2676 14.9019 60.3775 15.1362 60.4933C15.8928 60.8512 16.6594 61.2072 17.4758 61.3621C16.8991 60.9699 16.2859 60.6312 15.6503 60.3383L15.6544 60.3323ZM23.1564 66.0518C23.3077 66.085 23.4719 66.0226 23.5568 65.8977L23.4952 65.8732C23.3951 65.7007 23.0703 65.8714 23.1505 66.0477L23.1564 66.0518ZM16.3091 60.0728C16.2101 60.2056 16.2662 60.3916 16.3366 60.5439C16.4367 60.4989 16.5212 60.4259 16.5819 60.3366C16.6102 60.295 16.6345 60.2593 16.6509 60.2095L16.6272 60.1934C16.6983 60.0503 16.4141 59.944 16.3151 60.0768L16.3091 60.0728ZM19.5844 62.4045C19.2641 62.1084 18.9437 61.8122 18.6274 61.5101C18.5977 61.4899 18.572 61.4637 18.5442 61.4535C18.4626 61.4328 18.3879 61.5299 18.399 61.6158C18.4102 61.7017 18.4694 61.7681 18.5286 61.8344C18.8109 62.1482 19.1807 62.4867 19.5944 62.4026L19.5844 62.4045ZM20.2212 62.5678C20.1175 62.5669 20.0049 62.6557 20.0239 62.7556C20.0394 62.8096 20.0788 62.8539 20.1224 62.8922C20.3519 63.0917 20.6197 63.2478 20.9058 63.364C20.9901 63.0994 20.7311 62.8537 20.5033 62.6901C20.42 62.6334 20.3249 62.5688 20.2212 62.5678ZM20.8797 51.3825L20.8916 51.3906C20.8093 51.4477 20.7702 51.5691 20.8092 51.6652C20.8972 51.638 20.9993 51.603 21.03 51.5195C21.0608 51.436 20.9461 51.3232 20.8816 51.3925L20.8797 51.3825ZM28.8477 63.7183C28.8477 63.7183 28.872 63.6826 28.8682 63.6626C28.8775 63.521 28.7029 63.4197 28.5649 63.4564C28.5861 63.5403 28.5972 63.6262 28.6143 63.7162L28.5765 63.7079C28.5993 63.8278 28.7829 63.8135 28.8436 63.7242L28.8477 63.7183ZM28.4014 61.9704C28.4226 61.2105 28.4338 60.4524 28.455 59.6924C28.4918 58.1165 28.5247 56.5465 28.6671 54.9816C28.7543 53.9967 28.8467 52.8762 28.1934 52.1361C27.4139 51.2493 25.9004 51.4034 25.0054 52.1695C24.1105 52.9357 23.6984 54.1172 23.4083 55.2598C22.7142 57.9811 22.5245 60.9583 23.7072 63.5028C23.928 63.9836 24.2048 64.4589 24.2736 64.9843C24.3163 65.3179 24.243 65.6943 24.0568 65.968C23.9517 66.1227 23.8089 66.2431 23.6366 66.3174C22.8177 66.6393 22.1184 65.7113 21.5543 65.0319C20.5073 63.7456 18.9524 63.0014 17.443 62.3056C14.1322 60.7677 10.5665 59.1955 6.96634 59.7839C6.64065 59.8408 6.22999 60.0227 6.28081 60.3444C10.0644 63.5526 14.523 65.845 18.9359 68.115C22.2986 69.845 25.6673 71.579 29.0301 73.3089C28.2018 70.8315 28.253 68.1603 28.3157 65.5491C28.347 64.3523 28.3742 63.1614 28.4014 61.9704Z" fill="#009540"/>
</svg>
