<svg width="358" height="619" viewBox="0 0 358 619" fill="none" xmlns="http://www.w3.org/2000/svg">
<path id="Subtract" d="M338.8 0C345.52 0 348.881 -0.000304624 351.448 1.30762C353.706 2.45808 355.542 4.29394 356.692 6.55176C358 9.1187 358 12.4796 358 19.2002V234.217C352.477 234.217 348 239.21 348 245.369C348 251.529 352.477 256.522 358 256.522V599.8C358 606.52 358 609.881 356.692 612.448C355.542 614.706 353.706 616.542 351.448 617.692C348.881 619 345.52 619 338.8 619H19.2002C12.4796 619 9.1187 619 6.55176 617.692C4.29394 616.542 2.45808 614.706 1.30762 612.448C-0.000304624 609.881 0 606.52 0 599.8V256.522C5.52285 256.522 10 251.529 10 245.369C9.99981 239.402 5.79821 234.529 0.514648 234.23L0 234.217V19.2002C0 12.4796 -0.000304624 9.1187 1.30762 6.55176C2.45808 4.29394 4.29394 2.45808 6.55176 1.30762C9.1187 -0.000304624 12.4796 0 19.2002 0H338.8Z" fill="white"/>
</svg>
