<svg width="16" height="16" viewBox="0 0 16 16" fill="none" xmlns="http://www.w3.org/2000/svg">
<path d="M7.92016 6.09325C8.7735 6.13325 8.9935 6.85992 9.00683 7.19992H10.2002C10.1468 5.87992 9.20683 5.07325 7.90016 5.07325C6.42683 5.07325 5.3335 5.99992 5.3335 8.09325C5.3335 9.38659 5.9535 10.9199 7.8935 10.9199C9.3735 10.9199 10.1668 9.81992 10.1868 8.95325H8.9935C8.9735 9.34659 8.6935 9.87325 7.90683 9.91325C7.0335 9.88658 6.66683 9.20658 6.66683 8.09325C6.66683 6.16658 7.52016 6.10659 7.92016 6.09325ZM8.00016 1.33325C4.32016 1.33325 1.3335 4.31992 1.3335 7.99992C1.3335 11.6799 4.32016 14.6666 8.00016 14.6666C11.6802 14.6666 14.6668 11.6799 14.6668 7.99992C14.6668 4.31992 11.6802 1.33325 8.00016 1.33325ZM8.00016 13.3333C5.06016 13.3333 2.66683 10.9399 2.66683 7.99992C2.66683 5.05992 5.06016 2.66659 8.00016 2.66659C10.9402 2.66659 13.3335 5.05992 13.3335 7.99992C13.3335 10.9399 10.9402 13.3333 8.00016 13.3333Z" fill="#6E7A6C"/>
</svg>
