<svg width="58" height="58" viewBox="0 0 57.6 57.6" fill="none" xmlns="http://www.w3.org/2000/svg">
<path d="M51.0639 42.6039C45.2364 41.7039 44.7976 41.2876 44.7976 41.2876C46.5526 32.9626 42.2776 24.2889 36.2139 19.2826C28.1364 12.6226 15.8626 17.4601 6.30012 7.33511C4.07262 4.97261 5.36637 33.8289 17.3364 44.7639C26.0889 52.7514 36.3939 50.2989 39.2176 48.9939C41.7826 47.8014 43.5714 45.1801 43.5714 45.1801C48.2401 46.6426 50.5464 46.7776 50.5464 46.7776C52.1889 46.9801 53.0214 42.9076 51.0639 42.6039ZM40.7364 43.4364C31.9951 40.8151 24.3901 34.3239 19.4626 29.2389C19.0576 28.8226 19.6426 28.2039 20.0814 28.5639C24.9301 32.5576 32.3326 37.5639 41.8276 40.7026C41.8501 41.6139 41.3214 42.9189 40.7364 43.4364Z" fill="#BDCABA"/>
</svg>
