<svg width="40" height="40" viewBox="0 0 40.32 40.32" fill="none" xmlns="http://www.w3.org/2000/svg">
<path d="M35.7447 29.8227C31.6655 29.1927 31.3583 28.9013 31.3583 28.9013C32.5868 23.0738 29.5943 17.0022 25.3497 13.4978C19.6955 8.83583 11.1038 12.2221 4.41008 5.13458C2.85083 3.48083 3.75646 23.6802 12.1355 31.3347C18.2622 36.926 25.4757 35.2092 27.4523 34.2957C29.2478 33.461 30.5 31.6261 30.5 31.6261C33.7681 32.6498 35.3825 32.7443 35.3825 32.7443C36.5322 32.8861 37.115 30.0353 35.7447 29.8227ZM28.5155 30.4055C22.3966 28.5706 17.0731 24.0267 13.6238 20.4672C13.3403 20.1758 13.7498 19.7427 14.057 19.9947C17.4511 22.7903 22.6328 26.2947 29.2793 28.4918C29.2951 29.1297 28.925 30.0432 28.5155 30.4055Z" fill="#BDCABA"/>
</svg>
