<svg width="64" height="80" viewBox="0 0 64 80" fill="none" xmlns="http://www.w3.org/2000/svg">
<path d="M54.3686 1.06742C51.991 6.46341 51.4754 6.77948 51.4754 6.77948C43.8883 2.92961 34.4036 4.81401 27.9985 9.37543C19.4748 15.454 20.9708 28.5615 8.71587 35.1777C5.85735 36.7178 34.0652 42.9367 47.7257 34.2047C57.7063 27.8178 58.0045 17.2292 57.4748 14.1639C56.9868 11.3776 54.9178 8.9714 54.9178 8.9714C57.5389 4.84026 58.2662 2.64753 58.2662 2.64753C58.8869 1.11341 55.1686 -0.744765 54.3686 1.06742ZM52.4998 11.2585C47.7054 19.0235 39.467 24.6893 33.28 28.1328C32.7731 28.4162 32.3268 27.691 32.7881 27.3604C37.9007 23.7105 44.6523 17.856 50.1416 9.49687C51.0276 9.71099 52.1513 10.5595 52.4998 11.2585Z" fill="#BDCABA"/>
<path d="M61.6926 45.2726C58.5879 47.9925 58.1673 48.0405 58.1673 48.0405C54.4928 43.3536 47.9181 41.7432 42.5052 42.7422C35.2994 44.0769 32.3709 52.8351 22.6389 53.4071C20.3698 53.5385 36.4255 65.8287 47.6751 64.3302C55.8965 63.2309 59.2181 56.6015 59.7889 54.5001C60.3035 52.5881 59.7028 50.4495 59.7028 50.4495C62.5877 48.604 63.6978 47.4281 63.6978 47.4281C64.5455 46.6384 62.7362 44.3596 61.6926 45.2726ZM57.4921 51.1851C52.1534 54.693 45.2507 55.8503 40.3068 56.2046C39.9014 56.2345 39.8328 55.6424 40.2233 55.5691C44.5466 54.766 50.5618 53.0491 56.5172 49.3699C57.016 49.7679 57.4779 50.6386 57.4921 51.1851Z" fill="#BDCABA"/>
</svg>
