<svg width="24" height="24" viewBox="0 0 24 24" fill="none" xmlns="http://www.w3.org/2000/svg">
<path fill-rule="evenodd" clip-rule="evenodd" d="M6.75 6H17.25C17.6642 6 18 6.33578 18 6.75V17.25C18 17.6642 17.6642 18 17.25 18H6.75C6.33579 18 6 17.6642 6 17.25V6.75C6 6.33579 6.33578 6 6.75 6ZM4.5 6.75C4.5 5.50736 5.50736 4.5 6.75 4.5H17.25C18.4927 4.5 19.5 5.50736 19.5 6.75V17.25C19.5 18.4927 18.4927 19.5 17.25 19.5H6.75C5.50736 19.5 4.5 18.4927 4.5 17.25V6.75ZM12 12C9.92894 12 8.25 9.98528 8.25 7.5H9.75C9.75 9.42455 11.0018 10.5 12 10.5C12.9982 10.5 14.25 9.42455 14.25 7.5H15.75C15.75 9.98528 14.071 12 12 12Z" fill="black"/>
</svg>
