<svg width="79" height="79" viewBox="0 0 79 79" fill="none" xmlns="http://www.w3.org/2000/svg">
<path d="M42.3511 9.87518L73.7075 64.1877C73.9964 64.6881 74.1485 65.2557 74.1485 65.8335C74.1485 66.4113 73.9965 66.9789 73.7076 67.4793C73.4187 67.9797 73.0031 68.3952 72.5028 68.6842C72.0024 68.9731 71.4348 69.1252 70.857 69.1252H8.14412C7.56632 69.1252 6.9987 68.9731 6.49832 68.6842C5.99793 68.3952 5.58241 67.9797 5.29352 67.4793C5.00462 66.9789 4.85254 66.4113 4.85254 65.8335C4.85254 65.2557 5.00464 64.6881 5.29354 64.1877L36.65 9.87518C36.9389 9.37482 37.3544 8.95933 37.8548 8.67045C38.3552 8.38157 38.9228 8.22949 39.5005 8.22949C40.0783 8.22949 40.6459 8.38157 41.1463 8.67045C41.6467 8.95933 42.0622 9.37482 42.3511 9.87518ZM36.2089 52.6668V59.2502H42.7922V52.6668H36.2089ZM36.2089 29.6252V46.0835H42.7922V29.6252H36.2089Z" fill="#FCAB29"/>
</svg>
