<svg width="18" height="18" viewBox="0 0 18 18" fill="none" xmlns="http://www.w3.org/2000/svg">
<path fill-rule="evenodd" clip-rule="evenodd" d="M6.34835 2.59835C7.05161 1.89509 8.00544 1.5 9 1.5C9.99456 1.5 10.9484 1.89509 11.6517 2.59835C12.3549 3.30161 12.75 4.25544 12.75 5.25V6H14.25C14.6401 6 14.965 6.299 14.9974 6.68772L15.7474 15.6877C15.7648 15.8967 15.6939 16.1035 15.5519 16.2578C15.4099 16.4122 15.2097 16.5 15 16.5H3C2.79026 16.5 2.59011 16.4122 2.44809 16.2578C2.30607 16.1035 2.23518 15.8967 2.25259 15.6877L3.00259 6.68772C3.03499 6.299 3.35994 6 3.75 6H5.25V5.25C5.25 4.25544 5.64509 3.30161 6.34835 2.59835ZM5.25 7.5V8.25C5.25 8.66421 5.58579 9 6 9C6.41422 9 6.75 8.66421 6.75 8.25V7.5H11.25V8.25C11.25 8.66421 11.5858 9 12 9C12.4142 9 12.75 8.66421 12.75 8.25V7.5H13.5599L14.1849 15H3.8151L4.4401 7.5H5.25ZM11.25 6H6.75V5.25C6.75 4.65326 6.98706 4.08097 7.40901 3.65901C7.83097 3.23705 8.40326 3 9 3C9.59674 3 10.169 3.23705 10.591 3.65901C11.0129 4.08097 11.25 4.65326 11.25 5.25V6Z" fill="#1C1B1B"/>
</svg>
