<svg width="18" height="18" viewBox="0 0 18 18" fill="none" xmlns="http://www.w3.org/2000/svg">
<path d="M6.72375 13.5C6.63459 14.1257 6.32266 14.6983 5.84526 15.1125C5.36786 15.5267 4.75704 15.7547 4.125 15.7547C3.49296 15.7547 2.88214 15.5267 2.40474 15.1125C1.92734 14.6983 1.61541 14.1257 1.52625 13.5H0.75V4.5C0.75 4.30109 0.829018 4.11032 0.96967 3.96967C1.11032 3.82902 1.30109 3.75 1.5 3.75H12C12.1989 3.75 12.3897 3.82902 12.5303 3.96967C12.671 4.11032 12.75 4.30109 12.75 4.5V6H15L17.25 9.042V13.5H15.7238C15.6346 14.1257 15.3227 14.6983 14.8453 15.1125C14.3679 15.5267 13.757 15.7547 13.125 15.7547C12.493 15.7547 11.8821 15.5267 11.4047 15.1125C10.9273 14.6983 10.6154 14.1257 10.5262 13.5H6.72375ZM11.25 5.25H2.25V11.2875C2.54592 10.9854 2.91045 10.7593 3.31256 10.6283C3.71468 10.4974 4.14247 10.4656 4.55953 10.5355C4.9766 10.6055 5.37058 10.7752 5.70796 11.0302C6.04533 11.2852 6.31611 11.6179 6.49725 12H10.7527C10.8787 11.7353 11.0475 11.4945 11.25 11.2875V5.25ZM12.75 9.75H15.75V9.53625L14.244 7.5H12.75V9.75ZM13.125 14.25C13.4235 14.25 13.7097 14.1314 13.9208 13.9204C14.1318 13.7093 14.2504 13.4231 14.2504 13.1246C14.2504 12.8262 14.1318 12.5399 13.9208 12.3289C13.7097 12.1178 13.4235 11.9992 13.125 11.9992C12.8265 11.9992 12.5403 12.1178 12.3292 12.3289C12.1182 12.5399 11.9996 12.8262 11.9996 13.1246C11.9996 13.4231 12.1182 13.7093 12.3292 13.9204C12.5403 14.1314 12.8265 14.25 13.125 14.25ZM5.25 13.125C5.25 12.9773 5.2209 12.831 5.16436 12.6945C5.10783 12.558 5.02496 12.434 4.9205 12.3295C4.81603 12.225 4.69201 12.1422 4.55552 12.0856C4.41903 12.0291 4.27274 12 4.125 12C3.97726 12 3.83097 12.0291 3.69448 12.0856C3.55799 12.1422 3.43397 12.225 3.3295 12.3295C3.22504 12.434 3.14217 12.558 3.08564 12.6945C3.0291 12.831 3 12.9773 3 13.125C3 13.4234 3.11853 13.7095 3.3295 13.9205C3.54048 14.1315 3.82663 14.25 4.125 14.25C4.42337 14.25 4.70952 14.1315 4.9205 13.9205C5.13147 13.7095 5.25 13.4234 5.25 13.125Z" fill="#1C1B1B"/>
</svg>
