<svg width="16" height="16" viewBox="0 0 16 16" fill="none" xmlns="http://www.w3.org/2000/svg">
<path d="M8.98203 1.56595C8.88304 1.39352 8.7403 1.25025 8.56823 1.15062C8.39617 1.051 8.20086 0.998535 8.00203 0.998535C7.8032 0.998535 7.60789 1.051 7.43582 1.15062C7.26375 1.25025 7.12102 1.39352 7.02203 1.56595L0.165027 13.233C-0.291973 14.011 0.256027 15 1.14503 15H14.858C15.747 15 16.296 14.01 15.838 13.233L8.98203 1.56595ZM8.00003 4.99995C8.53503 4.99995 8.95403 5.46195 8.90003 5.99495L8.55003 9.50195C8.53827 9.63972 8.47523 9.76806 8.37338 9.86159C8.27154 9.95511 8.1383 10.007 8.00003 10.007C7.86175 10.007 7.72852 9.95511 7.62667 9.86159C7.52483 9.76806 7.46179 9.63972 7.45003 9.50195L7.10003 5.99495C7.08746 5.86918 7.10137 5.74218 7.14087 5.62212C7.18037 5.50206 7.24458 5.3916 7.32937 5.29786C7.41416 5.20413 7.51764 5.12919 7.63315 5.07788C7.74866 5.02657 7.87363 5.00002 8.00003 4.99995ZM8.00203 11C8.26724 11 8.5216 11.1053 8.70913 11.2928C8.89667 11.4804 9.00203 11.7347 9.00203 12C9.00203 12.2652 8.89667 12.5195 8.70913 12.7071C8.5216 12.8946 8.26724 13 8.00203 13C7.73681 13 7.48246 12.8946 7.29492 12.7071C7.10738 12.5195 7.00203 12.2652 7.00203 12C7.00203 11.7347 7.10738 11.4804 7.29492 11.2928C7.48246 11.1053 7.73681 11 8.00203 11Z" fill="#835400"/>
</svg>
