<svg width="18" height="18" viewBox="0 0 18 18" fill="none" xmlns="http://www.w3.org/2000/svg">
<path d="M10.125 1.625C10.6739 1.625 11.125 2.07614 11.125 2.625C11.125 3.17386 10.6739 3.625 10.125 3.625C9.57614 3.625 9.125 3.17386 9.125 2.625C9.125 2.07614 9.57614 1.625 10.125 1.625ZM10.25 12.5361L10.0947 12.3877L8.51953 10.8877L7.88086 10.2793L7.6875 11.1406L6.4248 16.75H5.85938L7.84082 6.77246L8.01758 5.87891L7.16895 6.20898L5.81836 6.73438L5.5 6.8584V9.25H5V6.55566L8.48047 5.08008L8.48145 5.08105C8.72412 4.97905 8.99516 4.96636 9.24609 5.0459C9.49685 5.12538 9.71098 5.29171 9.85059 5.51465L10.6006 6.71484V6.71387C11.22 7.7856 12.3733 8.56553 13.75 8.71973V9.22266C12.4505 9.09029 11.2875 8.45304 10.5029 7.54785L9.83496 6.77637L9.63477 7.77734L9.18457 10.0273L9.13086 10.2969L9.33008 10.4873L10.75 11.8389V16.75H10.25V12.5361Z" stroke="#3E4A3D"/>
</svg>
