<svg width="21" height="22" viewBox="0 0 21 22" fill="none" xmlns="http://www.w3.org/2000/svg">
<path d="M20.2125 4.40275V0.88C20.2125 0.39325 19.8371 0 19.3725 0H1.62751C1.16289 0 0.787516 0.39325 0.787516 0.88V4.40275C0.349141 4.43025 1.62643e-05 4.8125 1.62643e-05 5.28V8.90175C-0.0016648 9.56737 0.126986 10.2263 0.378016 10.8378C0.490891 11.1182 0.630016 11.3822 0.787516 11.6325V21.12C0.787516 21.604 1.16289 22 1.62751 22H8.82001V17.16H12.18V22H19.3725C19.8371 22 20.2125 21.6068 20.2125 21.12V11.6325C20.3725 11.3816 20.5096 11.1155 20.622 10.8378C20.8714 10.2245 21 9.57275 21 8.90175V5.28C21 4.8125 20.6509 4.43025 20.2125 4.40275ZM18.3225 20.0227H13.86V16.28C13.86 15.7933 13.4846 15.4 13.02 15.4H7.98001C7.51539 15.4 7.14001 15.7933 7.14001 16.28V20.0227H2.67751V13.3623C2.75364 13.4008 2.83239 13.4393 2.91376 13.4723C3.49914 13.7308 4.12126 13.86 4.76176 13.86C5.40226 13.86 6.02176 13.7308 6.60976 13.4723C6.97201 13.3128 7.31326 13.1092 7.62564 12.8645C7.63089 12.8617 7.63614 12.8617 7.64139 12.8645C7.95473 13.1103 8.29596 13.3144 8.65726 13.4723C9.24263 13.7308 9.86476 13.86 10.5053 13.86C11.1458 13.86 11.7653 13.7308 12.3533 13.4723C12.7155 13.3128 13.0568 13.1092 13.3691 12.8645C13.3744 12.8617 13.3796 12.8617 13.3849 12.8645C13.6982 13.1103 14.0395 13.3144 14.4008 13.4723C14.9861 13.7308 15.6083 13.86 16.2488 13.86C16.8893 13.86 17.5088 13.7308 18.0968 13.4723C18.1755 13.4365 18.2543 13.4008 18.333 13.3623V20.0227H18.3225ZM18.3225 4.4H2.67751V1.98H18.3225V4.4Z" fill="#3E4A3D"/>
</svg>
