<svg width="13" height="17" viewBox="0 0 13 17" fill="none" xmlns="http://www.w3.org/2000/svg">
<path d="M1.38999 12.4885C1.27369 12.2993 1.34071 12.526 1.41956 12.5851C1.4511 12.6088 1.4373 12.5654 1.38999 12.4885Z" fill="white"/>
<path d="M10.8734 14.6689C10.8734 14.6314 10.8852 14.6137 10.897 14.6294C10.9364 14.6886 11.4431 14.0952 11.7525 13.6299C12.0738 13.1449 12.3478 12.5101 12.5036 11.8832C12.6751 11.1952 12.8564 9.44058 12.7697 9.30061C12.7579 9.28089 12.7657 9.17838 12.7874 9.07192C12.8328 8.85112 12.7519 7.7885 12.681 7.67416C12.6554 7.63276 12.6534 7.58545 12.6751 7.57165C12.6987 7.55785 12.6908 7.42576 12.6573 7.27199C12.6258 7.11822 12.5785 6.86587 12.5509 6.70224C12.3124 5.23153 11.2558 2.94269 10.4259 2.10088C9.78526 1.45227 9.06971 1.10529 8.49017 0.839142C8.47243 0.914058 8.42315 0.919977 8.34036 0.770146C8.28319 0.744518 8.22997 0.718888 8.17675 0.69523C8.08213 0.712973 7.97568 0.766205 7.88303 0.598631C7.87121 0.576945 7.86332 0.555258 7.85544 0.535543C7.83178 0.521743 7.80616 0.507941 7.7825 0.496112C7.50653 0.334453 6.10105 0.0190187 5.57277 0.00127565C5.12136 -0.014496 4.54182 0.115623 3.74151 0.411341C2.88994 0.726773 2.55878 0.906174 2.32223 1.18612C1.84323 1.74995 1.32085 2.52671 1.13359 2.96043C1.09811 3.04323 0.979833 3.30543 0.867474 3.54791C0.42395 4.51195 0.061246 6.03392 0.0316777 7.05711C0.0257641 7.27988 0.0119656 7.55193 0.00210948 7.67416C-0.0077466 7.79245 0.0178792 7.94623 0.0592748 8.01326C0.10067 8.08029 0.112498 8.13351 0.0849006 8.13351C0.0119656 8.13351 0.0139368 8.39572 0.088843 8.60666C0.122354 8.70327 0.13221 8.87083 0.110526 8.96941C0.0868718 9.06995 0.0947567 9.19613 0.126296 9.24541C0.157836 9.2947 0.16572 9.35779 0.146008 9.38342C0.126296 9.40707 0.144037 9.49776 0.185433 9.57662C0.226828 9.65744 0.250483 9.77377 0.238655 9.82897C0.224857 9.89008 0.244569 9.95514 0.285965 9.98668C0.32736 10.0182 0.351015 10.0793 0.34313 10.1345C0.335245 10.1897 0.354957 10.243 0.386497 10.2607C0.418036 10.2765 0.429864 10.3199 0.412123 10.3534C0.396353 10.3869 0.418036 10.4598 0.457461 10.5091C0.498856 10.5584 0.532367 10.6432 0.532367 10.6905C0.532367 10.7417 0.561935 10.7851 0.603331 10.795C0.686122 10.8147 0.889157 11.2563 0.853675 11.3411C0.841848 11.3706 1.02911 11.7314 1.26763 12.1375C1.55149 12.6205 1.69933 12.9143 1.68947 12.9813C1.67764 13.0641 1.68947 13.0799 1.74861 13.0661C1.78803 13.0562 1.86885 13.1233 1.92405 13.2139C1.99304 13.3263 2.00092 13.3795 1.9477 13.3795C1.89251 13.3795 1.90236 13.4071 1.97727 13.4722C2.03443 13.5215 2.12117 13.6161 2.16651 13.6772C2.20987 13.7364 2.28281 13.8133 2.32223 13.8428C2.40502 13.902 2.70662 14.2529 2.85446 14.4599C3.04173 14.7241 3.53059 15.1499 3.75728 15.2465C3.84401 15.284 4.04902 15.4023 4.21854 15.5146C4.59899 15.767 4.56942 15.7512 5.14896 15.9917C5.74032 16.2362 6.55049 16.4215 6.59977 16.3249C6.61948 16.2855 6.63328 16.2894 6.63328 16.3328C6.63328 16.3762 6.65299 16.3959 6.68256 16.3761C6.71016 16.3584 6.91911 16.386 7.14974 16.4373C7.46119 16.5043 7.65634 16.5082 7.92443 16.4471C8.12155 16.4018 8.433 16.3328 8.61633 16.2934C8.80162 16.2539 9.10913 16.1337 9.30428 16.0252C9.88973 15.7019 10.8714 14.8562 10.8793 14.6689H10.8734Z" fill="white"/>
<path d="M3.59977 5.68345C3.32971 5.22804 4.15959 5.17481 4.31532 5.43702C4.36854 5.5277 3.81069 6.04028 3.59977 5.68345Z" fill="white"/>
<path d="M7.69652 5C8.05331 4.96451 7.61176 5.58946 7.57431 5.19122C7.59008 5.19122 7.5132 5.01774 7.69652 5Z" fill="white"/>
<path d="M1.12882 8.91663C1.19782 8.96394 1.322 8.68992 1.35946 8.77469C1.39494 8.85552 1.18205 9.08815 1.24316 9.13152C1.26878 9.14927 1.23921 9.23206 1.17613 9.32077C0.89425 9.72492 0.949444 8.79243 1.12882 8.91663Z" fill="white"/>
<path d="M9.22597 11.9205C9.24174 11.9481 9.23582 11.9856 9.2102 12.0013C9.1826 12.0171 9.15697 12.021 9.14909 12.0072C9.1412 11.9934 9.14909 11.9599 9.16486 11.9264C9.18063 11.8968 9.2102 11.8929 9.22597 11.9205Z" fill="white"/>
<path d="M8.87276 9.5956C9.10142 9.61334 9.03637 9.79669 8.92204 9.78881C8.78997 9.77895 8.84319 9.90907 8.75449 9.90118C8.71112 9.89724 8.60665 9.57588 8.87276 9.5956Z" fill="white"/>
<path d="M0.884572 11.0792C0.807694 11.022 0.76827 10.8407 0.868802 11.0043C0.910198 11.0713 0.918082 11.1048 0.884572 11.0792Z" fill="white"/>
<path d="M2.88565 10.8608C2.82454 10.9003 2.72598 10.8234 2.89747 10.713C3.09065 10.5868 3.19316 10.8727 3.10839 10.9279C2.99998 10.9989 2.96055 10.8135 2.88565 10.8608Z" fill="white"/>
<path d="M4.38078 9.82426C4.39655 9.82229 4.09101 8.1781 4.25265 8.15445C4.50891 8.11699 5.31711 15.1748 4.86373 12.119C4.68238 10.8928 4.76122 12.3891 4.38078 9.82426Z" fill="white"/>
<path d="M4.02678 14.1046C3.36642 13.4718 3.22449 13.1997 2.83813 12.5669C3.00766 12.7345 3.25406 12.9691 3.4709 13.2372C3.57537 13.3653 3.67196 13.458 3.69364 13.4462C3.76461 13.4028 3.96961 13.5881 4.04846 13.7675C4.13914 13.9725 4.71473 14.5147 4.78964 14.4674C4.81724 14.4516 4.83892 14.4634 4.83892 14.4969C4.83892 14.5285 4.87046 14.5561 4.90791 14.5581C4.98282 14.5581 5.01042 14.5935 4.96114 14.6251C4.902 14.6606 4.1963 14.2702 4.02678 14.1066V14.1046Z" fill="white"/>
<path d="M6.96995 13.7725C6.73144 13.804 6.51263 13.4058 7.07049 13.3309C7.58694 13.2619 7.48838 13.4886 7.309 13.5123C7.06654 13.5458 7.28338 13.7291 6.96995 13.7725Z" fill="white"/>
<path d="M8.50004 14.5057C8.40542 14.5234 8.39557 14.5136 8.42908 14.4347C8.46062 14.3618 8.4547 14.3598 8.39951 14.4229C8.30095 14.5392 7.83968 14.5806 7.67804 14.488C7.59919 14.4426 7.51049 14.4229 7.47698 14.4446C7.4415 14.4663 7.39813 14.4525 7.3725 14.413C7.34688 14.3716 7.30154 14.3598 7.26212 14.3854C7.22466 14.4091 7.1123 14.3973 7.01177 14.3598C6.70229 14.2474 6.9073 14.1607 7.43558 14.1804C7.69184 14.1903 8.13142 14.1587 8.41528 14.1134C8.85683 14.0404 8.98496 13.9951 9.32007 13.792C9.71825 13.5515 9.8109 13.5417 9.57238 13.7664C9.19982 14.1193 8.69519 14.4682 8.50398 14.5057H8.50004Z" fill="white"/>
</svg>
