<svg width="24" height="24" viewBox="0 0 24 24" fill="none" xmlns="http://www.w3.org/2000/svg">
<path d="M11.7188 0C18.191 0 23.4375 5.24648 23.4375 11.7188C23.4375 18.191 18.191 23.4375 11.7188 23.4375C5.24648 23.4375 0 18.191 0 11.7188C0 5.24648 5.24648 0 11.7188 0ZM11.7188 2.34375C9.23235 2.34375 6.84778 3.33147 5.08962 5.08962C3.33147 6.84778 2.34375 9.23235 2.34375 11.7188C2.34375 14.2052 3.33147 16.5897 5.08962 18.3479C6.84778 20.106 9.23235 21.0937 11.7188 21.0938C14.2052 21.0937 16.5897 20.106 18.3479 18.3479C20.106 16.5897 21.0937 14.2052 21.0938 11.7188C21.0937 9.23235 20.106 6.84778 18.3479 5.08962C16.5897 3.33147 14.2052 2.34375 11.7188 2.34375ZM11.7188 10.5469C14.0625 10.5469 16.016 10.9371 17.5781 11.7188C17.5781 13.2728 16.9608 14.7631 15.862 15.862C14.7631 16.9608 13.2728 17.5781 11.7188 17.5781C10.1647 17.5781 8.67439 16.9608 7.57555 15.862C6.4767 14.7631 5.85938 13.2728 5.85938 11.7188C7.42148 10.9371 9.375 10.5469 11.7188 10.5469ZM7.61719 5.85938C8.29257 5.85924 8.94726 6.09245 9.47045 6.51955C9.99364 6.94664 10.3532 7.54139 10.4883 8.20312H4.74609C4.88117 7.54139 5.24073 6.94664 5.76392 6.51955C6.28712 6.09245 6.94181 5.85924 7.61719 5.85938ZM15.8203 5.85938C16.4957 5.85924 17.1504 6.09245 17.6736 6.51955C18.1968 6.94664 18.5563 7.54139 18.6914 8.20312H12.9492C13.0843 7.54139 13.4439 6.94664 13.967 6.51955C14.4902 6.09245 15.1449 5.85924 15.8203 5.85938Z" fill="#BDCABA"/>
</svg>
