<svg width="8" height="8" viewBox="0 0 8 8" fill="none" xmlns="http://www.w3.org/2000/svg">
<path d="M2.34897 0.309583C2.34897 0.270154 2.19325 0.372666 1.57626 0.824129C1.30226 1.02522 1.06768 1.26376 0.939554 1.47471C0.880417 1.57131 0.801569 1.66989 0.768059 1.69157C0.703009 1.73297 0.576851 1.94589 0.302852 2.47818C-0.138701 3.33773 -0.0913941 4.67043 0.405353 5.34664C0.521654 5.50435 0.596561 5.63841 0.568964 5.63841C0.507856 5.63841 0.906043 6.05242 1.24115 6.33828C2.04935 7.02829 3.40357 7.47777 4.40298 7.38906C5.03377 7.33386 5.91688 6.91 6.30126 6.48022C6.41165 6.35602 6.5181 6.24957 6.54175 6.23774C6.59695 6.21211 6.58512 6.20422 6.69354 6.10368C6.87489 5.93808 7.19422 5.36438 7.29279 5.02726C7.49188 4.34317 7.45048 3.22339 7.19225 2.33032C7.13903 2.145 7.08581 1.938 7.07201 1.86309C7.05624 1.77437 6.97345 1.61468 6.86897 1.45105C6.8059 1.59299 6.73099 1.75662 6.64623 1.94194C5.94447 3.45207 5.84986 3.4087 6.55161 1.89857C6.65017 1.68763 6.73493 1.50823 6.80984 1.3584C6.70536 1.20659 6.58709 1.05873 6.48853 0.968041C6.05683 0.567836 5.37085 0.209037 4.85045 0.110464C4.22951 -0.00782267 4.06393 -0.0235909 4.02057 0.0276668C3.99691 0.0572386 3.92397 0.0631544 3.85498 0.0414684C3.67166 -0.0137322 2.79053 0.124263 2.55989 0.244522C2.44753 0.303665 2.35686 0.331267 2.35686 0.30761L2.34897 0.309583Z" fill="white"/>
<path d="M2.80049 5.21421C2.81429 5.20632 2.67433 5.08606 2.83006 4.99143C3.1356 4.81006 3.00353 5.55133 2.80049 5.21421Z" fill="white"/>
<path d="M3.95807 3.57636C4.11971 3.65127 4.17294 3.7045 4.11774 3.73802C4.05861 3.77548 3.58946 3.64733 3.55003 3.58424C3.47118 3.4561 3.69393 3.45216 3.95807 3.57439V3.57636Z" fill="white"/>
<path d="M3.3971 1.59674C3.44835 1.58688 3.51931 1.56125 3.55677 1.5376C3.59225 1.51591 3.63562 1.51394 3.64744 1.53365C3.65927 1.55337 3.60013 1.60265 3.51734 1.6401C3.43455 1.67559 3.34979 1.68546 3.33402 1.65983C3.31825 1.6342 3.34585 1.60462 3.3971 1.59674Z" fill="white"/>
</svg>
