<svg width="24" height="24" viewBox="0 0 24 24" fill="none" xmlns="http://www.w3.org/2000/svg">
<path d="M11.7188 23.4375C5.24648 23.4375 0 18.191 0 11.7188C0 5.24648 5.24648 0 11.7188 0C18.191 0 23.4375 5.24648 23.4375 11.7188C23.4375 18.191 18.191 23.4375 11.7188 23.4375ZM11.7188 21.0938C14.2052 21.0937 16.5897 20.106 18.3479 18.3479C20.106 16.5897 21.0937 14.2052 21.0938 11.7188C21.0937 9.23235 20.106 6.84778 18.3479 5.08962C16.5897 3.33147 14.2052 2.34375 11.7188 2.34375C9.23235 2.34375 6.84778 3.33147 5.08962 5.08962C3.33147 6.84778 2.34375 9.23235 2.34375 11.7188C2.34375 14.2052 3.33147 16.5897 5.08962 18.3479C6.84778 20.106 9.23235 21.0937 11.7188 21.0938ZM5.85938 17.5781C5.85938 16.0241 6.4767 14.5338 7.57555 13.4349C8.67439 12.3361 10.1647 11.7188 11.7188 11.7188C13.2728 11.7188 14.7631 12.3361 15.862 13.4349C16.9608 14.5338 17.5781 16.0241 17.5781 17.5781H15.2344C15.2344 16.6457 14.864 15.7515 14.2047 15.0922C13.5454 14.4329 12.6512 14.0625 11.7188 14.0625C10.7863 14.0625 9.89213 14.4329 9.23283 15.0922C8.57352 15.7515 8.20312 16.6457 8.20312 17.5781H5.85938ZM7.03125 10.5469C6.56505 10.5469 6.11794 10.3617 5.78829 10.032C5.45863 9.70237 5.27344 9.25526 5.27344 8.78906C5.27344 8.32286 5.45863 7.87575 5.78829 7.5461C6.11794 7.21645 6.56505 7.03125 7.03125 7.03125C7.49745 7.03125 7.94456 7.21645 8.27421 7.5461C8.60387 7.87575 8.78906 8.32286 8.78906 8.78906C8.78906 9.25526 8.60387 9.70237 8.27421 10.032C7.94456 10.3617 7.49745 10.5469 7.03125 10.5469ZM16.4062 10.5469C15.94 10.5469 15.4929 10.3617 15.1633 10.032C14.8336 9.70237 14.6484 9.25526 14.6484 8.78906C14.6484 8.32286 14.8336 7.87575 15.1633 7.5461C15.4929 7.21645 15.94 7.03125 16.4062 7.03125C16.8725 7.03125 17.3196 7.21645 17.6492 7.5461C17.9789 7.87575 18.1641 8.32286 18.1641 8.78906C18.1641 9.25526 17.9789 9.70237 17.6492 10.032C17.3196 10.3617 16.8725 10.5469 16.4062 10.5469Z" fill="#BDCABA"/>
<path d="M4.5 7.0L8.8 8.3" stroke="#BDCABA" stroke-width="0.82" stroke-linecap="round"/>
<path d="M18.94 7.0L14.64 8.3" stroke="#BDCABA" stroke-width="0.82" stroke-linecap="round"/>
</svg>
