<svg preserveAspectRatio="none" width="100%" height="100%" overflow="visible" style="display: block;" viewBox="0 0 240 210" fill="none" xmlns="http://www.w3.org/2000/svg">
<path id="Vector" d="M240 52.5V187.5C240 199.922 229.922 210 217.5 210H22.5C10.0781 210 0 199.922 0 187.5V52.5C0 40.0781 10.0781 30 22.5 30H63.75L69.5156 14.5781C72.7969 5.8125 81.1875 0 90.5625 0H149.391C158.766 0 167.156 5.8125 170.438 14.5781L176.25 30H217.5C229.922 30 240 40.0781 240 52.5ZM176.25 120C176.25 88.9688 151.031 63.75 120 63.75C88.9688 63.75 63.75 88.9688 63.75 120C63.75 151.031 88.9688 176.25 120 176.25C151.031 176.25 176.25 151.031 176.25 120ZM161.25 120C161.25 142.734 142.734 161.25 120 161.25C97.2656 161.25 78.75 142.734 78.75 120C78.75 97.2656 97.2656 78.75 120 78.75C142.734 78.75 161.25 97.2656 161.25 120Z" fill="var(--fill-0, #BDCABA)" fill-opacity="0.2"/>
</svg>
