<svg preserveAspectRatio="none" width="100%" height="100%" overflow="visible" style="display: block;" viewBox="0 0 24 24" fill="none" xmlns="http://www.w3.org/2000/svg">
<g id="Google Icon">
<path id="Vector" d="M20.6484 10.3687H12.1805V13.8492H17.018C16.8094 14.9742 16.1766 15.9258 15.2227 16.5633C14.4164 17.1023 13.3875 17.4211 12.1781 17.4211C9.83672 17.4211 7.85625 15.8391 7.14844 13.7133C6.97031 13.1742 6.86719 12.5977 6.86719 12.0047C6.86719 11.4117 6.97031 10.8352 7.14844 10.2961C7.85859 8.17266 9.83906 6.59063 12.1805 6.59063C13.5 6.59063 14.6836 7.04531 15.6164 7.93594L18.1945 5.35547C16.6359 3.90234 14.6039 3.01172 12.1805 3.01172C8.66719 3.01172 5.62734 5.02734 4.14844 7.96641C3.53906 9.18047 3.19219 10.5539 3.19219 12.007C3.19219 13.4602 3.53906 14.8312 4.14844 16.0453C5.62734 18.9844 8.66719 21 12.1805 21C14.6086 21 16.643 20.1937 18.1289 18.8203C19.8281 17.2547 20.8102 14.9484 20.8102 12.2086C20.8102 11.5711 20.7539 10.9594 20.6484 10.3687Z" fill="var(--fill-0, #FCF9F8)"/>
</g>
</svg>
