<svg preserveAspectRatio="none" width="100%" height="100%" overflow="visible" style="display: block;" viewBox="0 0 240 289.703" fill="none" xmlns="http://www.w3.org/2000/svg">
<path id="Vector" fill-rule="evenodd" clip-rule="evenodd" d="M35.1494 35.1468C57.6535 12.6427 88.1756 0 120.001 0C151.827 0 182.349 12.6427 204.853 35.1468C227.357 57.6509 240 88.1731 240 119.999C240 151.824 227.357 182.347 204.853 204.851L120.001 289.703L35.1494 204.851C24.0057 193.708 15.166 180.48 9.13506 165.921C3.10411 151.362 0 135.757 0 119.999C0 104.24 3.10411 88.6357 9.13506 74.0767C15.166 59.5178 24.0057 46.2893 35.1494 35.1468ZM120.001 154.282C129.094 154.282 137.814 150.67 144.243 144.241C150.673 137.811 154.285 129.091 154.285 119.999C154.285 110.906 150.673 102.186 144.243 95.7566C137.814 89.3271 129.094 85.7151 120.001 85.7151C110.909 85.7151 102.189 89.3271 95.7591 95.7566C89.3297 102.186 85.7177 110.906 85.7177 119.999C85.7177 129.091 89.3297 137.811 95.7591 144.241C102.189 150.67 110.909 154.282 120.001 154.282Z" fill="var(--fill-0, #BDCABA)" fill-opacity="0.2"/>
</svg>
