<svg preserveAspectRatio="none" width="100%" height="100%" overflow="visible" style="display: block;" viewBox="0 0 17.7522 17.5545" fill="none" xmlns="http://www.w3.org/2000/svg">
<g id="QuestionIcon">
<rect width="17.7522" height="17.5545" rx="8.77724" fill="var(--fill-0, #BDCABA)"/>
<path id="Vector" d="M8.88514 3.98963C7.39241 3.98963 6.42556 4.60123 5.66648 5.69196C5.52878 5.88982 5.57123 6.1611 5.76332 6.30675L6.57006 6.91846C6.76405 7.06555 7.04007 7.03115 7.19195 6.84089C7.6604 6.25401 8.00789 5.91611 8.73963 5.91611C9.31496 5.91611 10.0266 6.28639 10.0266 6.84429C10.0266 7.26605 9.67842 7.48265 9.11035 7.80113C8.44788 8.17255 7.57123 8.63477 7.57123 9.79107V9.97412C7.57123 10.222 7.77218 10.423 8.02007 10.423H9.37538C9.62327 10.423 9.82422 10.222 9.82422 9.97412V9.86615C9.82422 9.06461 12.1669 9.03123 12.1669 6.86219C12.1669 5.22872 10.4725 3.98963 8.88514 3.98963ZM8.69774 10.9739C7.98341 10.9739 7.40226 11.555 7.40226 12.2694C7.40226 12.9837 7.98341 13.5648 8.69774 13.5648C9.41206 13.5648 9.99321 12.9837 9.99321 12.2693C9.99321 11.555 9.41206 10.9739 8.69774 10.9739Z" fill="var(--fill-0, #1C1B1B)"/>
</g>
</svg>
