<svg preserveAspectRatio="none" width="100%" height="100%" overflow="visible" style="display: block;" viewBox="0 0 29.2748 38.5" fill="none" xmlns="http://www.w3.org/2000/svg">
<path id="Vector" d="M16.2748 15.0735C16.2748 15.75 16.8327 15.6255 17.6071 16.4581C18.1419 17.033 17.9141 18.1613 18.2748 18.4997C18.4456 18.66 19.016 18.5764 19.3972 18.7062C20.1814 18.973 20.9947 18.8402 21.1652 18.8402H21.9049C22.3712 18.8402 22.8932 18.9997 23.2748 18.9997C24.7748 18.9998 24.887 19.0895 25.2748 18.9998C25.8397 18.869 26.2748 18.4998 26.6052 17.8919C26.6282 17.8497 26.6477 17.7889 26.6128 17.7773C25.7748 17.4998 25.7748 17.0188 25.4328 16.6769C25.3268 16.5709 25.2477 16.5172 25.0164 16.2247C24.382 15.4224 24.0333 14.9519 23.8719 14.6522C23.7105 14.3525 23.9017 13.6575 23.7748 13.4997C23.722 13.4342 23.7748 13.4997 23.2522 13.8201C23.1195 13.9015 22.9309 13.9798 22.568 14.0443C21.9139 14.1608 21.2679 14.1272 21.0537 14.1486C20.8921 14.1648 20.5569 14.189 20.1645 14.1917C19.5126 14.1962 18.6502 14.2087 18.5603 14.1969C18.346 14.1688 18.2417 13.8215 18.112 13.7022C17.9822 13.5829 17.7863 13.5008 17.7609 13.5008C17.7355 13.5007 17.6071 13.6585 17.5098 14.0585C17.4559 14.2801 17.4894 14.3097 17.2748 14.4997C17.1178 14.6178 16.8933 14.7596 16.7121 14.8671C16.5681 14.9525 16.1574 15.0367 16.3249 15.0367M17.7748 19.75L17.9639 23.25M17.9639 23.25L18.1261 26.25M17.9639 23.25H14.2748M17.9639 23.25H21.1802M18.1261 26.25L18.2883 29.25M18.1261 26.25H14.7748M18.1261 26.25H21.0991M18.2883 29.25L18.4234 31.75M18.2883 29.25H14.7748M18.2883 29.25H21.018M18.4234 31.75L18.5856 34.75M18.4234 31.75H15.2748M18.4234 31.75H20.9504M18.5856 34.75L18.7748 38.25M18.5856 34.75H15.7748M18.5856 34.75H20.8694M21.2748 19.75L21.1802 23.25M21.1802 23.25L21.0991 26.25M21.1802 23.25H23.991M21.0991 26.25L21.018 29.25M21.0991 26.25H23.7477M21.018 29.25L20.9504 31.75M21.018 29.25H23.5045M20.9504 31.75L20.8694 34.75M20.9504 31.75H23.3018M20.8694 34.75L20.7748 38.25M20.8694 34.75H23.0585M24.2748 19.75L23.991 23.25M23.991 23.25L23.7477 26.25M23.991 23.25H28.2748M23.7477 26.25L23.5045 29.25M23.7477 26.25H27.7748M23.5045 29.25L23.3018 31.75M23.5045 29.25H27.2748M23.3018 31.75L23.0585 34.75M23.3018 31.75H26.7748M23.0585 34.75L22.7748 38.25M23.0585 34.75H25.7748M13.2748 19.75H29.2748M2.27476 37.75C1.77476 37.75 0.274759 18.25 0.274759 18.25H9.27476C9.27476 18.25 13.2748 37.75 12.7748 37.75C12.2748 37.75 6.77476 26.25 5.77476 26.25C4.77476 26.25 2.77476 37.75 2.27476 37.75ZM0.274759 17.25C0.441426 15.5833 1.47476 11.45 4.27476 8.25H13.7748C13.7748 8.25 27.7748 8.08333 23.2748 8.25C18.7748 8.41667 9.27476 10.75 9.27476 17.75L0.274759 17.25ZM11.7748 3.75C11.7748 5.683 10.2078 7.25 8.27476 7.25C6.34176 7.25 4.77476 5.683 4.77476 3.75C4.77476 1.817 6.34176 0.25 8.27476 0.25C10.2078 0.25 11.7748 1.817 11.7748 3.75ZM13.7748 20.25L16.2748 38.25H25.2748L28.7748 20.25H13.7748Z" stroke="var(--stroke-0, #FCF9F8)" stroke-width="0.5"/>
</svg>
