<svg preserveAspectRatio="none" width="100%" height="100%" overflow="visible" style="display: block;" viewBox="0 0 24 24" fill="none" xmlns="http://www.w3.org/2000/svg">
<g id="Stripe Logo">
<path id="Vector" d="M20.5167 10.5333C20.1458 10.5333 19.7375 10.8125 19.7375 11.4792H21.2667C21.2667 10.8125 20.8792 10.5333 20.5167 10.5333ZM15.625 10.6417C15.2833 10.6417 15.0708 10.7625 14.9167 10.9333L14.925 13.1333C15.0708 13.2875 15.2792 13.4125 15.625 13.4125C16.1708 13.4125 16.5375 12.8167 16.5375 12.0208C16.5375 11.2458 16.1625 10.6375 15.625 10.6417ZM22 2.66667H2C0.895833 2.66667 0 3.5625 0 4.66667V19.3333C0 20.4375 0.895833 21.3333 2 21.3333H22C23.1042 21.3333 24 20.4375 24 19.3333V4.66667C24 3.5625 23.1042 2.66667 22 2.66667ZM5.09167 13.0458C5.09167 14.1125 4.24583 14.7167 3.0125 14.725C2.50417 14.725 1.94583 14.625 1.39583 14.3875V12.975C1.89583 13.2417 2.525 13.4458 3.01667 13.4458C3.34583 13.4458 3.58333 13.3583 3.58333 13.0833C3.58333 12.375 1.33333 12.6417 1.33333 11.0042C1.33333 9.95417 2.13333 9.32917 3.33333 9.32917C3.825 9.32917 4.3125 9.40417 4.80417 9.6V10.9917C4.35417 10.75 3.78333 10.6125 3.33333 10.6125C3.02083 10.6125 2.82917 10.7042 2.82917 10.9333C2.82917 11.6 5.09167 11.2833 5.09167 13.0458ZM7.95833 10.6875H6.83333V12.7917C6.83333 13.6625 7.77083 13.3917 7.95833 13.3167V14.5208C7.7625 14.6292 7.40417 14.7167 6.92083 14.7167C6.04167 14.7167 5.38333 14.0708 5.38333 13.1958L5.39167 8.45L6.8375 8.14167V9.425H7.95833V10.6875ZM11.0417 10.7875C10.8542 10.725 10.2625 10.6375 9.9125 11.0958V14.6125H8.43333V9.425H9.7125L9.80417 9.8625C10.15 9.225 10.8417 9.35417 11.0375 9.425H11.0417V10.7875ZM12.8792 14.6125H11.3917V9.425H12.8792V14.6125ZM12.8792 8.65833L11.3917 8.975V7.77083L12.8792 7.45417V8.65833ZM15.9667 14.7208C15.45 14.7208 15.1333 14.5 14.9208 14.3458L14.9167 16.0208L13.4375 16.3333V9.425H14.7417L14.8167 9.79167C15.0208 9.60417 15.3958 9.32917 15.975 9.32917C17.0125 9.32917 17.9917 10.2667 17.9917 11.9875C17.9917 13.8667 17.025 14.7167 15.9667 14.7208ZM22.65 12.575H19.7542C19.8208 13.2667 20.3292 13.4708 20.9042 13.4708C21.4917 13.4708 21.9542 13.3458 22.3583 13.1417V14.3333C21.9542 14.5542 21.425 14.7167 20.7167 14.7167C19.275 14.7167 18.2667 13.8125 18.2667 12.0292C18.2667 10.5208 19.1208 9.325 20.5292 9.325C21.9333 9.325 22.6667 10.5208 22.6667 12.0375C22.6667 12.1833 22.6542 12.4917 22.65 12.575Z" fill="var(--fill-0, #3E4A3D)"/>
</g>
</svg>
