<svg width="29" height="29" viewBox="0 0 29 29" fill="none" xmlns="http://www.w3.org/2000/svg">
<path fill-rule="evenodd" clip-rule="evenodd" d="M6.75 24C6.75 23.1716 7.42157 22.5 8.25 22.5C9.07843 22.5 9.75 23.1716 9.75 24C9.75 24.8284 9.07843 25.5 8.25 25.5C7.42157 25.5 6.75 24.8284 6.75 24Z" fill="black"/>
<path fill-rule="evenodd" clip-rule="evenodd" d="M17.25 24C17.25 23.1716 17.9216 22.5 18.75 22.5C19.5784 22.5 20.25 23.1716 20.25 24C20.25 24.8284 19.5784 25.5 18.75 25.5C17.9216 25.5 17.25 24.8284 17.25 24Z" fill="black"/>
<path fill-rule="evenodd" clip-rule="evenodd" d="M1.5 8.25C1.5 7.83579 1.83579 7.5 2.25 7.5H5.25C5.61393 7.5 5.92534 7.76127 5.98859 8.11966L8.12924 20.25H19.5C19.9142 20.25 20.25 20.5858 20.25 21C20.25 21.4142 19.9142 21.75 19.5 21.75H7.5C7.13607 21.75 6.82466 21.4887 6.76141 21.1303L4.62076 9H2.25C1.83579 9 1.5 8.66421 1.5 8.25Z" fill="black"/>
<path fill-rule="evenodd" clip-rule="evenodd" d="M20.5425 9.75C20.7088 9.74996 20.8731 9.78681 21.0235 9.8579C21.1741 9.92907 21.307 10.0328 21.4126 10.1615C21.5182 10.2903 21.5939 10.4409 21.6342 10.6024C21.6746 10.764 21.6786 10.9324 21.6459 11.0957C21.6459 11.0957 21.6459 11.0956 21.6459 11.0957L20.2959 17.8457C20.2448 18.1008 20.1069 18.3304 19.9056 18.4953C19.7044 18.6602 19.4522 18.7502 19.192 18.75H7.5C7.08579 18.75 6.75 18.4142 6.75 18C6.75 17.5858 7.08579 17.25 7.5 17.25H18.8853L18.8251 17.5514C18.8421 17.4664 18.888 17.3898 18.9551 17.3349C19.0221 17.2801 19.106 17.2501 19.1925 17.25H18.8853L20.0853 11.25H20.5425C20.4872 11.25 20.4325 11.2377 20.3825 11.214C20.3323 11.1903 20.288 11.1557 20.2528 11.1128C20.2176 11.0699 20.1924 11.0197 20.1789 10.9659C20.1655 10.912 20.1642 10.8559 20.175 10.8015M20.5425 9.75H6C5.58579 9.75 5.25 10.0858 5.25 10.5C5.25 10.9142 5.58579 11.25 6 11.25H20.0853L20.175 10.8015M20.5425 9.75C20.5424 9.75 20.5426 9.75 20.5425 9.75V9.75Z" fill="black"/>
<path d="M13.5 7.5C13.5 3.35786 16.8579 0 21 0C25.1421 0 28.5 3.35786 28.5 7.5C28.5 11.6421 25.1421 15 21 15C16.8579 15 13.5 11.6421 13.5 7.5Z" fill="#009540"/>
<path d="M21.47 13H20.266V6.014C20.266 5.74333 20.266 5.51467 20.266 5.328C20.2753 5.14133 20.2847 4.96867 20.294 4.81C20.3033 4.642 20.3127 4.46933 20.322 4.292C20.1727 4.44133 20.0373 4.56733 19.916 4.67C19.7947 4.77267 19.6407 4.90333 19.454 5.062L18.39 5.93L17.746 5.104L20.448 3.004H21.47V13Z" fill="white"/>
</svg>
