<svg width="88" height="116" viewBox="0 0 88 116" fill="none" xmlns="http://www.w3.org/2000/svg">
<path d="M48.8242 45.2204C48.8242 47.25 50.498 46.8766 52.8213 49.3742C54.4258 51.0989 53.7424 54.484 54.8242 55.499C55.3368 55.9799 57.0479 55.7293 58.1916 56.1185C60.5441 56.9191 62.9841 56.5207 63.4956 56.5207H65.7145C67.1136 56.5207 68.6796 56.9991 69.8242 56.9991C74.3242 56.9993 74.6608 57.2686 75.8242 56.9993C77.5191 56.6069 78.8242 55.4993 79.8157 53.6757C79.8845 53.5491 79.9429 53.3667 79.8382 53.332C77.3242 52.4993 77.3242 51.0565 76.2985 50.0308C75.9805 49.7127 75.743 49.5516 75.0491 48.674C73.146 46.2673 72.0999 44.8556 71.6156 43.9566C71.1313 43.0576 71.7052 40.9726 71.3242 40.4992C71.1659 40.3025 71.3242 40.4992 69.7567 41.4604C69.3585 41.7046 68.7927 41.9393 67.7039 42.133C65.7415 42.4823 63.8036 42.3816 63.1609 42.4459C62.6763 42.4943 61.6706 42.567 60.4935 42.5751C58.5378 42.5886 55.9506 42.6261 55.6808 42.5907C55.0379 42.5065 54.7252 41.4644 54.3358 41.1066C53.9465 40.7488 53.3589 40.5024 53.2827 40.5023C53.2065 40.5022 52.8213 40.9756 52.5294 42.1756C52.3677 42.8404 52.4681 42.929 51.8242 43.4991C51.3534 43.8535 50.6799 44.2789 50.1364 44.6013C49.7042 44.8576 48.4721 45.11 48.9745 45.11M53.3242 59.25L53.8918 69.75M53.8918 69.75L54.3783 78.75M53.8918 69.75H42.8242M53.8918 69.75H63.5404M54.3783 78.75L54.8648 87.75M54.3783 78.75H44.3242M54.3783 78.75H63.2972M54.8648 87.75L55.2702 95.25M54.8648 87.75H44.3242M54.8648 87.75H63.054M55.2702 95.25L55.7566 104.25M55.2702 95.25H45.8242M55.2702 95.25H62.8512M55.7566 104.25L56.3242 114.75M55.7566 104.25H47.3242M55.7566 104.25H62.608M63.8242 59.25L63.5404 69.75M63.5404 69.75L63.2972 78.75M63.5404 69.75H71.9729M63.2972 78.75L63.054 87.75M63.2972 78.75H71.2431M63.054 87.75L62.8512 95.25M63.054 87.75H70.5134M62.8512 95.25L62.608 104.25M62.8512 95.25H69.9053M62.608 104.25L62.3242 114.75M62.608 104.25H69.1756M72.8242 59.25L71.9729 69.75M71.9729 69.75L71.2431 78.75M71.9729 69.75H84.8242M71.2431 78.75L70.5134 87.75M71.2431 78.75H83.3242M70.5134 87.75L69.9053 95.25M70.5134 87.75H81.8242M69.9053 95.25L69.1756 104.25M69.9053 95.25H80.3242M69.1756 104.25L68.3242 114.75M69.1756 104.25H77.3242M39.8242 59.25H87.8242M6.82422 113.25C5.32422 113.25 0.824219 54.75 0.824219 54.75H27.8242C27.8242 54.75 39.8242 113.25 38.3242 113.25C36.8242 113.25 20.3242 78.75 17.3242 78.75C14.3242 78.75 8.32422 113.25 6.82422 113.25ZM0.824219 51.75C1.32422 46.75 4.42422 34.35 12.8242 24.75H41.3242C41.3242 24.75 83.3242 24.25 69.8242 24.75C56.3242 25.25 27.8242 32.25 27.8242 53.25L0.824219 51.75ZM35.3242 11.25C35.3242 17.049 30.6232 21.75 24.8242 21.75C19.0252 21.75 14.3242 17.049 14.3242 11.25C14.3242 5.45101 19.0252 0.75 24.8242 0.75C30.6232 0.75 35.3242 5.45101 35.3242 11.25ZM41.3242 60.75L48.8242 114.75H75.8242L86.3242 60.75H41.3242Z" stroke="#FCF9F8" stroke-width="1.5"/>
</svg>
