<svg width="52" height="51" viewBox="0 0 52 51" fill="none" xmlns="http://www.w3.org/2000/svg">
<path d="M9.45281 25.976C8.52433 23.0486 7.58799 20.126 6.65951 17.1985C6.71168 17.9236 6.75896 18.6407 6.80475 19.3643L4.86861 13.1008C5.36347 14.1178 5.86321 15.1426 6.35657 16.166C6.14102 16.5123 6.26157 17.0314 6.62207 17.2436C6.61003 16.8641 6.52338 16.4874 6.37679 16.1371L6.35657 16.166C5.77987 14.0337 4.71447 12.0358 3.27755 10.3612C3.103 10.1589 2.9157 9.9537 2.65732 9.87977C1.9283 9.66204 1.40374 10.5816 1.23699 11.3226C0.599438 14.1323 0.676537 17.0488 0.708609 19.9278C0.800695 27.5484 0.575258 35.1754 0.0318967 42.7818C-0.00680311 43.3779 -0.0499762 43.9932 0.163202 44.5475C0.382754 45.1033 0.939227 45.5698 1.52545 45.4784C1.08122 45.8249 0.626138 46.1891 0.374771 46.6885C0.121911 47.1942 0.124163 47.8739 0.547451 48.2487C0.964365 48.622 1.59412 48.5744 2.14887 48.5025C9.50685 47.5754 16.936 47.2634 24.3411 47.5712C21.9909 45.8913 19.3178 44.7007 16.5125 44.0171C16.5238 44.0264 16.5287 44.0343 16.5399 44.0436L16.5369 44.0564C16.3698 44.1383 16.1482 44.0797 16.0412 43.9336C16.0569 43.9239 16.0712 43.9205 16.0854 43.9171C11.3959 42.8664 6.37509 43.231 1.94865 45.1067C2.8842 42.2592 3.10876 39.2318 3.29099 36.2415C3.70545 29.3582 3.93544 22.4585 3.9765 15.5617C4.99371 18.0527 5.81534 20.6323 6.42483 23.2565C6.69154 24.415 6.93166 25.601 7.50003 26.6487C8.0684 27.6963 9.04111 28.5965 10.2233 28.7454C12.1565 28.9895 13.7107 27.2619 14.8689 25.7039C18.1023 21.3701 21.2795 16.9895 24.3988 12.5685C23.9012 12.4251 23.3239 12.7943 23.2457 13.3006C23.0992 12.3181 23.8459 11.2824 24.828 11.1088C24.5401 11.5054 24.2508 11.9084 23.9629 12.3051C25.4244 11.4905 26.5941 10.1706 27.2267 8.61725C26.7905 8.75723 26.4194 9.10747 26.2526 9.53246L25.6494 8.80618C26.2121 8.84376 26.7868 8.51428 27.0348 8.00072C27.2734 8.13054 27.4532 8.36766 27.5034 8.64167C28.3688 7.4724 29.411 6.43864 30.5939 5.57906C28.7417 11.0499 27.0954 16.5891 25.6579 22.1839C25.2798 23.6555 24.9182 25.1714 25.1519 26.6719C25.3857 28.1725 26.3624 29.6587 27.8383 30.0176C29.3398 30.3826 30.8436 29.5309 32.1575 28.7154C36.7062 25.8865 41.2564 23.0513 45.7987 20.2209C41.4557 25.6466 37.1802 31.1285 32.9723 36.6666C29.6972 40.9772 26.3872 45.4947 25.1657 50.7702C25.5068 50.4332 25.8479 50.0961 26.1891 49.759C26.1884 49.8194 26.2083 49.8778 26.2691 49.9055C26.4034 49.9638 26.5577 49.8789 26.6787 49.7929C30.1594 47.3327 32.9156 44.0036 35.628 40.7179C40.8454 34.4007 46.0736 28.0659 50.6228 21.2426C51.5872 19.7939 51.321 17.7141 50.166 16.4148C42.459 18.3161 36.0732 23.7074 28.6017 26.3834C30.4935 18.79 32.3854 11.1967 34.2708 3.60191C34.4265 2.96586 34.3388 1.99041 33.6786 2.02417C32.9915 2.05834 33.2961 0.872096 32.9112 0.304533C32.8057 0.152061 32.6661 0.0588685 32.5068 0.021562C32.0223 -0.0918508 31.3685 0.259465 30.9423 0.643885C23.5667 7.27629 18.5417 16.046 12.4417 23.8647C11.6656 24.8532 10.7176 25.9157 9.46217 25.9648L9.45281 25.976ZM19.5812 46.5915C19.6348 46.5637 19.7 46.5722 19.7652 46.5808C19.8894 46.5964 20.0232 46.6277 20.1024 46.7202C20.1816 46.8127 20.1511 47.0006 20.0274 47.012L20.0172 46.9693C19.9205 46.9802 19.816 46.9961 19.7203 46.9737C19.6821 46.9648 19.6502 46.9573 19.6164 46.9292C19.5058 46.8563 19.4711 46.6598 19.5861 46.5993L19.5812 46.5915ZM3.06486 14.2858C3.06405 14.2318 3.06473 14.1714 3.0943 14.1313C3.15941 14.0255 3.3394 14.0609 3.40775 14.171C3.4776 14.2748 3.46538 14.4132 3.45614 14.5388L3.30413 16.0499C3.29747 16.1358 3.29421 16.2359 3.35388 16.2969C3.46496 16.3969 3.74573 16.3752 3.6859 16.5159C3.48829 16.4696 3.27086 16.4792 3.08314 16.5631C3.0718 15.8072 3.06684 15.0529 3.0555 14.297L3.06486 14.2858ZM1.81454 42.8359C1.78618 42.9571 1.79757 43.0808 1.80746 43.2109C1.83686 43.6885 1.71706 44.1715 1.46746 44.5771C1.53125 43.9599 1.59504 43.3427 1.65395 42.7176C1.68585 42.409 1.78327 42.0216 2.09062 41.9725C2.28659 42.2269 1.90042 42.5265 1.81454 42.8359ZM2.44022 39.1291C2.41723 40.0315 2.2814 40.9278 2.03082 41.7971C1.75319 41.6044 1.83107 41.1855 1.91505 40.8555C2.086 40.1826 2.15008 39.4781 2.11106 38.783C2.17658 38.7042 2.3232 38.7385 2.38328 38.8266C2.44336 38.9146 2.44348 39.029 2.44022 39.1291ZM3.21098 32.3896L3.21179 32.4436C3.16079 32.4317 3.11128 32.4134 3.06178 32.3951C3.06056 32.3141 3.20976 32.3087 3.21735 32.3911L3.21098 32.3896ZM3.43235 28.5142L3.42041 28.5652C3.38216 28.5562 3.33116 28.5443 3.27528 28.5245C3.27406 28.4435 3.42326 28.4381 3.43085 28.5205L3.43235 28.5142ZM2.88798 27.4789C2.9194 28.0915 2.95232 28.6977 2.99011 29.3118C2.99932 29.5022 3.00257 29.7182 2.87601 29.8567C2.76668 29.979 2.77738 30.1631 2.79256 30.328C2.84746 30.8116 2.90086 31.3016 2.95576 31.7852C2.66559 32.4503 2.68072 33.2473 3.00647 33.8952C2.62897 34.2439 2.65212 34.8344 2.67257 35.3503C2.70844 36.2598 2.66334 37.1706 2.52751 38.0668C2.5115 38.1639 2.42129 38.2908 2.3448 38.2728C2.33205 38.2699 2.31292 38.2654 2.30465 38.2433C2.28363 38.2182 2.28621 38.1784 2.2873 38.1451C2.32807 37.0517 2.37033 35.952 2.41109 34.8587C2.44466 34.026 2.47822 33.1932 2.50392 32.3653L2.68071 27.8473C2.68953 27.6947 2.73431 27.5034 2.87862 27.4901L2.88798 27.4789ZM2.74098 27.1015C2.74098 27.1015 2.70911 27.094 2.69297 27.0768C2.65282 27.0472 2.63777 26.9966 2.6276 26.9539C2.58543 26.7894 2.53838 26.6169 2.57081 26.4497C2.60961 26.2839 2.74214 26.1199 2.91046 26.119C2.92157 26.3301 2.93905 26.5426 2.95015 26.7537C2.96045 26.9108 2.8621 27.1298 2.74098 27.1015ZM3.00449 23.7066C2.99089 24.2818 2.97579 24.8633 3.07802 25.4319C3.09727 25.5508 3.11991 25.6838 3.06755 25.7926C3.02902 25.871 2.92336 25.9203 2.84687 25.9024C2.81499 25.8949 2.7861 25.8747 2.77145 25.8511C2.74704 25.8117 2.74623 25.7578 2.74393 25.7101C2.74724 24.9779 2.75841 24.2408 2.76172 23.5086C2.77411 22.8524 2.78013 22.1948 2.79252 21.5387C2.79851 21.1971 2.82132 20.8124 3.088 20.5924L3.00938 23.7145L3.00449 23.7066ZM3.20347 19.9268C3.10052 20.0506 3.00543 20.1696 2.90247 20.2934C2.89761 19.9695 2.88787 19.6377 2.8845 19.3074C2.8699 18.6516 2.90291 17.9936 2.98841 17.3411C2.99954 17.2362 3.04363 17.1053 3.1516 17.1036C3.20558 17.1028 3.24423 17.1388 3.28288 17.1747C3.44278 17.3534 3.44235 17.6424 3.29748 17.8304C3.13688 18.0282 3.13943 18.3045 3.15434 18.5568C3.17546 19.0123 3.19022 19.4664 3.21134 19.9219L3.20347 19.9268ZM7.52971 21.3228C7.5285 21.2418 7.6777 21.2364 7.68529 21.3189C7.68081 21.338 7.67782 21.3508 7.67972 21.3714C7.62872 21.3594 7.57922 21.3411 7.52971 21.3228ZM8.20988 23.7886C8.13652 23.5563 8.06465 23.3175 7.99129 23.0852C8.0073 22.988 8.12854 23.1307 8.10128 23.2185C8.33714 23.2737 8.41104 23.6474 8.20988 23.7886ZM35.4076 39.6778C35.343 39.6089 35.335 39.4994 35.3878 39.4176C35.3407 39.2452 35.6551 39.1372 35.7164 39.3062C35.6135 39.4301 35.5041 39.5524 35.4012 39.6763L35.4076 39.6778ZM36.0181 38.8792C36.0181 38.8792 35.9758 38.9164 35.9439 38.9089C35.8993 38.8985 35.8509 38.8468 35.8564 38.7943C35.8631 38.7084 35.9432 38.6532 36.0155 38.6029C36.0216 38.6917 36.0341 38.7821 36.0466 38.8724L36.0245 38.8807L36.0181 38.8792ZM37.6982 36.4414C37.6281 36.425 37.6595 36.2911 37.7311 36.3011C37.8012 36.3175 37.7699 36.4514 37.6982 36.4414ZM39.6341 34.0028C39.5421 33.9073 39.5854 33.7225 39.7087 33.6841L39.7289 33.6552C39.7979 33.705 39.8719 33.7626 39.9409 33.8124C39.8386 33.8759 39.7363 33.9394 39.6404 34.0043L39.6341 34.0028ZM40.7466 32.8981C40.6547 32.8026 40.698 32.6178 40.8213 32.5794C40.9132 32.6749 40.8699 32.8598 40.7466 32.8981ZM50.6981 18.8527C50.7354 19.0094 50.7682 19.1852 50.6877 19.3278C50.632 19.4223 50.5072 19.4671 50.4052 19.4432C50.3542 19.4313 50.3141 19.4017 50.2926 19.3496L50.3275 19.3443C50.313 19.119 50.4781 18.9021 50.6996 18.8463L50.6981 18.8527ZM50.3148 19.7717C50.4194 20.0719 50.247 20.4351 49.9453 20.546C49.8408 20.2458 50.0147 19.8763 50.3148 19.7717ZM49.2293 21.1921C49.3714 20.9295 49.6481 20.6378 49.9216 20.7624C49.9603 20.9127 49.9991 21.063 50.0522 21.2099C49.8429 21.1273 49.5861 21.1613 49.4105 21.3085C49.4184 21.734 49.1516 22.1557 48.757 22.3189C48.8814 21.9311 49.0377 21.5507 49.2308 21.1857L49.2293 21.1921ZM44.1341 28.5668C44.0924 28.4293 44.1012 28.2767 44.1644 28.1502L44.1951 28.0767C44.3557 28.195 44.314 28.4879 44.1278 28.5653L44.1341 28.5668ZM46.2677 19.5103C46.3513 19.5836 46.3346 19.7411 46.2402 19.7997C46.1458 19.8583 46.0037 19.8049 45.9687 19.6958C46.0695 19.6387 46.1654 19.5737 46.2677 19.5103ZM44.422 20.4433C44.4672 20.5951 44.2975 20.7168 44.1525 20.7905C43.9254 20.8987 43.6998 21.0006 43.4728 21.1088C43.3892 21.1498 43.2674 21.1818 43.1782 21.1609C43.1272 21.149 43.087 21.1194 43.072 21.0688C43.4904 20.8036 43.9431 20.5935 44.4156 20.4419L44.422 20.4433ZM41.9073 21.7645L41.8811 21.8189C41.9116 21.9471 41.7523 22.0241 41.6376 21.9973C41.593 21.9868 41.5528 21.9573 41.5378 21.9067C41.6186 21.7911 41.767 21.7317 41.9009 21.763L41.9073 21.7645ZM40.4237 23.0177C40.1621 23.0439 39.911 23.1398 39.7054 23.3002L39.6667 23.2642C39.6627 23.3103 39.6571 23.3628 39.6177 23.3872C39.6099 23.3921 39.5956 23.3955 39.5829 23.3925C39.551 23.3851 39.5251 23.3521 39.5438 23.3296C39.643 23.1645 39.75 22.9945 39.9186 22.9062C40.0872 22.8179 40.3418 22.8506 40.4222 23.0241L40.4237 23.0177ZM40.0503 21.3096C40.1189 21.3324 40.0891 21.4599 40.0175 21.4499C39.9552 21.4286 39.9851 21.3011 40.0503 21.3096ZM38.8345 23.5737C38.9181 23.6471 38.9029 23.7982 38.807 23.8632C38.7126 23.9218 38.5705 23.8684 38.5355 23.7593C38.6363 23.7022 38.7322 23.6372 38.833 23.5801L38.8345 23.5737ZM38.3684 24.1573C38.4625 24.186 38.3296 24.3231 38.2384 24.2815L38.2486 24.3243C38.1155 24.3469 38.0576 24.5082 37.9719 24.6159C37.9236 24.6786 37.8239 24.7023 37.7538 24.6859C37.7028 24.674 37.6641 24.638 37.6775 24.5806C37.9057 24.439 38.1402 24.2989 38.3732 24.1652L38.3684 24.1573ZM36.1997 25.5797C36.3099 25.5113 36.4383 25.7095 36.3492 25.8029C36.3054 25.8465 36.242 25.8585 36.1783 25.8436C36.1145 25.8287 36.0504 25.7868 36.0241 25.7268C36.0949 25.6829 36.1578 25.6438 36.2286 25.5999L36.1997 25.5797ZM27.7949 26.3828C27.6688 26.5483 27.5603 26.7246 27.4502 26.9073C27.4837 26.2763 27.6299 25.6515 27.8864 25.0727C27.8771 25.4 27.8741 25.7288 27.8647 26.0562C27.8648 26.1705 27.8571 26.2897 27.7886 26.3813L27.7949 26.3828ZM28.3985 23.0003C28.4402 23.1378 28.4314 23.2904 28.3682 23.4168L28.3375 23.4904C28.177 23.3721 28.2186 23.0792 28.4049 23.0018L28.3985 23.0003ZM28.7554 22.3374L28.4667 22.68C28.4022 22.6111 28.3957 22.4952 28.4469 22.4198L28.4406 22.4183C28.403 22.349 28.364 22.2861 28.3313 22.2246C28.411 22.1424 28.4972 22.0617 28.6081 22.0473C28.7191 22.033 28.8474 22.1168 28.8284 22.2267C28.8179 22.2713 28.7883 22.3115 28.7603 22.3452L28.7554 22.3374ZM29.4028 19.6578C29.4028 19.6578 29.371 19.6503 29.3548 19.6331C29.3225 19.5986 29.3139 19.5495 29.3052 19.5004C29.2575 19.0723 29.2636 18.529 29.6548 18.3516C29.6361 18.6902 29.6237 19.0303 29.6049 19.3688C29.6006 19.5023 29.4984 19.6801 29.3965 19.6563L29.4028 19.6578ZM29.7129 17.0404C29.8719 17.0507 30.0301 17.0071 30.1653 16.9177C30.2195 17.1456 30.1598 17.4006 30.0101 17.5807L29.9565 17.6085C29.8098 17.4599 29.7241 17.2515 29.7193 17.0419L29.7129 17.0404ZM28.331 25.3852C28.2513 25.1514 28.3219 24.8787 28.4971 24.7046C28.5096 24.7949 28.5284 24.8867 28.5409 24.9771L28.506 24.9824C28.5115 25.1316 28.4486 25.285 28.3325 25.3789L28.331 25.3852ZM29.8639 19.5841C29.7719 19.4886 29.8152 19.3037 29.9385 19.2653C30.0304 19.3608 29.9872 19.5457 29.8639 19.5841ZM33.4755 3.09294C33.4582 2.99473 33.5296 2.89042 33.6215 2.87157C33.6672 3.16471 33.5877 3.47561 33.4068 3.70227C33.353 3.50138 33.3768 3.28502 33.474 3.09932L33.4755 3.09294ZM32.7126 6.1221C32.7758 5.99568 32.8582 5.87373 32.9518 5.76115C32.9325 6.27444 32.8131 6.78448 32.6074 7.26087C32.4638 6.89774 32.5304 6.4695 32.7126 6.1221ZM32.2057 8.43111C32.1893 8.50124 32.0554 8.4699 32.0655 8.39828C32.0804 8.33453 32.2158 8.35949 32.2057 8.43111ZM32.9878 4.7743C33.0797 4.8698 33.0365 5.05469 32.9132 5.09308C32.8212 4.99758 32.8645 4.81269 32.9878 4.7743ZM31.9099 9.03434C32.0481 8.93219 32.2399 9.11831 32.2265 9.29004C32.2196 9.46326 32.1043 9.61112 32.0719 9.77837C32.0331 9.94413 32.1477 10.1727 32.3171 10.1384C32.1815 10.2008 32.0394 10.2617 31.9684 10.393C31.8988 10.5179 31.9447 10.7237 32.0865 10.7502C32.2346 10.7781 32.1254 11.0148 31.9781 11.0409C31.8308 11.0669 31.637 11.0619 31.585 11.1977L31.7007 11.3929C31.5984 11.4563 31.504 11.5149 31.4096 11.5735C31.1563 10.9897 32.0088 10.3352 31.7412 9.75476C31.6296 9.51344 31.7091 9.20253 31.9084 9.04071L31.9099 9.03434ZM30.9872 12.6313C31.1008 12.3755 31.2145 12.1197 31.3297 11.8574C31.5442 12.291 31.4762 12.84 31.1674 13.2115C31.0299 13.3676 31.0621 13.6038 31.0541 13.8104C31.046 14.017 30.9466 14.2694 30.7404 14.2884C30.7231 13.8741 30.7009 13.452 30.8219 13.0499C30.869 12.9063 30.9288 12.7656 30.9872 12.6313ZM30.3198 15.2524L30.5435 15.5604C30.4742 15.598 30.4098 15.6434 30.3469 15.6825C30.597 16.0503 30.3026 16.6472 29.855 16.6635C29.7964 16.569 29.7363 16.481 29.6777 16.3866C30.0084 16.0941 30.2389 15.6841 30.3134 15.251L30.3198 15.2524ZM28.9403 19.7378C29.0726 19.6611 29.2425 19.7682 29.297 19.9087C29.3515 20.0492 29.3206 20.2101 29.2863 20.3568C29.1818 20.803 29.0714 21.2748 28.7313 21.5785C28.5682 21.1839 28.9238 20.7561 28.8746 20.3344C28.8508 20.1203 28.753 19.8486 28.9339 19.7363L28.9403 19.7378ZM31.0977 3.48451C31.126 3.67944 31.0925 3.88007 31.0158 4.06387L30.9997 4.04664C30.8889 4.17537 30.7795 4.29772 30.6624 4.42496C30.6061 4.06209 30.7845 3.67347 31.0977 3.48451ZM28.9112 6.04593C29.0267 6.12678 29.0925 6.27667 29.0724 6.41991L28.9896 6.40052C28.9129 6.58432 28.7628 6.73746 28.5829 6.81641C28.5194 6.71413 28.456 6.61184 28.3974 6.51743C28.62 6.42831 28.8016 6.25564 28.9176 6.04742L28.9112 6.04593ZM27.1195 7.61033C27.2224 7.48648 27.443 7.57846 27.5718 7.48758C27.7086 7.39181 27.669 7.18752 27.6538 7.02257C27.6386 6.85762 27.7718 6.63326 27.9144 6.7137C28.0934 7.21289 27.6611 7.82453 27.137 7.82289C27.0743 7.7746 27.0712 7.673 27.118 7.6167L27.1195 7.61033ZM25.5102 9.68816C25.6122 9.71204 25.4845 9.8839 25.3978 9.82327L25.3821 9.83304C25.4069 9.89937 25.3185 9.93246 25.2611 9.91903C25.2356 9.91306 25.2131 9.89435 25.2142 9.86098C25.3281 9.83385 25.4368 9.77186 25.5053 9.68029L25.5102 9.68816ZM25.1942 10.7507C25.1954 10.8317 25.1265 10.8962 25.0542 10.9466C24.9896 10.8777 24.9831 10.7618 25.0344 10.6864L25.028 10.6849C25.0602 10.605 25.1945 10.6633 25.1942 10.7507ZM24.302 9.07582C24.3642 9.09712 24.3344 9.22463 24.2691 9.21608C24.199 9.19967 24.2304 9.06578 24.302 9.07582ZM22.8192 13.3419C22.9612 13.281 23.0188 13.5232 22.983 13.6762C22.9531 13.8037 22.9233 13.9312 22.8934 14.0587C22.8636 14.1862 22.7944 14.3382 22.6673 14.3353C22.6546 14.3323 22.6482 14.3308 22.6355 14.3278C22.559 14.3099 22.5038 14.2298 22.4756 14.1492C22.3661 13.8411 22.5288 13.4623 22.8334 13.3386L22.8192 13.3419ZM22.0589 14.3206C22.0713 14.411 22.0902 14.5028 22.1027 14.5932L22.0678 14.5984C22.0732 14.7477 22.0104 14.9011 21.8943 14.9949C21.8146 14.7611 21.8866 14.4821 22.0604 14.3143L22.0589 14.3206ZM21.1254 15.2924C21.1958 15.2215 21.2917 15.1565 21.3858 15.1853C21.5962 15.2345 21.5043 15.5694 21.3219 15.6881C21.1409 15.8004 20.888 15.8757 20.8451 16.0876C20.8212 16.1896 20.8674 16.308 20.9541 16.3686C20.8448 16.491 20.7403 16.6212 20.631 16.7436C20.5453 16.2192 20.7385 15.6524 21.1254 15.2924ZM20.1242 17.4723C20.1603 17.548 20.1934 17.6364 20.1627 17.7099C20.1395 17.7516 20.0826 17.7651 20.0379 17.7547C20.0061 17.7472 19.9772 17.727 19.9861 17.6888L19.9989 17.6917C19.9864 17.6014 20.0436 17.5005 20.1321 17.4674L20.1242 17.4723ZM18.9681 18.5332C19.0613 18.3936 19.1594 18.2619 19.2653 18.1253C19.3432 18.0224 19.4274 17.9211 19.5458 17.8749C19.6643 17.8286 19.8285 17.8738 19.8669 17.9971C19.6516 18.256 19.4363 18.515 19.2289 18.7691C19.1649 18.8415 19.0773 18.9286 18.9817 18.9062C18.9753 18.9047 18.9625 18.9017 18.9562 18.9002C18.8298 18.837 18.8937 18.6502 18.9745 18.5346L18.9681 18.5332ZM18.8546 19.2194L18.8673 19.2224C18.9492 19.3895 18.8906 19.6112 18.7445 19.7182C18.6626 19.5511 18.7133 19.3343 18.8609 19.2209L18.8546 19.2194ZM18.4209 19.6357C18.5046 19.7091 18.4879 19.8666 18.3935 19.9252C18.2991 19.9838 18.1569 19.9303 18.1219 19.8213C18.2227 19.7642 18.3186 19.6992 18.4209 19.6357ZM17.9411 20.364C18.0427 20.3609 18.1253 20.4676 18.1029 20.5633C18.091 20.6143 18.0599 20.6608 18.024 20.6994C17.9319 20.8057 17.8446 20.9197 17.7525 21.0259C17.6901 20.8903 17.702 20.7249 17.773 20.5936L17.7903 20.5775C17.765 20.4842 17.838 20.3735 17.9396 20.3704L17.9411 20.364ZM16.8769 21.8364C16.9689 21.9319 16.9256 22.1168 16.8023 22.1552C16.7104 22.0597 16.7536 21.8748 16.8769 21.8364ZM16.3735 22.5794C16.4659 22.7019 16.3503 22.9371 16.2033 22.8758L16.1876 22.8855C16.2245 23.0152 16.1219 23.166 15.9903 23.1823C16.0456 22.9464 16.1758 22.7348 16.3657 22.5843L16.3735 22.5794ZM13.4965 26.425C13.4463 26.467 13.3829 26.4791 13.3192 26.4642C13.2554 26.4492 13.1977 26.4088 13.1792 26.344C13.2747 26.252 13.4596 26.2953 13.4979 26.4186L13.4965 26.425ZM11.6807 27.977C11.7509 27.9934 11.7195 28.1273 11.6479 28.1173C11.5856 28.096 11.6155 27.9685 11.6807 27.977Z" fill="#FCAB29"/>
</svg>
