<svg width="15" height="17" viewBox="0 0 15 17" fill="none" xmlns="http://www.w3.org/2000/svg">
<path d="M9.99999 1.66666H1.66666V15H13.3333V4.99999H9.99999V1.66666ZM0 0.826666C0 0.37 0.3725 0 0.832499 0H10.8333L15 4.16666V15.8275C15.0007 15.9369 14.98 16.0454 14.9388 16.1468C14.8976 16.2482 14.8369 16.3405 14.76 16.4184C14.6832 16.4964 14.5918 16.5584 14.4909 16.601C14.3901 16.6436 14.2819 16.6659 14.1725 16.6666H0.827499C0.608648 16.6651 0.399181 16.5776 0.244348 16.4229C0.0895148 16.2682 0.00174554 16.0588 0 15.84V0.826666ZM9.99999 7.49999H10.8333V11.6667H4.16666V7.49999H4.99999V6.66666C4.99999 6.00362 5.26338 5.36773 5.73222 4.89889C6.20107 4.43005 6.83695 4.16666 7.49999 4.16666C8.16303 4.16666 8.79891 4.43005 9.26775 4.89889C9.7366 5.36773 9.99999 6.00362 9.99999 6.66666V7.49999ZM8.33332 7.49999V6.66666C8.33332 6.44564 8.24552 6.23368 8.08924 6.0774C7.93296 5.92112 7.721 5.83333 7.49999 5.83333C7.27898 5.83333 7.06702 5.92112 6.91074 6.0774C6.75446 6.23368 6.66666 6.44564 6.66666 6.66666V7.49999H8.33332Z" fill="#3E4A3D"/>
</svg>
