<svg width="38" height="38" viewBox="0 0 38 38" fill="none" xmlns="http://www.w3.org/2000/svg">
<path d="M6.33329 33.2501H21.565C22.4787 33.2506 23.3816 33.0531 24.2117 32.6713C25.0418 32.2894 25.7793 31.7323 26.3735 31.0382L34.4517 21.6142C34.6209 21.4172 34.739 21.1816 34.7956 20.9282C34.8523 20.6748 34.8458 20.4114 34.7766 20.1611C34.7075 19.9108 34.5779 19.6814 34.3992 19.493C34.2205 19.3046 33.9982 19.1631 33.7519 19.0808L30.6359 18.0422C29.8828 17.7974 29.0809 17.742 28.3013 17.8809C27.5217 18.0198 26.7883 18.3487 26.1661 18.8386L21.1232 22.8713L20.1463 20.9159C19.6229 19.8619 18.8149 18.9754 17.8136 18.357C16.8124 17.7386 15.658 17.4129 14.4811 17.4168H6.33329C4.58688 17.4168 3.16663 18.837 3.16663 20.5834V30.0834C3.16663 31.8298 4.58688 33.2501 6.33329 33.2501ZM6.33329 20.5834H14.4811C15.6892 20.5834 16.7738 21.2532 17.3137 22.333L18.0215 23.7501H11.0833V26.9168H20.6055C20.8491 26.9135 21.0886 26.8539 21.3053 26.7426L21.31 26.741L21.3164 26.7378H21.3211L21.3243 26.7363H21.3306L21.3322 26.7347C21.3465 26.7394 21.337 26.7331 21.337 26.7331C21.3528 26.7331 21.3401 26.7315 21.3401 26.7315H21.3417L21.3449 26.7299L21.3496 26.7283L21.3528 26.7268L21.356 26.7252L21.3607 26.7236L21.3639 26.722C21.3686 26.722 21.3655 26.7204 21.367 26.7204L21.3718 26.7173L21.375 26.7157L21.3781 26.7141L21.3829 26.7125L21.386 26.7109H21.3876L21.3908 26.7093L21.3955 26.7078L21.3987 26.7062C21.413 26.7046 21.4035 26.7046 21.4035 26.7046L21.4066 26.703C21.4676 26.6662 21.5259 26.6249 21.5808 26.5795L28.1453 21.3276C28.5601 20.9983 29.1317 20.8953 29.6336 21.0632L30.5155 21.3577L23.9716 28.9941C23.6706 29.3359 23.3004 29.6098 22.8854 29.7976C22.4705 29.9854 22.0204 30.0828 21.565 30.0834H6.33329V20.5834ZM25.3333 3.16676H25.3064C25.0483 3.16993 23.7135 3.22851 22.1666 4.28301C20.6609 3.25701 19.3578 3.17468 19.0506 3.16835L19.0031 3.16676H18.9968C17.7285 3.16676 16.5347 3.66235 15.6417 4.55693C14.7455 5.45468 14.25 6.64693 14.25 7.91676C14.25 9.1866 14.7455 10.3788 15.6132 11.2481L21.0187 16.9259C21.1674 17.0803 21.3458 17.2031 21.5431 17.2869C21.7404 17.3707 21.9526 17.4139 22.167 17.4137C22.3813 17.4136 22.5935 17.3701 22.7907 17.2861C22.9878 17.202 23.166 17.0789 23.3145 16.9243L28.6915 11.275C29.5893 10.3788 30.0833 9.1866 30.0833 7.91676C30.0833 6.64693 29.5877 5.45468 28.6931 4.55851C28.2535 4.11604 27.7304 3.7652 27.1542 3.5263C26.5781 3.2874 25.9602 3.1652 25.3365 3.16676H25.3333ZM26.9166 7.91676C26.9166 8.33951 26.752 8.73693 26.4242 9.06468L22.1666 13.5376L17.8805 9.03618C17.5813 8.73693 17.4166 8.33951 17.4166 7.91676C17.4166 7.49401 17.5813 7.0966 17.8821 6.79576C18.1684 6.50452 18.5583 6.33832 18.9667 6.33343C19.0063 6.33501 19.7615 6.3841 20.6561 7.10135C20.7844 7.20426 20.9142 7.32143 21.0472 7.45285L22.1666 8.57226L23.286 7.45285C23.419 7.32143 23.5489 7.20426 23.6771 7.10135C24.5147 6.42843 25.2225 6.34451 25.3428 6.33501C25.5492 6.33497 25.7535 6.37581 25.944 6.45516C26.1345 6.53452 26.3074 6.65082 26.4527 6.79735C26.752 7.0966 26.9166 7.49401 26.9166 7.91676Z" fill="#009540"/>
</svg>
