<svg width="17" height="14" viewBox="0 0 17 14" fill="none" xmlns="http://www.w3.org/2000/svg">
<path d="M1.66667 13.3333C1.20833 13.3333 0.815972 13.1701 0.489583 12.8438C0.163194 12.5174 0 12.125 0 11.6667V1.66667C0 1.20833 0.163194 0.815972 0.489583 0.489583C0.815972 0.163194 1.20833 0 1.66667 0H6.66667L8.33333 1.66667H15C15.4583 1.66667 15.8507 1.82986 16.1771 2.15625C16.5035 2.48264 16.6667 2.875 16.6667 3.33333V11.6667C16.6667 12.125 16.5035 12.5174 16.1771 12.8438C15.8507 13.1701 15.4583 13.3333 15 13.3333H1.66667ZM1.66667 11.6667H15V3.33333H7.64583L5.97917 1.66667H1.66667V11.6667ZM1.66667 11.6667V1.66667V3.33333V11.6667Z" fill="#1C1B1B"/>
</svg>
