<svg width="210" height="310" viewBox="0 0 210 310" fill="none" xmlns="http://www.w3.org/2000/svg">
<path opacity="0.3" d="M272.333 -11.7942C259.388 -9.68868 247.648 -2.92095 237.111 4.89956C217.795 19.2873 201.539 37.7357 189.598 58.6406C174.094 40.9441 158.44 23.0973 139.475 9.21088C121.061 -4.2745 99.0351 -13.9499 76.2064 -14C76.9088 -13.2982 77.3101 -12.095 76.5575 -11.2929C75.0524 -9.73882 72.4935 -10.2903 70.3863 -10.7414C53.6285 -14.3008 37.7235 -2.57 25.0298 8.96024C21.2166 12.4193 17.5038 15.9285 14.2426 19.8388C-3.61905 41.5457 -3.31805 73.7803 7.61969 99.6481C18.5574 125.516 38.3256 146.421 57.7426 166.774C80.1198 190.236 102.497 213.647 124.874 237.109C139.424 252.349 153.975 267.639 168.926 282.478C176.502 289.997 184.881 299.823 181.62 310C205.252 303.683 221.006 281.976 234.804 261.773C270.025 210.088 305.397 158.202 332.591 101.854C339.314 87.9675 345.586 73.3792 345.987 57.9387C346.338 42.4982 339.515 26.0049 325.717 19.0868C317.79 15.1264 314.328 5.7518 308.407 -0.815425C299.627 -10.5409 285.278 -13.8496 272.333 -11.7942ZM336.153 62.25C335.601 62.25 335.601 61.1973 336.153 61.1471C336.705 61.1471 336.655 62.1999 336.153 62.25ZM339.766 42.047C341.321 42.4982 342.174 44.4533 341.471 45.9071L341.271 45.5562C339.816 45.2554 338.963 43.3003 339.715 42.047H339.766ZM336.103 44.6038C337.207 45.1552 336.404 47.1103 335.3 47.1103C335.15 47.1103 334.999 47.1103 334.849 47.01C333.544 46.3583 334.849 43.9019 336.053 44.6038H336.103ZM331.688 27.9601C333.193 28.0604 334.046 29.7648 334.297 31.2186C334.447 32.0207 334.497 32.9231 334.046 33.6249C333.795 34.0761 333.243 34.3769 332.691 34.3769C332.39 34.3769 332.139 34.2766 331.939 34.0761C331.136 33.2239 332.089 31.9205 332.992 31.1685C331.939 30.5168 331.437 29.1632 331.738 27.9601H331.688ZM333.494 77.5402C333.996 77.5402 334.046 78.2921 333.895 78.7934C333.394 80.9992 332.892 83.1549 332.34 85.3607C330.835 82.9544 331.337 79.4953 333.444 77.5402H333.494ZM323.409 21.6937C324.664 21.0921 325.868 23.348 324.714 24.0498C323.71 23.6488 323.008 22.6461 323.008 21.5934L323.459 21.6937H323.409ZM248.701 30.1659L248.952 30.4165C248.601 29.9653 249.604 29.1632 249.906 29.7147C249.203 30.8176 248.451 31.9706 247.297 32.6223C246.143 33.3242 244.537 33.3743 243.634 32.3717C245.29 31.6197 246.995 30.9178 248.651 30.1659H248.701ZM233.499 44.1024L231.743 44.704L231.392 44.6038C230.94 43.4006 233.399 42.8491 233.549 44.1024H233.499ZM226.475 49.7172C227.478 50.2686 227.428 51.8728 226.575 52.5746C226.073 53.0258 225.421 53.1762 224.719 53.1762C224.267 53.1762 223.765 53.076 223.364 52.9256L224.719 51.4717L224.919 51.3715C224.167 50.5694 225.521 49.1156 226.525 49.6169L226.475 49.7172ZM209.466 68.0653H209.667C209.817 66.9624 211.874 67.4637 211.925 68.6167C211.975 69.7697 210.921 70.622 209.918 71.2236C209.366 70.3212 209.165 69.1181 209.466 68.0653ZM208.162 74.1813C209.215 73.0784 211.072 71.9755 212.075 73.1787C210.52 74.2315 209.366 75.8357 208.964 77.6906L208.663 77.5402C208.663 77.5402 208.312 77.7407 208.162 77.7407C207.559 77.7407 206.907 77.089 206.907 76.4373C206.907 75.5349 207.559 74.833 208.162 74.1813ZM188.945 61.9493C188.343 62.1498 187.741 62.3503 187.189 62.5508H186.838C186.386 61.2975 188.845 60.696 188.995 61.9493H188.945ZM183.527 54.8306C183.727 55.4321 183.928 55.9836 184.129 56.5852L184.028 56.9862C184.028 56.9862 183.828 57.0363 183.727 57.0363C182.724 57.0363 182.322 54.9809 183.476 54.8306H183.527ZM93.5161 -9.5383C94.068 -10.3905 95.523 -10.3905 96.0247 -9.5383C95.4728 -8.68606 94.0178 -8.68606 93.4659 -9.5383H93.5161ZM63.7634 1.39037L64.3655 3.14497L64.2652 3.49589C64.2652 3.49589 64.0645 3.54603 63.9641 3.54603C62.9607 3.54603 62.5593 1.49063 63.7132 1.34023L63.7634 1.39037ZM55.8863 -8.78632C56.4382 -8.78632 56.4382 -7.73355 55.8863 -7.68342C55.3344 -7.68342 55.3344 -8.73619 55.8863 -8.78632ZM49.5143 -6.2296C50.0662 -6.2296 50.0662 -5.17687 49.5143 -5.12674C48.9623 -5.12674 48.9623 -6.17947 49.5143 -6.2296ZM33.0073 36.9336C33.2582 37.5352 33.5592 38.1368 33.81 38.7885L33.6094 38.8888C33.3083 39.2898 32.8066 39.5405 32.3049 39.5405C31.8032 39.5405 31.3015 39.34 31.0506 38.8888C31.7028 38.2371 32.3551 37.5853 33.0073 36.9837V36.9336ZM20.9657 87.2155C20.464 84.5084 19.9623 81.7011 20.4138 78.994C20.7651 76.9386 21.4173 74.2315 19.5609 73.2288C20.163 72.6273 20.7651 72.0758 21.3671 71.4743C23.4744 72.8278 23.625 75.8357 23.1232 78.2921C22.6215 80.7485 21.7685 83.3554 22.7218 85.6113C24.7288 90.424 25.7322 95.5875 25.7322 100.801C22.8221 96.8909 21.8689 91.978 20.9657 87.2155ZM23.8257 60.5456C22.5212 63.5033 21.8187 66.7619 21.8689 70.0204C20.5142 69.7196 19.6111 68.2157 20.0124 66.9123C21.5678 61.4981 23.1734 56.0337 24.779 50.5694C26.0835 51.7725 26.3343 53.8279 25.9329 55.5825C25.5315 57.3371 24.5782 58.8912 23.8758 60.5456H23.8257ZM27.7893 91.8276L26.0333 91.226C26.0835 90.5743 26.7859 90.1232 27.4381 90.2736C28.0402 90.424 28.4416 91.1759 28.1907 91.7775H27.7893V91.8276ZM31.1007 106.917C30.1474 107.068 29.144 105.864 29.746 105.062L29.9468 105.163C30.4987 104.11 31.0506 103.007 31.6025 101.954C32.1042 102.806 32.5558 103.709 32.6059 104.711C32.6059 105.664 32.054 106.767 31.1007 106.917ZM37.0211 114.688C35.0142 113.184 33.4087 111.128 32.5056 108.772C33.0575 107.92 34.4623 108.421 35.2149 109.173C36.5696 110.627 37.272 112.732 37.0211 114.688ZM178.81 276.261C178.309 276.261 177.807 276.061 177.506 275.61V275.459C176.302 275.159 175.9 273.254 176.854 272.451C177.907 273.504 179.011 274.607 180.065 275.66C179.814 276.061 179.312 276.312 178.81 276.312V276.261ZM184.58 283.932C183.527 282.879 182.423 281.776 181.319 280.723L181.219 280.623C182.122 279.971 183.527 280.071 184.329 280.874C185.132 281.676 185.232 283.079 184.58 283.982V283.932ZM196.02 300.425V300.525C194.665 300.375 193.461 299.573 192.859 298.369C194.414 297.517 196.421 297.517 197.926 298.42C197.274 299.071 196.622 299.723 196.02 300.375V300.425ZM214.483 281.926H214.584C214.333 281.275 214.584 280.422 215.186 280.021C215.587 280.523 215.989 281.124 215.888 281.726C215.738 282.327 214.634 282.528 214.534 281.876L214.483 281.926ZM218.046 276.211C216.741 275.71 215.788 274.457 215.688 273.053H215.838C215.587 272.401 215.838 271.599 216.34 271.198C217.594 272.502 218.246 274.407 218.046 276.211ZM220.253 268.491C219.701 268.491 219.701 267.438 220.253 267.388C220.805 267.388 220.805 268.441 220.253 268.491ZM227.227 264.13C226.976 264.531 226.525 264.731 226.073 264.731C225.622 264.731 225.02 264.531 224.719 264.13C225.17 263.729 225.572 263.277 226.023 262.826L225.772 262.726C226.475 262.024 227.779 263.277 227.278 264.13H227.227ZM308.056 50.3689C307.655 58.1392 305.096 65.659 302.286 72.928C273.938 146.922 222.561 209.587 186.236 280.021C150.161 236.708 112.632 194.597 73.6977 153.79C62.1077 141.658 50.2668 129.527 41.4364 115.239C32.6059 100.952 26.8862 84.1575 28.7426 67.4637C30.5488 51.2211 39.8308 35.9811 53.4277 26.9073C67.0247 17.8335 84.6856 15.0763 100.39 19.6382C105.758 21.1923 110.826 23.4984 115.843 26.0551C130.193 33.3743 143.689 42.4481 155.881 53.076C170.582 65.8094 184.129 82.7037 183.928 102.155C183.878 108.221 192.558 110.928 197.826 107.87C203.094 104.762 205.553 98.6455 207.961 93.0809C217.293 71.7249 231.442 52.4242 249.002 37.1341C256.328 30.7674 264.456 24.9522 273.888 22.5459C283.321 20.1897 294.208 21.844 300.982 28.8123C306.401 34.3769 308.508 42.6486 308.106 50.419L308.056 50.3689Z" fill="#BDCABA"/>
</svg>
