<svg width="30" height="33" viewBox="0 0 30 33" fill="none" xmlns="http://www.w3.org/2000/svg">
<path d="M2.05025 27.0482C2.33438 27.3509 2.01171 27.8226 1.69516 28.0988C1.10179 28.6329 0.49462 29.185 0.180348 29.912C-0.129875 30.6451 -0.0629714 31.6002 0.562118 32.0974C2.46817 31.5756 4.27589 30.7813 6.08766 29.993C8.4258 28.9685 10.7699 27.94 13.108 26.9155C18.3764 24.6119 23.7952 22.1972 27.7111 17.9942C28.3548 17.3041 28.9873 16.4824 28.9863 15.5347C28.9877 14.6289 28.4786 13.5221 29.1814 12.9571C29.8109 12.4507 29.7854 11.4414 29.3282 10.7691C29.2999 10.7274 29.2715 10.6858 29.2432 10.6441C28.6963 9.9806 27.8377 9.67701 26.9981 9.49097C24.4154 8.91545 21.7014 9.221 19.1631 9.96393C16.6289 10.7128 14.2404 11.8934 11.8961 13.1134C12.2082 12.3704 12.3122 11.5514 12.1889 10.7564C12.4354 10.6585 12.6527 10.441 12.6522 10.1717C12.6556 9.9083 12.3939 9.65125 12.1372 9.72138C12.3498 9.20272 12.4721 8.64097 12.4907 8.08014C12.4985 7.84863 12.1965 7.55803 12.1328 7.78406C12.3888 7.00962 12.2791 6.1706 12.0781 5.37631C11.6763 3.81364 10.8682 2.31845 9.6297 1.29C8.38118 0.259634 6.67274 -0.257844 5.10849 0.12723C3.48454 0.526804 2.19629 1.82921 1.46047 3.3302C0.724659 4.83119 0.465396 6.52147 0.315551 8.18084C-0.109098 12.8375 0.216561 17.5234 0.551971 22.1852C0.674056 23.912 0.861372 25.7858 2.05215 27.0382L2.05025 27.0482ZM17.9285 23.4547C17.9292 23.315 18.0997 23.2078 18.222 23.2725L18.218 23.2666C18.3614 23.2473 18.4989 23.2321 18.6364 23.2169C18.5433 23.4891 18.1715 23.6201 17.9326 23.4606L17.9285 23.4547ZM18.9625 22.8908C19.0279 22.8463 19.1129 22.9712 19.0515 23.0217C18.9861 23.0662 18.9011 22.9412 18.9625 22.8908ZM20.8525 21.9362C20.8624 21.7206 21.1402 21.5665 21.3267 21.6745L21.2675 21.7409C21.1629 21.8556 21.008 21.9348 20.8525 21.9362ZM21.6114 21.4027C21.5769 21.3391 21.6958 21.2582 21.7422 21.3137C21.7808 21.3832 21.6619 21.4641 21.6114 21.4027ZM22.0811 21.0832C22.0609 21.0535 22.0585 21.0116 22.0842 20.9854C22.1537 20.9469 22.2346 21.0659 22.1732 21.1163C22.1435 21.1365 22.1014 21.113 22.0811 21.0832ZM22.9374 20.5009C23.1537 20.1798 23.5046 19.9412 23.8887 19.854C23.6664 20.1792 23.3215 20.4137 22.9374 20.5009ZM24.3371 19.5926C24.4112 19.2029 24.7232 18.8689 25.1093 18.7717C25.0351 19.1614 24.7231 19.4954 24.3371 19.5926ZM27.0046 17.3262C26.8528 17.525 26.6509 17.6885 26.4285 17.7962L26.4866 17.8176C26.45 17.9556 26.3856 18.1038 26.2545 18.1668C26.1572 18.2156 26.0192 18.1789 25.9626 18.0956C25.9424 18.0659 25.9321 18.038 25.9338 18.0021C25.948 17.8184 26.2052 17.8002 26.3891 17.8404C26.4101 17.539 26.711 17.2909 27.0086 17.3321L27.0046 17.3262ZM16.3546 24.0813C16.3318 24.2012 16.309 24.3211 16.2762 24.4391C15.9258 24.5121 15.5881 24.6548 15.2808 24.855C15.5245 24.4718 15.9148 24.1889 16.3446 24.0794L16.3546 24.0813ZM14.5783 25.0369C14.6279 25.212 14.336 25.3583 14.2408 25.2055L14.2327 25.1936C14.2035 25.2657 14.0995 25.2407 14.0631 25.1871C14.0469 25.1633 14.0467 25.1374 14.0624 25.1093C14.2325 25.1677 14.4297 25.138 14.5783 25.0369ZM13.899 25.3422C13.8306 25.4845 13.71 25.6013 13.5649 25.6565L13.4854 25.6931C13.4435 25.478 13.6949 25.2722 13.9031 25.3482L13.899 25.3422ZM8.21269 27.5299C8.34259 27.5546 8.47248 27.5794 8.60238 27.6042C8.54795 27.7543 8.42143 27.8752 8.26634 27.9284C8.05872 28.1218 7.81469 28.2617 7.54614 28.3399C7.56679 28.204 7.59149 28.0741 7.61619 27.9442C7.88457 28.0575 8.22349 27.8271 8.21674 27.5358L8.21269 27.5299ZM5.66467 29.1408C5.7294 29.236 5.49843 29.28 5.47342 29.1665L5.45343 29.1626C5.42419 29.2347 5.32807 29.1957 5.29166 29.1421C5.27548 29.1183 5.27118 29.0865 5.29686 29.0603C5.40917 29.1231 5.54311 29.1539 5.66657 29.1308L5.66467 29.1408ZM3.53298 30.0597L3.6348 30.0687C3.56541 30.3248 3.30189 30.5127 3.03425 30.4771C3.15219 30.2925 3.33222 30.1353 3.53892 30.0556L3.53298 30.0597ZM1.02651 31.4248C1.07101 31.4903 0.946149 31.5752 0.895697 31.5138C0.851192 31.4483 0.976057 31.3634 1.02651 31.4248ZM23.1277 11.9577C23.3328 11.914 23.5518 11.8781 23.7343 11.9802C23.9168 12.0823 23.9657 12.3971 23.779 12.4806C23.545 12.2133 23.0605 12.2296 22.8457 12.5149C22.7943 12.3497 22.7823 12.1403 22.921 12.0374C22.9864 11.9929 23.058 11.9703 23.1337 11.9536L23.1277 11.9577ZM22.4488 12.0974C22.4191 12.1176 22.377 12.0941 22.3567 12.0643C22.3365 12.0346 22.3341 11.9927 22.3598 11.9665C22.4252 11.9221 22.5102 12.047 22.4488 12.0974ZM20.8868 12.7159C20.8571 12.7361 20.8149 12.7126 20.7947 12.6828C20.7745 12.6531 20.7721 12.6112 20.7978 12.585C20.8632 12.5406 20.9481 12.6655 20.8868 12.7159ZM19.1549 12.6755C19.5284 12.5086 19.9282 12.3933 20.3326 12.3358C20.2044 12.4926 20.0722 12.6434 19.944 12.8002C20.028 12.8214 20.118 12.8385 20.2019 12.8597C20.2426 12.9451 20.1577 13.0377 20.0662 13.0565C19.9765 13.0652 19.8863 13.0221 19.7983 12.995C19.4961 12.8959 19.1476 12.9589 18.8982 13.1547C18.8901 13.1428 18.882 13.1309 18.8739 13.119C18.7727 12.9702 18.9742 12.7549 19.1609 12.6715L19.1549 12.6755ZM18.3607 13.6942C18.3573 13.5486 18.3618 13.3889 18.4586 13.2883C18.5613 13.1836 18.7892 13.2374 18.7767 13.3852L18.8026 13.385C18.7465 13.571 18.5503 13.7045 18.3507 13.6923L18.3607 13.6942ZM18.2234 12.8913C18.2579 12.9549 18.139 13.0357 18.0926 12.9803C18.054 12.9108 18.173 12.8299 18.2234 12.8913ZM16.851 13.7376C17.2204 13.5647 17.6338 13.4054 18.0316 13.4916C17.8418 13.6729 17.6035 13.7827 17.3692 13.8986C16.6126 14.2565 15.846 14.6125 15.0296 14.7674C15.6064 14.3752 16.2195 14.0365 16.8551 13.7435L16.851 13.7376ZM9.34902 19.457C9.19773 19.4903 9.03357 19.4279 8.94861 19.303L9.01021 19.2785C9.11031 19.106 9.43509 19.2767 9.35497 19.453L9.34902 19.457ZM16.1963 13.4781C16.2953 13.6109 16.2392 13.7969 16.1688 13.9492C16.0687 13.9042 15.9842 13.8311 15.9235 13.7419C15.8952 13.7002 15.8709 13.6645 15.8545 13.6148L15.8783 13.5986C15.8071 13.4556 16.0914 13.3493 16.1904 13.4821L16.1963 13.4781ZM12.921 15.8098C13.2414 15.5136 13.5617 15.2175 13.878 14.9154C13.9078 14.8952 13.9334 14.869 13.9613 14.8588C14.0429 14.8381 14.1176 14.9352 14.1064 15.0211C14.0953 15.107 14.0361 15.1733 13.9768 15.2397C13.6946 15.5535 13.3248 15.892 12.911 15.8079L12.921 15.8098ZM12.2842 15.9731C12.388 15.9722 12.5005 16.061 12.4815 16.1609C12.4661 16.2149 12.4266 16.2591 12.3831 16.2974C12.1536 16.497 11.8857 16.653 11.5996 16.7693C11.5153 16.5047 11.7743 16.259 12.0021 16.0953C12.0854 16.0387 12.1805 15.974 12.2842 15.9731ZM11.6257 4.78776L11.6138 4.79585C11.6961 4.85298 11.7352 4.97433 11.6962 5.07045C11.6082 5.04331 11.5061 5.00831 11.4754 4.92478C11.4447 4.84126 11.5593 4.7285 11.6238 4.79776L11.6257 4.78776ZM3.65775 17.1235C3.65775 17.1235 3.63348 17.0878 3.63728 17.0678C3.62796 16.9263 3.80254 16.825 3.94052 16.8616C3.91938 16.9456 3.90822 17.0315 3.89112 17.1214L3.92895 17.1131C3.90615 17.233 3.72249 17.2187 3.6618 17.1295L3.65775 17.1235ZM4.10398 15.3757C4.08282 14.6157 4.07165 13.8576 4.05048 13.0977C4.01361 11.5218 3.98078 9.9518 3.83828 8.38682C3.75116 7.40196 3.65876 6.28147 4.31202 5.54139C5.09155 4.65454 6.60505 4.80863 7.49999 5.57479C8.39492 6.34095 8.80707 7.52244 9.09716 8.6651C9.7912 11.3864 9.98098 14.3636 8.79825 16.9081C8.57739 17.3889 8.30064 17.8642 8.23181 18.3896C8.18909 18.7232 8.26247 19.0996 8.44858 19.3733C8.55378 19.528 8.69655 19.6484 8.86881 19.7227C9.68772 20.0446 10.3871 19.1166 10.9511 18.4371C11.9982 17.1508 13.553 16.4067 15.0625 15.7109C18.3732 14.1729 21.9389 12.6008 25.5391 13.1892C25.8648 13.2461 26.2754 13.428 26.2246 13.7497C22.441 16.9579 17.9825 19.2503 13.5696 21.5203C10.2068 23.2503 6.83811 24.9843 3.47535 26.7142C4.30364 24.2367 4.2524 21.5656 4.18976 18.9544C4.15847 17.7575 4.13122 16.5666 4.10398 15.3757Z" fill="#FCAB29"/>
</svg>
