<svg width="30" height="33" viewBox="0 0 30 33" fill="none" xmlns="http://www.w3.org/2000/svg">
<path d="M27.6133 27.0482C27.3292 27.3509 27.6519 27.8226 27.9684 28.0988C28.5618 28.6329 29.169 29.185 29.4832 29.912C29.7934 30.6451 29.7265 31.6002 29.1015 32.0974C27.1954 31.5756 25.3877 30.7813 23.5759 29.993C21.2378 28.9685 18.8937 27.94 16.5555 26.9155C11.2872 24.6119 5.86834 22.1972 1.95251 17.9942C1.30876 17.3041 0.676224 16.4824 0.677226 15.5347C0.675835 14.6289 1.18501 13.5221 0.482219 12.9571C-0.147322 12.4507 -0.121798 11.4414 0.335392 10.7691C0.363714 10.7274 0.392035 10.6858 0.420356 10.6441C0.967228 9.9806 1.82586 9.67701 2.66543 9.49097C5.24814 8.91545 7.96213 9.221 10.5004 9.96393C13.0347 10.7128 15.4232 11.8934 17.7675 13.1134C17.4554 12.3704 17.3514 11.5514 17.4746 10.7564C17.2282 10.6585 17.0109 10.441 17.0114 10.1717C17.0079 9.9083 17.2697 9.65125 17.5263 9.72138C17.3138 9.20272 17.1915 8.64097 17.1729 8.08014C17.1651 7.84863 17.467 7.55803 17.5307 7.78406C17.2748 7.00962 17.3844 6.1706 17.5855 5.37631C17.9873 3.81364 18.7953 2.31845 20.0339 1.29C21.2824 0.259634 22.9908 -0.257844 24.5551 0.12723C26.179 0.526804 27.4673 1.82921 28.2031 3.3302C28.9389 4.83119 29.1982 6.52147 29.348 8.18084C29.7727 12.8375 29.447 17.5234 29.1116 22.1852C28.9895 23.912 28.8022 25.7858 27.6114 27.0382L27.6133 27.0482ZM11.735 23.4547C11.7344 23.315 11.5638 23.2078 11.4415 23.2725L11.4456 23.2666C11.3021 23.2473 11.1646 23.2321 11.0271 23.2169C11.1203 23.4891 11.4921 23.6201 11.731 23.4606L11.735 23.4547ZM10.7011 22.8908C10.6357 22.8463 10.5507 22.9712 10.6121 23.0217C10.6775 23.0662 10.7625 22.9412 10.7011 22.8908ZM8.81111 21.9362C8.80119 21.7206 8.52338 21.5665 8.33684 21.6745L8.39606 21.7409C8.50069 21.8556 8.65553 21.9348 8.81111 21.9362ZM8.05217 21.4027C8.08668 21.3391 7.96776 21.2582 7.92136 21.3137C7.8828 21.3832 8.00172 21.4641 8.05217 21.4027ZM7.58243 21.0832C7.60266 21.0535 7.60505 21.0116 7.57937 20.9854C7.50991 20.9469 7.429 21.0659 7.49036 21.1163C7.52009 21.1365 7.5622 21.113 7.58243 21.0832ZM6.72621 20.5009C6.50983 20.1798 6.15901 19.9412 5.77484 19.854C5.99717 20.1792 6.34204 20.4137 6.72621 20.5009ZM5.3265 19.5926C5.2524 19.2029 4.94039 18.8689 4.55432 18.7717C4.62843 19.1614 4.94043 19.4954 5.3265 19.5926ZM2.65902 17.3262C2.81073 17.525 3.01265 17.6885 3.23504 17.7962L3.17699 17.8176C3.21358 17.9556 3.278 18.1038 3.40906 18.1668C3.50634 18.2156 3.64434 18.1789 3.70098 18.0956C3.72121 18.0659 3.73144 18.038 3.72979 18.0021C3.71557 17.8184 3.45842 17.8002 3.27452 17.8404C3.25344 17.539 2.95259 17.2909 2.65497 17.3321L2.65902 17.3262ZM13.309 24.0813C13.3318 24.2012 13.3546 24.3211 13.3874 24.4391C13.7377 24.5121 14.0755 24.6548 14.3828 24.855C14.1391 24.4718 13.7488 24.1889 13.3189 24.0794L13.309 24.0813ZM15.0852 25.0369C15.0357 25.212 15.3275 25.3583 15.4227 25.2055L15.4308 25.1936C15.4601 25.2657 15.564 25.2407 15.6005 25.1871C15.6166 25.1633 15.6169 25.1374 15.6012 25.1093C15.4311 25.1677 15.2339 25.138 15.0852 25.0369ZM15.7646 25.3422C15.833 25.4845 15.9536 25.6013 16.0987 25.6565L16.1781 25.6931C16.2201 25.478 15.9687 25.2722 15.7605 25.3482L15.7646 25.3422ZM21.4509 27.5299C21.321 27.5546 21.1911 27.5794 21.0612 27.6042C21.1156 27.7543 21.2421 27.8752 21.3972 27.9284C21.6049 28.1218 21.8489 28.2617 22.1174 28.3399C22.0968 28.204 22.0721 28.0741 22.0474 27.9442C21.779 28.0575 21.4401 27.8271 21.4468 27.5358L21.4509 27.5299ZM23.9989 29.1408C23.9342 29.236 24.1651 29.28 24.1902 29.1665L24.2101 29.1626C24.2394 29.2347 24.3355 29.1957 24.3719 29.1421C24.3881 29.1183 24.3924 29.0865 24.3667 29.0603C24.2544 29.1231 24.1205 29.1539 23.997 29.1308L23.9989 29.1408ZM26.1306 30.0597L26.0288 30.0687C26.0982 30.3248 26.3617 30.5127 26.6293 30.4771C26.5114 30.2925 26.3314 30.1353 26.1247 30.0556L26.1306 30.0597ZM28.6371 31.4248C28.5926 31.4903 28.7174 31.5752 28.7679 31.5138C28.8124 31.4483 28.6875 31.3634 28.6371 31.4248ZM6.53587 11.9577C6.33082 11.914 6.11174 11.8781 5.92924 11.9802C5.74675 12.0823 5.69789 12.3971 5.8846 12.4806C6.11853 12.2133 6.6031 12.2296 6.81783 12.5149C6.86926 12.3497 6.88123 12.1403 6.74257 12.0374C6.67716 11.9929 6.60557 11.9703 6.52992 11.9536L6.53587 11.9577ZM7.21476 12.0974C7.24449 12.1176 7.2866 12.0941 7.30683 12.0643C7.32706 12.0346 7.32945 11.9927 7.30377 11.9665C7.23836 11.9221 7.1534 12.047 7.21476 12.0974ZM8.77679 12.7159C8.80652 12.7361 8.84864 12.7126 8.86887 12.6828C8.8891 12.6531 8.89149 12.6112 8.8658 12.585C8.8004 12.5406 8.71543 12.6655 8.77679 12.7159ZM10.5086 12.6755C10.1352 12.5086 9.73535 12.3933 9.33095 12.3358C9.45913 12.4926 9.59136 12.6434 9.71953 12.8002C9.63555 12.8214 9.54562 12.8385 9.46164 12.8597C9.42094 12.9451 9.50583 13.0377 9.59741 13.0565C9.6871 13.0652 9.77727 13.0221 9.86529 12.995C10.1674 12.8959 10.5159 12.9589 10.7654 13.1547C10.7735 13.1428 10.7816 13.1309 10.7897 13.119C10.8908 12.9702 10.6894 12.7549 10.5027 12.6715L10.5086 12.6755ZM11.3029 13.6942C11.3063 13.5486 11.3018 13.3889 11.205 13.2883C11.1023 13.1836 10.8743 13.2374 10.8869 13.3852L10.861 13.385C10.9171 13.571 11.1133 13.7045 11.3129 13.6923L11.3029 13.6942ZM11.4402 12.8913C11.4056 12.9549 11.5246 13.0357 11.571 12.9803C11.6095 12.9108 11.4906 12.8299 11.4402 12.8913ZM12.8125 13.7376C12.4431 13.5647 12.0297 13.4054 11.6319 13.4916C11.8217 13.6729 12.0601 13.7827 12.2944 13.8986C13.051 14.2565 13.8176 14.6125 14.634 14.7674C14.0572 14.3752 13.444 14.0365 12.8085 13.7435L12.8125 13.7376ZM20.3146 19.457C20.4658 19.4903 20.63 19.4279 20.715 19.303L20.6534 19.2785C20.5533 19.106 20.2285 19.2767 20.3086 19.453L20.3146 19.457ZM13.4673 13.4781C13.3683 13.6109 13.4244 13.7969 13.4947 13.9492C13.5949 13.9042 13.6794 13.8311 13.7401 13.7419C13.7684 13.7002 13.7927 13.6645 13.8091 13.6148L13.7853 13.5986C13.8565 13.4556 13.5722 13.3493 13.4732 13.4821L13.4673 13.4781ZM16.7425 15.8098C16.4222 15.5136 16.1019 15.2175 15.7855 14.9154C15.7558 14.8952 15.7301 14.869 15.7023 14.8588C15.6207 14.8381 15.546 14.9352 15.5571 15.0211C15.5683 15.107 15.6275 15.1733 15.6867 15.2397C15.969 15.5535 16.3388 15.892 16.7525 15.8079L16.7425 15.8098ZM17.3793 15.9731C17.2756 15.9722 17.1631 16.061 17.1821 16.1609C17.1975 16.2149 17.237 16.2591 17.2805 16.2974C17.51 16.497 17.7778 16.653 18.064 16.7693C18.1483 16.5047 17.8893 16.259 17.6614 16.0953C17.5782 16.0387 17.4831 15.974 17.3793 15.9731ZM18.0379 4.78776L18.0498 4.79585C17.9674 4.85298 17.9284 4.97433 17.9674 5.07045C18.0554 5.04331 18.1575 5.00831 18.1882 4.92478C18.2189 4.84126 18.1043 4.7285 18.0398 4.79776L18.0379 4.78776ZM26.0058 17.1235C26.0058 17.1235 26.0301 17.0878 26.0263 17.0678C26.0356 16.9263 25.861 16.825 25.7231 16.8616C25.7442 16.9456 25.7553 17.0315 25.7724 17.1214L25.7346 17.1131C25.7574 17.233 25.9411 17.2187 26.0018 17.1295L26.0058 17.1235ZM25.5596 15.3757C25.5808 14.6157 25.5919 13.8576 25.6131 13.0977C25.65 11.5218 25.6828 9.9518 25.8253 8.38682C25.9124 7.40196 26.0048 6.28147 25.3516 5.54139C24.572 4.65454 23.0585 4.80863 22.1636 5.57479C21.2687 6.34095 20.8565 7.52244 20.5664 8.6651C19.8724 11.3864 19.6826 14.3636 20.8653 16.9081C21.0862 17.3889 21.3629 17.8642 21.4318 18.3896C21.4745 18.7232 21.4011 19.0996 21.215 19.3733C21.1098 19.528 20.967 19.6484 20.7948 19.7227C19.9759 20.0446 19.2765 19.1166 18.7124 18.4371C17.6654 17.1508 16.1105 16.4067 14.6011 15.7109C11.2904 14.1729 7.72465 12.6008 4.12448 13.1892C3.79879 13.2461 3.38814 13.428 3.43895 13.7497C7.22256 16.9579 11.6811 19.2503 16.094 21.5203C19.4568 23.2503 22.8255 24.9843 26.1882 26.7142C25.3599 24.2367 25.4112 21.5656 25.4738 18.9544C25.5051 17.7575 25.5323 16.5666 25.5596 15.3757Z" fill="#009540"/>
</svg>
