<svg width="7" height="10" viewBox="0 0 7 10" fill="none" xmlns="http://www.w3.org/2000/svg">
<path d="M3.29939 0C1.80666 0 0.839806 0.611596 0.0807302 1.70232C-0.056969 1.90019 -0.0145166 2.17147 0.177567 2.31712L0.984313 2.92883C1.1783 3.07591 1.45432 3.04152 1.60619 2.85125C2.07465 2.26438 2.42214 1.92648 3.15388 1.92648C3.72921 1.92648 4.44084 2.29675 4.44084 2.85466C4.44084 3.27641 4.09267 3.49301 3.5246 3.8115C2.86213 4.18291 1.98548 4.64514 1.98548 5.80143V5.98448C1.98548 6.23237 2.18643 6.43332 2.43432 6.43332H3.78963C4.03752 6.43332 4.23847 6.23237 4.23847 5.98448V5.87652C4.23847 5.07497 6.58117 5.04159 6.58117 2.87255C6.58119 1.23909 4.88679 0 3.29939 0ZM3.11198 6.98425C2.39766 6.98425 1.81651 7.5654 1.81651 8.27972C1.81651 8.99403 2.39766 9.57518 3.11198 9.57518C3.82631 9.57518 4.40746 8.99403 4.40746 8.2797C4.40746 7.56538 3.82631 6.98425 3.11198 6.98425Z" fill="#1C1B1B"/>
</svg>
