<svg width="83" height="72" viewBox="0 0 83 72" fill="none" xmlns="http://www.w3.org/2000/svg">
<path d="M50.4118 18.5911L50.8333 19.0512C50.8121 18.9937 50.7023 18.8617 50.4118 18.5911Z" fill="#C2D832" fill-opacity="0.5"/>
<path d="M50.3006 17.9617C50.3006 17.9617 50.2769 17.9313 50.2735 17.9211C50.2668 17.9381 50.2769 17.9482 50.3006 17.9617Z" fill="#C2D832" fill-opacity="0.5"/>
<path d="M24.0433 9.26972C24.1637 9.06672 24.2593 8.88401 24.2806 8.76221C24.0964 9.0498 24.0362 9.19529 24.0433 9.26972Z" fill="#C2D832" fill-opacity="0.5"/>
<path d="M8.63114 43.5642C8.60989 43.5338 8.58863 43.5067 8.56383 43.4932C8.55675 43.5507 8.57092 43.5811 8.63114 43.5642Z" fill="#C2D832" fill-opacity="0.5"/>
<path d="M55.2404 24.1296C55.1873 24.0484 55.1306 23.9673 55.081 23.8928C54.9783 23.8962 55.1554 24.106 55.2404 24.1296Z" fill="#C2D832" fill-opacity="0.5"/>
<path d="M30.4964 1.75492C30.4964 1.71432 30.4964 1.67373 30.4794 1.63989C30.4794 1.69741 30.4862 1.72785 30.4964 1.75492Z" fill="#C2D832" fill-opacity="0.5"/>
<path d="M67.719 43.0735C67.7827 43.1344 67.843 43.2021 67.9032 43.2697C67.85 43.1919 67.7863 43.1209 67.719 43.0735Z" fill="#C2D832" fill-opacity="0.5"/>
<path d="M1.24911 64.2708C1.31642 64.2978 1.38725 64.3181 1.4581 64.3418C1.37662 64.3181 1.30933 64.2944 1.24911 64.2708Z" fill="#C2D832" fill-opacity="0.5"/>
<path d="M82.8557 59.0941C82.8131 59.0095 82.7813 58.9858 82.76 58.9994C82.7388 59.0129 82.7281 59.067 82.7211 59.1347C82.7104 59.2058 82.6998 59.2937 82.6892 59.3783C82.6679 59.5475 82.6467 59.7065 82.6042 59.6862C82.5829 59.6795 82.5546 59.6253 82.5191 59.5103C82.4802 59.3952 82.4483 59.2125 82.3597 58.9622C82.3739 58.2212 82.2145 57.602 82.0197 57.0268C81.9134 56.7494 81.8036 56.4821 81.6902 56.2216C81.5769 55.9611 81.4423 55.731 81.3289 55.4941C81.212 55.2641 81.0987 55.034 80.9995 54.8174C80.8968 54.6043 80.8011 54.3911 80.7303 54.1847C80.5851 53.7686 80.5178 53.3626 80.5709 52.9532C80.1954 52.5066 79.7633 52.0295 79.2992 51.4915C78.8423 50.9468 78.3499 50.3378 77.8752 49.6036C77.6166 49.7524 77.1455 48.6799 76.9153 49.0115C77.1987 49.8066 77.7264 50.3987 78.2294 50.9603C78.7183 51.5321 79.1788 52.0769 79.2638 52.7908C79.7597 53.3761 79.8624 53.0378 80.1742 53.2577C80.5284 53.8261 80.7905 54.4148 80.6665 54.5705C79.7562 53.278 79.8199 54.5197 78.8423 52.828C78.7891 52.9972 78.9804 53.4099 79.2178 53.8633C79.4551 54.3133 79.7243 54.8208 79.8624 55.1423C79.6357 55.0238 79.5968 55.2742 79.6924 55.7276C79.4763 55.555 79.1752 55.2573 78.8883 54.946C78.7431 54.7904 78.5979 54.6313 78.4597 54.4926C78.318 54.3505 78.1834 54.222 78.0665 54.1205C78.2897 54.2321 78.1799 53.8735 78.3357 53.9784C78.3357 53.9784 77.9921 53.5926 77.6485 53.2103C77.2978 52.8348 76.9436 52.4558 76.9436 52.4558C76.7913 51.84 76.8976 51.5863 77.2093 51.7927C76.9613 51.2953 76.4902 50.6998 76.1395 50.1991C75.7782 49.7051 75.5338 49.2991 75.7286 49.1806C74.8891 48.01 75.7428 49.7017 75.7003 49.8675L75.6153 49.7761C75.6153 49.7761 75.8278 50.0908 76.0403 50.4055C76.2493 50.7235 76.4583 51.0415 76.4583 51.0415C76.2741 51.2412 76.0758 50.8622 75.8491 50.4359C75.6188 50.013 75.3602 49.546 75.0804 49.5697C74.1346 49.8573 74.1736 47.631 73.4439 46.8258C73.4439 46.8258 73.7627 46.9916 74.0815 47.154C74.4003 47.3231 74.7155 47.4889 74.7155 47.4889L73.9894 46.6769C74.5632 47.0457 74.9458 46.8088 75.7109 47.4551C74.9139 46.1998 73.8902 44.3491 73.2384 43.6318C73.2242 43.2021 73.3163 42.9484 73.6068 42.9585C72.3883 41.9705 72.4591 40.9352 71.7152 39.8829C70.7057 38.9153 72.2218 41.189 71.361 40.5664C71.276 40.1807 70.8261 39.7138 70.5357 39.433C70.897 39.8254 71.4814 40.986 71.9171 41.7878C71.4956 41.1687 71.2618 41.4224 71.0245 41.3311L71.6833 42.3833C71.2866 42.5423 70.773 41.1551 70.2593 40.8033C70.7871 40.898 70.6773 40.7254 71.2016 40.8202C70.4506 40.0284 69.5048 38.7224 69.1577 37.8597C68.9664 37.3386 69.5792 38.1202 69.8378 38.2995C69.9051 37.9578 69.0762 37.5146 69.2144 37.1728C69.5084 37.1762 69.6253 37.6939 69.9016 37.9578C69.9016 37.9578 69.4588 37.3082 69.0196 36.6552C68.5768 36.0055 68.1305 35.3559 68.1305 35.3559C68.258 35.2713 68.7645 35.877 69.0089 36.31C68.5874 35.4439 68.095 34.9262 67.0075 34.3206C66.4868 33.3766 65.9165 32.2601 66.3203 32.4259C65.9449 32.0807 66.0334 32.4259 65.9095 32.5172C65.0983 31.3127 64.5598 31.492 64.0214 30.8086L64.1915 31.492C63.5751 30.2097 63.6141 31.4988 63.0367 30.389C63.398 30.3823 63.6247 30.1251 63.7522 29.78C63.3909 29.78 63.1181 29.012 62.7852 28.5857C62.7533 29.0187 61.8571 27.8278 62.1547 28.6804C61.2018 27.8345 61.1663 27.1511 60.2985 26.6503C60.5783 27.1578 59.3917 25.9804 59.5263 26.4981C58.7611 25.5676 58.5274 24.7184 58.9879 24.7894C59.2252 25.1312 59.5369 25.7267 59.7069 25.5473L58.2936 23.8692C58.074 23.3549 57.6914 22.7695 57.9039 22.5022C57.153 22.1842 56.8094 20.7293 56.1009 20.5872C56.8094 20.9898 56.866 21.6767 57.0042 21.927L56.7385 21.7004C56.7669 21.741 56.7987 21.7849 56.8377 21.8492L55.7715 21.4635C56.1647 22.306 56.1824 21.3586 56.9865 22.3669C57.1175 22.9624 56.5543 22.5936 56.0159 22.2147C55.4775 21.8357 54.9603 21.4534 55.1941 22.0015C55.6581 22.8406 55.9663 22.3974 56.6216 22.888L56.5012 22.7222L57.8047 23.9707C57.7091 24.1432 57.2486 23.815 57.2486 23.815C57.9216 24.6541 58.2546 25.1785 58.584 25.73C58.9206 26.2782 59.2571 26.85 59.9407 27.7804C59.8947 27.6079 60.0753 26.9176 60.7909 27.6755C61.3576 28.1797 61.138 28.4436 61.4887 28.9511C61.2053 28.7007 60.7448 28.6195 60.6102 28.1086L60.3127 28.3691C58.8533 27.2864 59.1083 28.2202 57.5355 26.4609C57.238 26.5454 56.0549 25.3071 55.3216 24.265L55.4987 24.9011C54.2731 24.177 55.6688 24.468 54.2731 23.409C54.2483 22.5564 53.9224 21.1962 54.8682 21.6699C54.2058 20.6684 53.7241 20.5229 53.0298 19.6974C52.9412 18.9293 53.6107 19.6669 53.8693 19.3117C53.3238 18.7331 52.5303 18.0936 52.7216 18.6891C52.7216 18.6891 52.5126 18.3778 52.3001 18.0699C52.0875 17.7587 51.875 17.4508 51.875 17.4508C51.921 17.3628 52.2753 17.7654 52.4028 17.9312C52.0981 17.4338 51.1913 16.7199 50.8442 16.5846C50.9434 16.6624 51.2516 16.8959 51.3047 17.0617C51.0532 16.8654 50.699 16.5981 50.3908 16.3816C50.0791 16.1685 49.8134 16.0094 49.7461 16.0196C50.5289 16.5237 50.2137 16.8993 51.0567 17.4237C50.9115 17.4372 50.6246 17.4609 50.3412 17.0617C50.5041 17.4271 50.7202 17.7519 50.8973 18.0395C51.0744 18.3237 51.209 18.5673 51.202 18.7838C50.9398 18.1478 50.4156 18.0361 50.2916 17.9583C50.6175 18.4455 51.4428 19.2846 51.8006 19.5113C51.4853 19.8598 53.1856 21.1049 52.5516 20.956C52.8066 21.0846 53.2565 21.6293 53.4265 21.9913C53.2317 22.0861 52.4063 21.2741 51.8998 21.0474C50.2349 19.4402 52.2115 20.8579 51.9848 20.3571C51.9848 20.3571 51.6943 20.029 51.4074 19.7008C51.1169 19.3759 50.8265 19.0478 50.8265 19.0478C50.8867 19.2237 50.1038 18.7297 50.869 19.5756C50.288 19.3624 49.4096 18.662 49.0022 17.8805C48.7613 17.823 49.2077 18.2763 49.3281 18.4286C49.0872 18.3677 47.9891 17.9177 48.8428 18.9801C48.5948 18.6654 49.4733 19.3455 49.1191 18.7026C49.3281 18.8955 49.6434 19.3083 49.8311 19.6432C50.0153 19.9782 50.0755 20.2286 49.7709 20.0797C50.2845 20.5466 51.2799 21.4229 51.6943 21.8255C51.6235 22.0861 51.3082 21.5041 51.039 21.3519L52.424 22.8101L52.2505 22.2214C53.051 23.4564 54.1066 23.8421 54.9993 24.6609C54.5884 24.7624 53.9401 24.0146 53.2883 23.5342C53.3875 24.3834 53.7914 23.7676 54.514 24.7658C54.56 24.9349 54.514 25.0229 54.3687 25.0297L55.2543 25.5913C55.3747 25.8011 55.2756 25.7808 55.1835 25.7199C56.4941 26.7112 55.5696 25.3443 57.0998 26.9887C56.4091 25.8079 56.1611 26.2409 55.4739 25.3274C55.2826 24.6473 56.6996 26.0548 57.0325 26.2206C57.6489 27.1443 57.2592 27.5774 58.3786 28.4943C57.617 27.8278 58.0633 28.6702 57.1848 27.5842C56.5366 27.0902 57.3017 28.0071 57.2238 28.2676C57.5072 28.518 57.4009 27.8345 57.9889 28.677H57.9181L59.296 29.7597C60.0895 31.1131 61.8429 32.2871 62.1228 33.4003L62.307 32.9706C62.9375 33.7319 63.7876 34.8416 64.2765 35.3559C63.986 35.3559 63.5716 34.845 63.0827 34.3341C64.0923 35.7856 65.2258 36.8954 66.207 37.6702C65.9342 36.8108 65.8351 36.7262 65.5056 35.9548C66.6675 36.557 66.0334 37.2439 67.1457 38.2792C66.8446 38.5296 66.5966 38.1033 66.4975 38.6142C67.0855 38.9593 67.6416 39.8254 68.2473 40.2619C68.1446 40.7728 67.4893 40.4209 66.5648 39.2164C66.1609 38.0999 64.9141 37.4097 64.6165 36.4691L64.7582 37.0713C63.9754 36.2119 63.6141 35.6164 62.8666 34.9398H62.9375L62.3176 34.7706L62.6399 35.1935C62.2361 35.0243 61.2691 34.351 61.0601 34.0973C62.1051 35.3695 62.686 35.1089 63.4476 35.5319C64.319 36.7262 64.0852 37.5822 64.9495 38.1811C64.8432 38.3503 65.1691 39.1251 64.6342 38.692C64.0604 38.0965 63.9152 37.4976 63.6459 37.5822C64.1702 38.2657 63.8443 38.0931 64.659 39.1183C65.0947 39.1217 65.959 39.7205 66.7383 40.3262C67.4751 41.0164 68.2084 42.0585 68.5732 42.7487C67.9711 41.9672 67.1174 41.3581 67.05 41.6999C67.6877 41.9671 67.925 43.4186 68.1765 42.9111C68.8141 43.8585 69.9264 45.425 69.6324 45.7566C68.885 44.9581 68.4988 43.9634 67.8896 43.2698C68.0277 43.4795 68.0809 43.7401 67.9108 43.6758L67.1634 42.5559C67.5779 43.4999 67.3547 43.4085 68.1446 44.4472C68.1269 44.3626 68.0879 44.1901 68.18 44.2781C68.3784 44.5386 68.5945 44.8837 68.7929 45.1442L68.4847 45.3912C69.2038 46.0882 69.8449 47.8915 71.0776 49.2077L70.9182 49.1198C71.6267 50.3344 72.367 50.0299 73.2738 51.2648C72.8735 50.9874 72.8417 51.2412 72.7248 51.4036C73.3128 51.9415 73.2384 52.4457 73.5466 53.1359C73.2845 52.2765 74.2267 53.4336 74 52.828C74.3294 52.5945 75.1406 53.9242 75.4948 54.628C75.2929 55.2742 73.9894 52.6588 74.1417 53.931C74.503 54.6246 74.8643 54.6584 74.6589 54.1408C75.1264 55.0137 75.7888 56.3265 75.8136 57.0573C76.0403 57.2671 76.1856 57.443 76.3166 57.6122C76.4477 57.778 76.5504 57.9268 76.6496 58.0656C76.8409 58.3362 77.0038 58.546 77.3758 58.7592C77.2518 58.5088 77.103 58.4073 76.9755 58.2821C76.9082 58.2212 76.8551 58.1569 76.7984 58.052C76.7417 57.9539 76.6921 57.8186 76.6567 57.6359C76.6567 57.6359 76.8303 57.7813 77.0074 57.9234C77.0995 57.9979 77.1774 58.0655 77.2412 58.1197C77.3014 58.1738 77.3439 58.2077 77.3439 58.2077C77.4501 58.4377 77.5387 58.6712 77.5954 58.881C77.6379 59.084 77.6627 59.2768 77.6875 59.4629C77.691 59.5069 77.7052 59.561 77.7017 59.5949C77.6981 59.6287 77.6946 59.6625 77.6946 59.6964C77.6875 59.764 77.6839 59.8283 77.6804 59.8892C77.6733 59.9501 77.6875 60.011 77.6769 60.0652C77.6698 60.1227 77.6662 60.1768 77.6662 60.2276C77.6662 60.2276 77.6521 60.2005 77.6308 60.1633C77.606 60.1261 77.5883 60.0753 77.5529 60.0246C77.482 59.9264 77.4112 59.8283 77.4112 59.8283L77.475 59.8351C77.4218 59.8013 77.3829 59.7437 77.351 59.6761C77.3014 59.5847 77.2447 59.473 77.1916 59.3783C77.0853 59.1821 76.9861 59.0332 76.8657 59.1246C76.9932 59.2227 77.0782 59.3343 77.1455 59.4494C77.2057 59.561 77.2695 59.7065 77.2731 59.7843C77.2872 59.8757 77.3049 59.9704 77.3474 60.0686C77.3687 60.1667 77.4041 60.2682 77.4891 60.3832L77.4254 60.3697C77.4714 60.4644 77.4785 60.5456 77.4962 60.6336C77.5033 60.7148 77.475 60.7757 77.4643 60.8467C77.4643 60.8806 77.436 60.9043 77.4218 60.9279C77.4041 60.955 77.3899 60.9787 77.3722 61.0024C77.3616 61.0294 77.3404 61.0464 77.3156 61.0633C77.2943 61.0836 77.2766 61.0971 77.2589 61.114C77.1066 61.2527 77.0145 61.3373 77.142 61.7467C77.181 61.6892 77.2872 61.6554 77.4112 61.6452C77.5175 61.6351 77.6308 61.6452 77.6698 61.7197C77.6379 61.7264 77.6131 61.74 77.5848 61.7569C77.5529 61.7704 77.5175 61.7907 77.4856 61.811C77.4218 61.8516 77.3722 61.9091 77.2943 61.9531C77.2235 61.9971 77.1668 62.0411 77.1101 62.058C77.0463 62.0749 76.9968 62.0715 76.9649 62.0309C76.9649 62.0309 76.9897 61.987 77.0145 61.9464C77.0286 61.9024 77.0463 61.8584 77.0463 61.8584C76.6709 62.1663 76.2812 62.3456 76.1218 62.5283C76.1076 62.6805 76.1643 62.7753 76.182 62.8768C76.1891 62.9275 76.1891 62.9817 76.1572 63.046C76.1289 63.1136 76.0687 63.1847 75.9553 63.2794C75.6294 63.4046 75.463 63.4046 75.4134 63.3606C75.3602 63.3133 75.4063 63.2084 75.4629 63.1001C75.5232 62.9952 75.5763 62.8768 75.5657 62.8024C75.5515 62.7245 75.4842 62.6941 75.254 62.7347C75.254 62.7347 75.1902 62.7787 75.0946 62.8497C75.0024 62.9208 74.8572 63.0087 74.7226 63.1001C74.588 63.1948 74.4321 63.276 74.3223 63.3403C74.209 63.408 74.1311 63.4486 74.1311 63.4486L73.7662 63.3268C72.746 63.5197 71.8321 63.8411 70.8651 64.1422C70.6242 64.2166 70.3798 64.2911 70.1318 64.3587C70.0114 64.3892 69.891 64.4196 69.767 64.4535L69.6784 64.4738C69.6501 64.4805 69.6182 64.4873 69.6111 64.4907C69.597 64.5009 69.5863 64.511 69.5721 64.5178L69.5615 64.5245H69.5049L69.388 64.5414C69.31 64.5482 69.2321 64.555 69.1506 64.5651C68.9948 64.5787 68.8354 64.5888 68.6724 64.599C68.3465 64.6193 68.0135 64.6294 67.6699 64.6294C67.6487 64.4366 68.1375 64.3046 68.7149 64.2133C68.8602 64.1896 69.0089 64.1727 69.1577 64.1524C69.2321 64.1456 69.3065 64.1388 69.3809 64.1287C69.4163 64.1287 69.4553 64.1219 69.4871 64.1185L69.5403 64.1118H69.558C69.558 64.1118 69.5686 64.0982 69.5686 64.0915C69.5686 64.0915 69.5722 64.0881 69.5863 64.0813C69.6111 64.0813 69.6324 64.0745 69.6536 64.0712C69.7493 64.0576 69.8307 64.0441 69.898 64.0339C69.8059 64.0035 69.7138 63.9798 69.6253 63.9663C69.6076 63.9629 69.5722 63.9629 69.5686 63.9595C69.558 63.9595 69.5615 63.9527 69.558 63.9493C69.558 63.946 69.558 63.9392 69.5544 63.9392C69.5544 63.9392 69.5615 63.9392 69.5509 63.9392H69.4057C69.3419 63.9392 69.2746 63.9426 69.2073 63.946C69.0727 63.9527 68.9346 63.9629 68.7964 63.973C68.2367 64.017 67.6416 64.0745 67.0678 63.9561C66.0016 63.902 65.1974 64.2403 65.3675 64.4535C64.0533 64.5888 64.4323 64.2302 64.2623 64.1625C63.8372 64.5787 62.1794 64.4332 61.1168 64.5245L61.0707 64.2911L59.4165 64.582C59.8415 64.6057 59.459 64.8189 59.459 64.9644L59.0374 64.9441C60.6563 65.5869 62.6931 64.4941 64.3508 65.2249C63.8408 65.3163 64.5244 65.4381 64.0108 65.5294C63.5893 65.5057 63.5043 65.4719 63.4582 65.3805C63.2032 65.5734 62.523 65.7426 63.4192 65.729C63.3767 66.223 61.5914 66.1012 60.3587 66.2704C59.3775 65.9557 61.3789 65.7933 61.8854 65.5599C61.4179 65.5937 61.0317 65.8102 60.3516 65.685L60.5181 65.3129C58.8178 65.5159 60.0576 65.6377 59.6715 65.9997C59.211 66.4734 58.1413 65.9794 57.6737 66.0133L58.1802 65.9219C56.8625 65.7629 56.565 66.1587 55.3783 66.1283L54.8222 65.8339C56.317 66.2061 56.6464 65.3163 57.5001 65.5091C55.3287 65.1606 57.9677 64.7445 58.6478 64.4264C57.7091 64.4941 56.8625 64.4501 56.3489 64.2471C54.9886 64.7309 53.4973 64.0678 52.1832 64.6429C51.4605 64.5753 52.8172 64.3824 52.0556 64.3723C50.6494 64.3283 49.1616 64.396 47.6739 64.6091C46.9087 64.5956 47.0362 64.4298 46.8237 64.2708C43.122 64.0475 41.6803 64.9373 37.6386 64.7242L38.2337 64.5211C37.3871 64.4772 36.6609 64.4061 36.2394 64.6802C35.1697 64.0373 32.6228 65.076 31.2625 64.3858C29.4772 64.2606 29.3922 64.8155 27.9859 64.917C27.9859 64.7682 28.4145 64.4975 27.6884 64.4298C23.0976 64.6565 18.9709 64.7038 13.9125 64.8189C13.955 64.7647 14.21 64.7174 14.3376 64.6971C11.0645 64.643 7.83397 65.2621 5.11351 65.0591C4.60342 65.1505 3.07316 65.2757 3.54074 65.5362C4.17481 65.57 4.26336 65.8948 4.22085 66.0978C3.61512 66.1689 3.23611 66.1756 2.98815 66.1452C2.86417 66.1283 2.76852 66.108 2.69413 66.0775C2.65517 66.064 2.62684 66.0471 2.59496 66.0302C2.58079 66.02 2.56663 66.0132 2.55246 66.0065C2.54537 65.9997 2.53829 65.9896 2.5312 65.9828C2.47807 65.9084 2.44264 65.8339 2.3718 65.7798C2.33992 65.7527 2.29387 65.7392 2.24074 65.7155C2.18406 65.6851 2.11321 65.6647 2.01757 65.6478C1.99278 65.5091 2.01756 65.4313 2.07069 65.3839C2.12028 65.3365 2.18404 65.3095 2.24781 65.2926C2.27969 65.279 2.31157 65.2756 2.34345 65.2587C2.37533 65.2384 2.40367 65.2148 2.42846 65.1877C2.4816 65.1336 2.50993 65.0625 2.51348 64.9542C2.51348 64.9542 2.47097 64.9745 2.40721 65.005C2.37179 65.0253 2.33284 65.0253 2.29033 65.032C2.24428 65.0354 2.2053 65.049 2.138 65.0456H2.11322L2.07069 65.0388L1.98568 65.0253C1.92901 65.0185 1.87234 65.0084 1.81921 65.0016C1.71294 64.9813 1.6173 64.9644 1.53583 64.9475C1.45081 64.9339 1.38351 64.917 1.33746 64.9069C1.29141 64.8967 1.26307 64.8899 1.26307 64.8899C0.852163 64.626 0.455419 64.4366 0.122445 64.22C-0.206986 64.0069 -0.462027 63.7531 -0.539957 63.4452C-0.483281 63.5704 -0.391166 63.5264 -0.302609 63.5129C-0.25656 63.5061 -0.214058 63.5027 -0.175093 63.5332C-0.132586 63.5602 -0.0900841 63.6144 -0.0475769 63.726C-0.11488 63.6956 -0.104244 63.7497 -0.171547 63.7159C0.00556612 63.9054 0.157887 64.0136 0.274782 64.0712C0.395219 64.1287 0.476672 64.1456 0.565228 64.149C0.653786 64.1524 0.728179 64.1591 0.859242 64.1794C0.923004 64.1896 0.993855 64.2099 1.08595 64.2369C1.12846 64.2471 1.17451 64.2606 1.22056 64.2775C1.16389 64.2572 1.11074 64.2369 1.05406 64.22C0.937168 64.1693 0.806119 64.1219 0.692767 64.061C0.455435 63.9493 0.242891 63.8174 0.0657783 63.6753C-0.288448 63.3945 -0.511621 63.0629 -0.586009 62.7448C-0.653311 62.8091 -0.706442 62.8159 -0.759576 62.7854C-0.784372 62.7685 -0.809172 62.7448 -0.830426 62.711C-0.851679 62.6772 -0.872931 62.6366 -0.894184 62.5926C-0.975656 62.4166 -1.0394 62.1764 -1.16338 62.0783L-1.13506 62.0208C-1.21299 62.0343 -1.29446 61.9125 -1.36177 61.7603C-1.42553 61.6046 -1.46801 61.4151 -1.49635 61.3272C-1.49635 61.3272 -1.38302 61.2697 -1.26966 61.2122C-1.15631 61.158 -1.04295 61.1039 -1.04295 61.1039C-1.07838 60.6945 -1.2732 61.2155 -1.30508 60.7926C-1.3157 60.6404 -1.3157 60.3866 -1.27673 60.0787C-1.23423 59.7742 -1.15631 59.4155 -1.04295 59.0772C-0.816248 58.3971 -0.46203 57.7983 -0.210529 57.8016C0.079937 57.0099 -0.0475674 56.6716 0.427096 55.8832C0.497942 55.9983 0.441249 56.2114 0.476672 56.2656C0.7388 55.8122 1.01866 55.325 1.31621 54.8377C1.46853 54.5941 1.62437 54.3472 1.78377 54.1103L2.02466 53.7584C2.12385 53.6197 2.22302 53.4844 2.3222 53.3457C2.35408 53.3051 2.38242 53.2611 2.41076 53.2171C2.49223 53.0885 2.57016 52.9667 2.65163 52.8415C2.72602 52.7299 2.79686 52.6216 2.8677 52.5133C3.01294 52.2968 3.15464 52.0836 3.30342 51.8772C3.59388 51.4611 3.88434 51.072 4.18189 50.7167C4.9789 49.2415 5.68736 47.993 5.99908 46.9442C5.78654 47.34 4.98954 48.3991 5.20916 47.5735C5.29063 47.0998 5.72633 46.5483 6.03097 45.919C6.14432 46.1728 7.17512 44.542 6.56231 45.7972C7.18929 45.76 8.10319 43.219 8.52826 43.4931C8.57077 43.1412 9.72555 41.5205 9.89912 40.7627C10.179 40.739 9.4457 41.7371 9.58031 41.8149L10.0125 41.0232L10.14 41.101C11.192 39.7172 10.8378 39.1352 11.3196 38.2251L11.3479 38.2894L11.6596 37.6634L11.5604 38.5566C12.1166 37.5991 12.1201 36.936 12.7294 35.8634L12.9065 35.8262L13.197 35.1326C13.1474 35.251 13.1757 35.3153 13.2466 35.2646C13.3032 34.483 14.3163 33.2244 14.4013 32.5104C14.7237 32.1315 15.3648 32.0334 15.4463 31.3195L15.7864 31.6714C14.9256 33.0653 15.1558 32.0029 14.3517 33.5323C15.5809 32.7879 17.5044 29.7868 18.8079 27.7939C19.6191 26.0345 21.8472 23.7034 21.7161 22.6511L21.8436 22.9725L23.9088 20.4519C25.3895 18.141 27.2279 15.9756 28.1418 14.0775L28.6838 13.7527C28.9919 12.6564 30.0263 11.1373 31.0146 9.70271C32.0029 8.26475 32.9416 6.91136 33.0089 6.07227C33.9653 5.26701 33.0691 6.5764 33.1328 6.77603C33.7598 6.12979 34.2345 4.59371 35.1413 4.23506C35.2582 4.32641 34.4258 5.26363 34.8721 4.89484C35.1909 4.73581 35.2936 4.52604 35.3999 4.30273C35.5097 4.07943 35.6301 3.85612 35.995 3.69033C35.5558 3.74108 36.2996 2.42155 37.0329 1.64336C36.8806 1.77193 36.8806 1.77192 36.7991 1.80576C36.6609 1.78546 36.7424 1.64335 36.9018 1.46741C37.0541 1.29147 37.2808 1.07833 37.4332 0.926071C37.4332 0.926071 37.4438 0.990349 37.3729 1.08847C37.8441 0.591104 38.3471 0.117429 38.8607 -0.258132C38.9882 -0.349485 39.1122 -0.427321 39.2433 -0.508524C39.3779 -0.572809 39.5089 -0.657383 39.6506 -0.708135C39.9305 -0.836706 40.2351 -0.911151 40.5468 -0.972053C41.1773 -1.07694 41.8645 -1.05664 42.5624 -0.911154C43.2566 -0.772433 43.9616 -0.528809 44.6381 -0.217533C46.0055 0.408403 47.2948 1.27456 48.4886 2.23207C49.6823 3.19297 50.784 4.2486 51.8006 5.34145C51.8006 5.34145 51.5668 5.18582 51.3295 5.03018C51.0921 4.87793 50.8584 4.72566 50.8584 4.72566C51.5987 5.19258 52.5834 6.34972 52.8704 6.7422L52.7676 6.66775C53.1467 7.38843 53.5328 7.64557 53.8834 7.87903C54.2306 8.11249 54.5423 8.31888 54.7478 8.94143L54.5494 8.78918C55.8282 10.2238 56.1611 11.391 57.5249 12.7038C58.074 13.6106 58.074 13.8711 58.1979 14.2906C58.1625 14.3042 58.1306 14.3109 58.1058 14.3008C57.9677 14.1756 57.826 14.0504 57.9429 13.932C57.8295 14.0504 57.6418 13.9185 57.4859 13.8576C57.5993 14.003 57.4257 13.9794 57.3513 13.9963L57.2238 13.7188C57.4859 13.8373 57.2557 13.57 57.3761 13.5192C57.5426 13.4279 57.6347 13.5937 57.7445 13.6952C57.6772 13.2959 57.3124 13.6004 57.1848 13.3433C57.2273 13.2824 57.2982 13.2248 57.3797 13.2993C57.3726 13.235 57.1034 13.2891 57.0113 13.1267C57.0184 13.1944 57.0113 13.367 56.8306 13.323L56.7527 13.0523C56.5614 12.8764 56.5649 13.1606 56.3347 13.1098L56.3772 13.2925C56.2638 13.4109 56.1363 13.1301 56.0265 13.2722C56.1328 13.3534 56.278 13.2824 56.363 13.4008C56.3064 13.57 56.1611 13.3771 56.0407 13.4076C55.8423 13.1842 55.8955 13.2147 55.7963 12.9846C55.9486 12.7647 56.2887 12.9136 56.4551 12.6057C56.193 12.4873 55.8034 12.3316 55.7113 12.1455C55.4527 12.0711 55.3464 12.2538 55.2897 12.3993C55.1835 12.3655 55.1587 12.3181 55.1268 12.247H55.2756C54.9674 12.1422 54.7619 12.1151 54.4927 11.929C54.3121 11.8647 54.2802 12.0339 54.2412 12.1625L54.057 12.0745L54.0641 12.1185C53.926 12.2301 53.8126 12.088 53.7028 12.0102C53.7453 11.9493 53.8232 11.9798 53.8445 11.9392C53.7807 11.8241 53.6213 11.7395 53.5009 11.7463C53.5434 11.6854 53.7099 11.5974 53.7949 11.7192C53.7949 11.7395 53.7736 11.7598 53.7772 11.7801L54.0322 11.8343C53.7488 11.7564 53.724 11.5128 53.8374 11.3741C53.554 11.2963 53.9153 11.6448 53.6001 11.5196C53.4478 11.0019 52.8633 11.1474 52.9589 10.6129C52.7322 10.5858 52.4311 10.5925 52.1655 10.4301C52.0769 10.5486 51.96 10.3625 51.875 10.5249C52.0061 10.8463 52.5091 10.6027 52.5445 10.9546C52.6968 10.9715 52.7322 10.8463 52.8314 10.8159C52.9377 10.8734 53.0191 10.9478 52.9766 11.029C52.6932 10.9512 52.7039 11.2794 52.4099 11.0933C52.3709 11.2185 52.633 11.3403 52.7181 11.435C52.6472 11.4689 52.6295 11.5534 52.6649 11.6448C52.5197 11.6922 52.293 11.6651 52.1442 11.6922C52.215 11.6549 52.1832 11.5873 52.2328 11.5704L51.8041 11.5399C51.7652 11.4046 51.8041 11.2997 51.9033 11.2692C51.7616 11.1203 51.3614 11.0933 51.4924 10.914C51.2551 10.7955 51.4818 11.0628 51.4641 11.1271H51.4393L51.6766 11.2625C51.5491 11.4858 51.4535 11.0392 51.2728 11.2117C50.9575 11.567 51.039 10.8767 50.8336 10.8294L51.2161 10.6805L51.0107 10.6332C51.1807 10.5892 51.3118 10.4098 51.5349 10.3929C51.3188 10.2373 51.0638 9.94292 50.8832 9.89893C50.8973 9.76698 50.9327 9.66548 51.0248 9.58766C50.6777 9.61135 50.7415 9.26961 50.5537 9.13766C50.2774 9.10382 50.6564 9.41173 50.412 9.44895C50.4014 9.3373 50.2491 9.32037 50.1747 9.31022C50.2739 9.30007 50.4226 9.53692 50.536 9.68241C50.4262 9.6012 50.3412 9.7433 50.2703 9.78052L50.4333 9.93278C50.2987 10.0918 50.1959 9.79405 50.0472 9.82112C50.2101 9.70947 50.1853 9.68579 50.3483 9.57413C50.1428 9.52677 49.9019 9.36435 49.8346 9.18503C49.7992 9.06999 49.9586 9.15797 50.0295 9.14443C50.0684 9.01925 49.824 9.09706 49.8842 8.95157C49.9763 8.87714 49.987 9.0091 50.0649 9.01925L49.6292 8.6606C49.6717 8.5997 49.8028 8.66059 49.8594 8.73164C49.7673 8.56924 49.6398 8.52865 49.3246 8.62339C49.2077 8.4576 49.0872 8.24444 49.2041 8.19369C49.1014 8.18015 49.112 8.26813 49.066 8.32903C48.8747 8.15309 48.694 8.34931 48.563 8.26811L48.5807 8.44406C48.4567 8.1903 48.3965 8.59632 48.276 8.38316C48.3894 8.28842 48.478 8.14632 48.5382 8.00083C48.4213 8.09556 48.3788 7.91625 48.3008 7.86212C48.2654 8.01099 48.0493 7.85195 48.0954 8.05495C47.8404 8.0245 47.8722 7.80796 47.6278 7.86548C47.688 7.96022 47.3798 7.87903 47.394 8.01099C47.2063 7.89933 47.185 7.67941 47.3267 7.58806C47.3834 7.63881 47.4471 7.75721 47.5074 7.65571L47.1638 7.45949C47.1284 7.34445 47.0433 7.2497 47.1283 7.1076C46.9123 7.1888 46.8981 6.79632 46.6856 6.92151C46.8804 6.88091 46.852 7.09408 46.8804 7.14144L46.8131 7.13467C46.8131 7.13467 46.8273 7.14821 46.8344 7.15836L46.5226 7.29368C46.5899 7.47639 46.6572 7.15834 46.8485 7.29368C46.8556 7.62187 46.2321 7.36812 46.3065 7.6185C46.3951 7.7809 46.5262 7.5576 46.6997 7.5576L46.6714 7.53391L47.0044 7.6185C46.9619 7.6997 46.8379 7.70647 46.8379 7.70647C47.1602 7.91963 47.1248 8.06851 47.4507 8.32903C47.4472 8.28505 47.5428 8.01097 47.7234 8.07864C47.8722 8.09556 47.7908 8.23767 47.8722 8.31549C47.7943 8.30534 47.6561 8.3967 47.642 8.26475L47.5322 8.42715C47.1319 8.44406 47.1602 8.68428 46.767 8.50834C46.6679 8.61323 46.3668 8.50158 46.2003 8.33917L46.218 8.50496C45.8744 8.57263 46.2995 8.31887 45.924 8.31887C45.97 8.04143 45.9559 7.66924 46.2251 7.59142C46.0834 7.42225 45.9381 7.48992 45.7787 7.38165C45.8071 7.14481 45.9629 7.2294 46.0692 7.0467C45.9346 6.98918 45.7362 6.96212 45.7539 7.11776L45.5804 6.90121C45.6016 6.86061 45.6831 6.91474 45.7079 6.93842C45.6477 6.84369 45.421 6.81664 45.3253 6.84709C45.3501 6.84709 45.4281 6.86061 45.4316 6.9046C45.3041 6.89106 45.0774 6.86061 45.0313 6.89783C45.2297 6.90121 45.0986 7.10421 45.3253 7.0873C45.2793 7.12451 45.1872 7.20233 45.1305 7.1279C45.173 7.30722 45.3041 7.36813 45.2687 7.517C45.2297 7.36475 45.0774 7.44595 45.0419 7.45271C45.1057 7.54407 45.3076 7.63204 45.4033 7.62189C45.2793 7.81474 45.7292 7.81813 45.5414 7.9264C45.6158 7.9061 45.7185 7.98052 45.7504 8.05834C45.6831 8.13616 45.4741 8.06851 45.3324 8.11587C44.918 7.97715 45.4422 7.97715 45.4068 7.86212L45.134 7.6997C45.1376 7.74368 44.9286 7.76398 45.1092 7.86887C44.9392 7.93654 44.7125 7.90609 44.6452 7.72677C44.5708 7.76061 44.6771 7.81813 44.7054 7.84182C44.6346 7.87565 44.3193 7.97038 44.5106 8.14631C44.4539 8.09556 44.6842 8.12602 44.6204 7.9873C44.7232 8.02114 44.8967 8.26136 44.7267 8.30535C44.8542 8.34256 45.1093 8.3967 45.212 8.43392C45.173 8.53881 45.1093 8.42038 45.0349 8.43392L45.3749 8.58616L45.3572 8.43053C45.5308 8.64707 45.839 8.51172 46.0692 8.56247C45.9311 8.69781 45.7752 8.61323 45.6016 8.61323C45.5768 8.87037 45.7433 8.56586 45.9098 8.71812C45.9133 8.7621 45.8956 8.8027 45.8496 8.83991L46.094 8.80609C46.1223 8.85346 46.0763 8.86699 46.0515 8.86699C46.427 8.86699 46.2038 8.64368 46.597 8.8027C46.4518 8.58616 46.3455 8.79256 46.1826 8.66399C46.1649 8.48805 46.5262 8.59631 46.6218 8.56586C46.7599 8.71473 46.6112 8.95834 46.9123 8.97187C46.7104 8.94481 46.8025 9.1106 46.5864 8.97526C46.4128 8.97526 46.597 9.08692 46.558 9.18842C46.6324 9.19857 46.6395 9.00233 46.7777 9.12752L46.7564 9.14782H47.1283C47.3055 9.39143 47.7978 9.32037 47.8226 9.60796L47.9041 9.42188C48.0635 9.50646 48.276 9.6418 48.4071 9.67902C48.315 9.75684 48.2087 9.6993 48.0812 9.66209C48.3292 9.86509 48.6338 9.92599 48.9066 9.91584C48.8605 9.71284 48.8357 9.70947 48.7684 9.55045C49.1085 9.4388 48.8711 9.8245 49.1758 9.86172C49.066 10.0241 49.0093 9.94969 48.9526 10.1392C49.1226 10.0952 49.2608 10.2204 49.4344 10.2001C49.3777 10.3895 49.1864 10.4538 48.9491 10.3151C48.8747 10.0647 48.5098 10.173 48.4638 9.94969L48.4779 10.1053C48.2725 10.0343 48.1875 9.93955 47.9856 9.91248L48.0068 9.89218L47.8191 9.99706L47.9006 10.0512C47.7801 10.1019 47.5109 10.1358 47.4578 10.1053C47.7234 10.2474 47.9218 10.0106 48.1414 9.94969C48.3575 10.1087 48.2406 10.4403 48.485 10.4064C48.4425 10.491 48.5098 10.6501 48.3611 10.6535C48.2052 10.6129 48.191 10.4572 48.0989 10.5553C48.2335 10.6365 48.1379 10.6704 48.3469 10.782C48.485 10.667 48.7295 10.6298 48.9526 10.6162C49.1545 10.6399 49.3423 10.7752 49.4308 10.8937C49.2714 10.8091 49.0235 10.8463 48.988 10.9715C49.1793 10.8869 49.1935 11.2828 49.2962 11.0527C49.4592 11.1813 49.7532 11.3707 49.6469 11.5534C49.4379 11.5095 49.3529 11.2963 49.1899 11.2422C49.2218 11.2692 49.2325 11.3403 49.1793 11.364L48.988 11.2083C49.0801 11.3944 49.0093 11.4316 49.2218 11.5433C49.2218 11.5196 49.2147 11.4756 49.2395 11.4824C49.2927 11.5094 49.3494 11.5602 49.4025 11.5873L49.2927 11.7497C49.4946 11.7734 49.6363 12.1625 49.9905 12.2267L49.9445 12.2437C50.1357 12.4196 50.3802 12.1218 50.6423 12.2437C50.5183 12.2707 50.5041 12.3587 50.4616 12.4399C50.6352 12.4399 50.6033 12.6091 50.6919 12.7309C50.6246 12.5482 50.9044 12.626 50.8442 12.511C50.954 12.3486 51.1949 12.5109 51.3047 12.6091C51.2303 12.8628 50.8406 12.4636 50.8761 12.7952C50.9859 12.8967 51.0992 12.8019 51.039 12.7072C51.1772 12.8324 51.3968 13.0151 51.4145 13.2113C51.712 13.1809 51.7262 13.3128 51.9883 13.1944C51.8856 13.1369 51.7758 13.2756 51.705 13.1166L51.9494 13.0591C52.1336 13.1673 52.1832 13.394 52.293 13.4921L52.1159 13.4718L52.1407 13.4515C52.045 13.482 51.9033 13.3365 51.8396 13.4583C52.0592 13.3974 52.0521 13.5936 52.2788 13.6004L52.2576 13.6207C52.6118 13.685 52.5622 14.1621 52.9448 13.9861C52.8916 13.9591 52.8739 13.7831 52.9448 13.7459C52.9554 13.8576 53.1396 13.9455 53.0723 14.0233L52.9979 14.0132C53.136 14.1384 53.2175 14.2128 53.2954 14.2264C53.4123 14.1519 53.4265 14.0436 53.5788 14.0606C53.8055 14.3075 53.2954 14.2264 53.4194 14.4361L53.7488 14.497L53.7382 14.6256C54.0464 14.9707 54.5636 14.8591 54.9638 15.123C54.8576 15.282 54.5211 15.1568 54.4112 15.0993C54.436 15.3192 54.7513 15.2481 54.847 15.4579C54.9851 15.5865 55.2047 15.5222 55.2437 15.4173C55.4739 15.4884 55.3145 15.6 55.3181 15.644C55.5058 15.5155 55.7042 15.7354 55.8848 15.7996L55.8211 15.9011L56.1505 15.9418C56.0974 15.891 56.2143 15.8402 56.2603 15.7793L56.317 15.8301C56.2709 15.4072 55.651 15.6609 55.6262 15.2008C55.729 15.2143 55.6652 15.0959 55.7679 15.1094C55.8246 15.1602 55.8246 15.1805 55.8069 15.2245C55.899 15.1703 56.0513 15.1636 55.9167 15.0857C56.0726 14.8861 56.2957 15.1094 56.526 15.1568C56.5756 15.3801 56.2355 15.2549 56.0903 15.3023C56.1682 15.3327 56.2887 15.282 56.3524 15.397L56.2178 15.5324C56.526 15.6136 56.3843 15.4444 56.5472 15.3327C56.7562 15.1839 56.7633 15.4884 56.8413 15.5188L56.7385 15.5053C56.8838 15.6981 57.0467 15.5628 57.2096 15.6914L57.2026 15.8673C57.0963 15.5696 56.7846 15.9045 56.7137 15.7455C56.9263 16.1008 56.4197 16.0162 56.2249 16.0805C56.3843 16.1414 56.4941 16.2429 56.5083 16.3748C56.8519 16.3072 56.8731 16.7233 57.2344 16.6117C57.3195 16.7098 57.0644 16.659 57.1707 16.7369C57.362 16.8891 57.5993 17.0042 57.8827 17.0617C57.9925 17.1395 57.9216 17.197 57.9075 17.2816C58.3821 17.7316 58.8603 17.5015 59.3881 17.9786L59.2394 18.0057C59.3492 18.1072 59.4377 18.2053 59.583 18.1342C59.5511 18.503 60.2312 18.3169 60.2347 18.7297C60.465 18.953 60.6386 18.7297 60.883 18.8244C60.8405 18.8853 60.6952 18.9564 60.7873 19.0545C60.9857 19.1425 61.1593 19.2271 61.386 19.3387L61.4887 19.3895L61.5631 19.4267L61.6233 19.4571L61.6658 19.4774L61.7437 19.5079C61.7898 19.5248 61.8323 19.5384 61.8819 19.5519L61.9244 19.5654C62.0094 19.5891 62.098 19.606 62.1901 19.6162C62.3743 19.6365 62.5726 19.6263 62.7462 19.5891C62.8064 19.5722 62.771 19.5925 63.0119 19.5079C63.1961 19.4335 63.4724 19.288 63.7097 18.9835C63.8266 18.8346 63.9187 18.6485 63.9718 18.4624C64.025 18.2763 64.0356 18.097 64.025 17.9414C64.0108 17.7857 63.9789 17.6572 63.9435 17.5557C63.9116 17.4575 63.8585 17.3594 63.8372 17.3188V17.3121C64.319 17.0684 64.1737 17.1429 63.8266 17.3154L63.8372 17.3324V17.3425V17.3357L63.8266 17.3256V17.3154C63.274 17.5895 62.2432 18.1038 62.4309 18.009L62.4416 18.0023L62.4593 17.9887L62.4912 17.9617C62.6824 17.8094 62.8808 17.6741 63.0933 17.559C63.3059 17.4406 63.529 17.3425 63.7557 17.2613L63.777 17.2545H63.7805C63.7628 17.2275 63.7522 17.2038 63.7345 17.1632C63.5857 16.8519 63.4369 16.4899 63.2705 16.1008C63.3023 16.1008 63.3378 16.1312 63.3555 16.1482C63.2031 15.6203 62.7214 15.1974 62.6754 14.7339C62.601 14.6662 62.4593 14.4395 62.3565 14.5545C62.3743 14.6628 62.2149 14.7237 62.1121 14.7474C61.8429 14.4023 62.2822 14.4835 62.1511 14.2399C62.3707 14.0809 62.3707 14.3549 62.5868 14.2873L62.3034 13.9591C62.3105 13.7222 62.1015 13.5531 62.1582 13.3331C62.1582 13.4211 62.353 13.3027 62.3034 13.4685C62.2857 13.4515 62.2751 13.4685 62.2538 13.4515C62.3318 13.7527 62.4168 13.6072 62.5514 13.8034C62.4132 13.5801 62.2609 13.2891 62.2397 13.0726C62.0873 13.1707 62.1086 12.917 61.9811 12.8865L61.9917 12.8696C61.9209 12.8899 61.8252 12.7681 61.7862 12.7343L61.9811 12.6158C61.9209 12.5279 61.8819 12.6767 61.8217 12.5854C61.726 12.467 61.5418 11.9831 61.7579 11.8816C61.6871 11.7226 61.5489 11.7125 61.5206 11.5298C61.5808 11.5298 61.6162 11.5636 61.6481 11.5602C61.5737 11.1847 61.3541 10.7583 61.3718 10.3794C61.223 10.1155 61.1132 9.8854 60.9078 9.75006C60.9503 9.82111 60.968 10.0546 60.8015 9.95646C60.6882 9.9091 60.6846 9.78052 60.6067 9.67563C60.7271 9.66887 60.6173 9.34743 60.7732 9.5572C60.9999 9.42525 60.5606 9.06662 60.805 8.99895C60.7129 8.96511 60.6492 8.62 60.4756 8.53542C60.5712 8.47452 60.6067 8.69443 60.6811 8.67074L60.596 8.52864L60.6704 8.50834C60.6386 8.20045 60.3233 8.23766 60.2241 8.07864H60.256L60.1781 7.97037L60.4189 8.05159C60.3304 7.87565 60.1249 7.83165 60.0187 7.63541L60.0753 7.5982L59.9655 7.49331C59.9832 7.51023 60.0151 7.51023 60.0257 7.49331C59.8026 7.43241 59.7884 7.14145 59.5936 7.08054C59.5936 6.98919 59.8026 6.85384 59.6078 6.78955L59.8451 6.7422C59.962 7.00949 59.7176 6.89445 59.8947 7.15836C60.1249 6.85723 59.8947 6.2685 59.7459 5.87941C59.4909 5.60196 59.5652 4.99973 59.1791 4.96251L59.3315 4.95574L59.2748 4.37716C59.0693 3.93055 59.0233 3.42642 58.7187 3.13206L58.8072 3.00012C58.2971 2.75313 58.244 1.80915 57.6949 1.70764C57.7374 1.4708 57.8968 1.71778 57.9854 1.7144C57.9783 1.55199 57.5851 1.38622 57.7516 1.17983C57.826 1.15953 57.8898 1.37268 57.9039 1.26441C58.0031 1.11554 57.7197 1.14598 57.8295 0.97681C57.7056 1.07155 57.4612 0.865165 57.3726 0.689226C57.3726 0.714038 57.3702 0.732074 57.3655 0.743352C57.2663 0.80087 57.2451 0.658776 57.2026 0.58434C57.2026 0.58434 57.2309 0.584336 57.2486 0.601254C56.7633 -0.298741 56.3276 -1.37128 56.1399 -2.41338L56.2993 -2.25776C56.1753 -2.37956 56.1505 -2.65023 56.1505 -2.74158L56.1682 -2.72467C56.3028 -3.05625 55.8565 -2.96489 56.0442 -3.24571L56.0797 -3.21189C55.9698 -3.53331 56.147 -3.79383 55.9203 -4.07466C55.9238 -4.34872 56.0442 -4.3521 56.0903 -4.5551C56.0407 -4.69721 55.8813 -4.72427 55.8529 -4.72427L55.8636 -4.65323C55.7609 -4.5382 55.7077 -4.77165 55.6192 -4.85962C55.4385 -4.72428 55.1091 -4.67352 54.9957 -4.32503C55.1339 -4.13217 54.7336 -4.0239 54.8434 -3.79044C55.1587 -3.73292 54.7513 -3.38781 55.063 -3.23894C54.8399 -3.29984 55.0453 -2.94797 54.7832 -3.07993C54.6663 -2.94797 55.0914 -2.65701 54.9709 -2.4337C54.9213 -2.45062 54.8788 -2.43031 54.8434 -2.46414C55.0276 -2.25437 54.7655 -2.26113 54.8257 -2.08181L55.0134 -2.14271C55.0984 -2.09196 54.9674 -2.03106 55.0205 -1.98031C55.0276 -2.03445 55.0843 -2.16302 55.1799 -2.13257C55.2543 -2.06152 55.3358 -2.01077 55.3641 -1.9228C55.2897 -1.89911 55.2401 -1.95325 55.2012 -1.98708C55.2012 -1.98708 55.2437 -1.78745 55.1587 -1.74685C55.0737 -1.7976 55.0488 -1.88896 54.9178 -1.91602C54.9426 -1.64535 54.8611 -1.87881 54.7513 -1.70964C54.9638 -1.80776 54.9178 -1.51679 55.0134 -1.39498C54.9284 -1.35438 54.9532 -1.48295 54.8753 -1.49648C54.5636 -1.12092 55.0666 -1.12431 55.0914 -0.762282C55.063 -0.762282 55.0241 -0.796104 55.0063 -0.813021C55.1197 -0.670917 54.9426 -0.501746 55.1091 -0.434078C55.1162 -0.271673 54.8647 -0.332578 54.9461 -0.0991206C55.1551 -0.234458 54.9886 0.188483 55.2401 0.124198L55.1516 0.347496C55.3358 0.465916 55.5554 0.185081 55.6794 0.486207C55.6794 0.7941 55.2649 0.577559 55.187 0.780565L55.3429 0.811025L55.2933 0.97681L55.2756 0.959897C55.3464 1.02757 55.357 1.19335 55.2826 1.21365C55.2224 1.21704 55.1941 1.12569 55.1339 1.13246C55.3004 1.23396 54.9709 1.77531 55.3889 1.80914C55.3499 1.91065 55.4031 2.07644 55.2791 2.08997C55.4668 2.11704 55.3464 2.4723 55.4846 2.55012C55.4243 2.55012 55.3677 2.68206 55.4385 2.75311C55.4668 2.62454 55.5519 2.67531 55.6652 2.72267C55.5767 2.85463 55.7679 3.10161 55.5837 3.19973C55.7396 3.32153 55.86 3.22341 56.0159 3.21664C55.9309 3.3486 56.0513 3.64973 55.8069 3.66326C55.8069 3.57191 55.7927 3.37229 55.6546 3.45349C55.6227 3.63619 55.7396 3.50425 55.8034 3.62943C55.7573 3.62943 55.6936 3.758 55.6192 3.75123C55.6688 3.82228 55.7006 3.93056 55.6971 4.05236C55.7431 3.84936 55.8919 4.11326 55.9486 3.98469L55.7325 3.86628C55.6581 3.67004 55.8423 3.78846 55.8742 3.69711C56.0336 4.03545 56.2426 3.89672 56.4551 4.19785C56.4374 4.27228 56.4091 4.39748 56.4162 4.43469C56.3701 4.32642 56.1682 4.40761 56.147 4.48205C56.3843 4.614 56.1434 4.84747 56.1505 5.00649C56.1611 4.86101 56.3134 4.88807 56.3843 4.92191C56.611 5.20273 56.3453 5.07078 56.2922 5.23657C56.4728 5.71701 56.3028 6.10949 56.5685 6.45798L56.6996 6.21775L56.5012 6.20761C56.5933 6.02152 56.9121 6.11626 57.0573 6.16362C57.0006 6.20423 57.114 6.43429 56.9829 6.36662L57.1388 6.57978C57.2061 6.52226 57.1211 6.38017 57.2451 6.46476C57.2132 6.55949 57.2522 6.80986 57.0963 6.69144C57.1317 6.81663 57.2451 6.95534 57.3443 6.89783C57.4186 7.09406 57.1034 6.94519 57.0042 6.87753C57.0432 7.03655 56.8802 7.06362 56.8129 7.02978L56.905 7.24294C56.8413 7.20911 56.7669 7.23279 56.6996 7.19896C56.6818 7.33768 56.8519 7.39181 56.8271 7.51023C56.6535 7.33429 56.4516 7.14819 56.2391 6.95534C55.6617 6.42075 55.0418 5.84559 54.808 5.34484C54.9886 5.41589 55.0312 5.32791 55.2401 5.48016C54.0499 4.54972 54.7371 4.56664 53.9543 3.77492L53.6922 4.06928C53.299 3.85612 53.4052 3.57869 53.0793 3.35876C53.2635 3.60237 53.5824 4.17078 53.2246 4.04559C52.7924 3.75123 52.3957 3.54822 51.9919 3.17266C52.0946 3.061 52.424 3.27756 52.6472 3.42305C52.6472 3.42305 52.4382 3.20989 52.2328 2.97643C52.0273 2.74298 51.8289 2.48921 51.8608 2.39447C52.2682 2.59409 52.6755 2.97305 53.1112 3.08471C52.0344 1.91404 53.1112 2.90875 52.7641 2.16101C52.6012 2.63131 51.6022 1.36253 50.8477 0.882084C50.9009 0.689229 51.3578 1.23396 51.6129 1.27794C51.2551 0.438848 50.7273 0.0565248 50.1039 -0.281819C49.4698 -0.620162 48.7436 -0.921304 47.8403 -1.58784C47.9147 -1.61153 48.1698 -1.49985 48.3008 -1.44234C47.8226 -1.68256 47.472 -1.97692 47.139 -2.23068C46.806 -2.48444 46.4907 -2.69421 46.1011 -2.7382C45.6371 -3.00887 45.637 -3.13406 45.5733 -3.29309C45.5414 -3.37091 45.4918 -3.45548 45.3395 -3.55698C45.1907 -3.65849 44.9498 -3.78707 44.5141 -3.92917C44.5992 -3.77692 44.5177 -3.74986 44.3477 -3.78708C44.1741 -3.81753 43.9013 -3.91563 43.6038 -4.00021C43.0087 -4.18292 42.2648 -4.29119 42.2117 -4.0442C42.2117 -4.0442 41.8539 -4.16602 41.4678 -4.2506C41.2765 -4.30136 41.0746 -4.32842 40.9223 -4.35549C40.77 -4.37917 40.6672 -4.39609 40.6672 -4.39609C39.9517 -4.19985 40.0899 -3.99683 40.0403 -3.81074C40.019 -3.716 39.9553 -3.62127 39.7427 -3.51977C39.6896 -3.49609 39.6258 -3.46903 39.5514 -3.44196C39.4806 -3.41151 39.3956 -3.37768 39.2999 -3.34046C39.2043 -3.31001 39.0945 -3.2694 38.9741 -3.22541C38.8536 -3.17805 38.719 -3.12729 38.5702 -3.06977C38.2904 -2.98857 38.0849 -2.91752 37.922 -2.88368C37.7661 -2.84646 37.6599 -2.82955 37.589 -2.8397C37.4438 -2.86 37.4403 -2.97842 37.465 -3.11714C37.5146 -3.38782 37.713 -3.76001 36.9656 -3.48933C36.9656 -3.48933 36.9408 -3.4555 36.9018 -3.40475C36.8841 -3.37768 36.8593 -3.34722 36.8381 -3.31677C36.8203 -3.28632 36.7991 -3.24909 36.7778 -3.21864C36.6999 -3.0833 36.622 -2.95136 36.622 -2.95136C36.622 -2.95136 36.5582 -2.9243 36.459 -2.87693C36.3563 -2.83295 36.2394 -2.77541 36.1225 -2.71451C36.0021 -2.65361 35.8852 -2.59609 35.7966 -2.54873C35.7081 -2.50474 35.6479 -2.4743 35.6479 -2.4743L35.7577 -2.58933C35.6408 -2.47767 35.5239 -2.35587 35.3822 -2.23407C35.244 -2.11565 35.0917 -1.99723 34.9642 -1.89573C34.6985 -1.6961 34.4647 -1.56076 34.4116 -1.61151C34.401 -1.75699 34.8615 -2.17316 34.8509 -2.31527C34.5746 -1.90587 33.7598 -1.40174 33.0585 -0.833321C32.6972 -0.549112 32.3677 -0.251378 32.1198 0.0463648C31.8753 0.344107 31.7124 0.648618 31.7053 0.93621C31.4822 1.08508 31.1988 1.35577 30.9544 1.55877C30.717 1.76516 30.5187 1.89712 30.4691 1.77193C30.423 2.32681 28.9069 3.45349 28.6554 4.10649C28.62 3.96777 28.0639 4.35687 27.8194 4.80686C28.3508 4.35348 28.1808 4.75949 28.0461 5.22979C27.4758 5.55122 26.6044 6.99595 26.1227 6.9655C25.7401 7.82489 26.1829 7.7234 26.2963 8.05159C25.7366 8.37978 24.642 9.90909 24.4578 9.38128C24.805 9.00572 25.5701 8.15985 25.184 8.1497C24.4578 8.81962 25.0352 8.55572 24.596 9.21549C24.5606 9.12076 24.0363 9.48615 24.015 9.28653C23.7742 9.68916 23.381 10.2136 22.917 10.7076C23.714 9.98691 22.7894 11.4283 23.3172 11.0256L23.636 10.0343C24.3445 9.04631 23.9973 9.97337 24.3693 9.66886C23.172 11.4316 23.8202 11.3606 22.8248 13.0929C22.5379 13.35 22.0385 13.817 21.9074 13.9827C22.2758 13.4312 21.8436 13.2959 21.5532 13.5598C21.1989 14.6628 20.1929 15.0553 19.5943 15.7557C20.1434 15.1669 20.1327 15.6575 20.0548 15.9519C19.1657 17.647 19.4845 16.4763 18.8398 17.0481C17.182 19.4808 15.6482 20.7226 14.5607 22.8237L15.5278 22.1132L15.425 21.609C16.1618 21.044 16.0414 22.1876 15.967 22.7256C15.7864 22.7628 15.0283 23.9943 15.1771 23.4056L14.5218 24.6541C14.7768 24.5661 15.2302 23.7778 15.0071 24.4139C14.6493 24.7353 13.7673 25.8891 14.0896 25.0195C13.6646 25.6285 13.2395 26.4812 13.5193 26.4642C12.8675 27.4691 13.1793 26.1124 13.3528 25.5879C12.8002 26.3627 12.5912 26.0921 12.6621 25.7977L11.9643 26.9176C12.0351 26.6233 11.9076 26.5454 11.9784 26.2511C11.3727 26.8973 11.3833 27.6315 10.7032 28.0849L10.7882 28.5247C9.23317 30.3856 9.33236 30.159 8.06777 32.0029L8.47512 31.8135C7.90127 33.4409 7.46911 32.6525 6.37101 34.6454C5.79008 35.789 5.42877 36.5367 5.83967 36.5841C5.55629 37.2777 5.2729 37.3014 4.97181 37.5112C4.8372 38.1033 4.49715 39.3348 3.80287 39.9811C4.0402 39.4025 4.22794 38.939 4.49007 38.4247C4.07916 38.3773 3.34237 40.0454 2.67643 40.7559C2.47098 41.4021 1.7023 43.4389 1.34099 44.6062C1.89358 44.3051 2.16634 44.701 1.85107 45.7566C1.73772 45.4995 0.873419 46.8562 0.334994 47.401C0.342079 46.9814 -1.0217 48.5243 -0.26365 47.154C0.0764079 46.8292 0.466065 46.8122 0.696312 46.2303C0.292494 46.4265 -0.472652 47.1303 -1.20236 47.8983C-1.26258 47.7731 -1.10317 47.2419 -0.816243 46.7886C-0.883546 47.0863 -0.73124 46.978 -0.628514 46.9916C0.154327 45.2559 -1.31215 47.0626 -1.4078 46.6837C-1.59908 47.1167 -2.15168 47.9119 -1.85767 47.763C-2.14814 47.9525 -2.38547 48.2705 -2.59092 48.6461C-2.70428 48.8491 -2.81054 49.069 -2.9168 49.2923L-3.07621 49.6273L-3.15415 49.793L-3.19311 49.8776C-3.19311 49.8776 -3.19666 49.8946 -3.19666 49.9013V49.9115C-3.19666 49.9115 -3.19311 49.9182 -3.19311 49.9216L-3.20727 49.9487L-3.23916 49.996C-3.28167 50.0569 -3.32062 50.1178 -3.35959 50.1787C-3.43752 50.2972 -3.51546 50.4088 -3.59339 50.5103C-3.75279 50.7201 -3.91573 50.896 -4.09284 51.0314C-4.07159 51.1024 -3.52963 50.6084 -3.86261 51.3866C-4.17078 51.928 -4.35852 52.1547 -4.52501 52.29C-4.69149 52.4254 -4.82964 52.4727 -5.00675 52.6724C-5.02446 52.872 -5.237 53.4066 -5.42474 53.8769C-5.61248 54.3438 -5.78605 54.7464 -5.78251 54.6483C-5.89232 55.0644 -5.66916 54.9088 -5.45308 54.8005C-5.23346 54.6956 -5.02799 54.6348 -5.14843 55.2066C-5.12718 55.6362 -5.29014 56.0625 -5.47433 56.5058C-5.66207 56.9524 -5.87105 57.4193 -5.94544 57.893C-6.09067 58.1535 -6.14737 58.2178 -6.16508 58.1501C-6.17925 58.0825 -6.15091 57.8862 -6.09423 57.646C-5.98796 57.1622 -5.76833 56.5125 -5.74707 56.2757C-5.74707 56.2757 -5.99503 57.037 -6.1686 57.8422C-6.25362 58.2415 -6.32801 58.6543 -6.37406 58.9689C-6.39532 59.1246 -6.41303 59.2565 -6.42366 59.3479C-6.43429 59.4426 -6.44137 59.4934 -6.44137 59.4934C-6.61139 59.9806 -6.68932 59.8588 -6.69994 59.4798C-6.71057 59.1043 -6.61848 58.4885 -6.46971 58.0182C-6.75663 58.634 -6.92311 59.4189 -6.92311 60.1125C-6.93019 60.8095 -6.79206 61.3982 -6.62557 61.608C-6.64682 62.0682 -6.60784 62.4302 -6.56534 62.7854C-6.5122 63.1441 -6.46616 63.496 -6.39177 63.9696C-6.50158 63.7531 -6.6114 63.6009 -6.71767 63.4723C-6.82748 63.3403 -6.94438 63.2287 -7.05065 63.1001C-7.16046 62.9715 -7.27379 62.8159 -7.36235 62.6095C-7.45799 62.3964 -7.53593 62.1257 -7.5749 61.7569C-7.5749 61.608 -7.5749 61.4794 -7.5749 61.3712C-7.57135 61.2629 -7.56073 61.1749 -7.55364 61.1073C-7.53593 60.9685 -7.51823 60.8907 -7.49343 60.8636C-7.44738 60.8061 -7.40132 60.9212 -7.34464 61.0497C-7.28796 61.1783 -7.23482 61.3137 -7.18523 61.2967C-7.1321 61.2832 -7.10376 61.1073 -7.05417 60.637L-7.37298 60.4543C-7.24546 60.0516 -7.21713 59.693 -7.19942 59.331C-7.18525 58.9655 -7.17462 58.6001 -7.09315 58.1907C-6.90187 57.7644 -7.00459 58.3125 -7.0223 58.6238C-6.87707 57.893 -6.65391 57.2806 -6.46971 56.7155C-6.28551 56.1505 -6.13672 55.6329 -6.1013 55.0814C-6.61847 55.8866 -7.00812 57.0404 -7.25254 58.14C-7.50758 59.2396 -7.59968 60.2851 -7.80513 60.7689C-7.80513 60.7689 -7.79097 61.0497 -7.74492 61.4794C-7.69887 61.9057 -7.59969 62.4945 -7.44029 63.0798C-7.28089 63.6685 -7.0648 64.2538 -6.8558 64.6869C-6.65035 65.1166 -6.48387 65.3941 -6.48387 65.3941C-6.41657 65.3636 -6.50158 64.9272 -6.48387 64.6565C-6.47679 64.5211 -6.44846 64.4298 -6.38115 64.4433C-6.31739 64.4569 -6.21819 64.5821 -6.034 64.8696C-6.11193 65.1911 -6.02693 65.7121 -5.74 66.3414C-5.45308 66.9707 -4.93945 67.6982 -4.23454 68.358C-4.29476 68.1617 -4.1637 68.1854 -3.94762 68.2937C-3.728 68.3986 -3.41628 68.5914 -3.1081 68.7504C-2.49175 69.0786 -1.91081 69.2986 -2.19419 68.9535C-2.59092 68.8384 -2.8318 68.6422 -2.96995 68.4662C-3.1081 68.2869 -3.1506 68.1414 -3.18602 68.0907C-2.50591 68.5745 -2.39965 68.4967 -2.3784 68.4087C-2.3536 68.3106 -2.40672 68.1719 -2.03478 68.3884C-1.43614 68.764 -1.1386 68.9196 -1.00399 69.0211C-0.87293 69.1125 -0.897717 69.1395 -0.929598 69.1632C-0.961478 69.1903 -0.993361 69.2174 -0.86584 69.3121C-0.738318 69.4102 -0.447851 69.5828 0.175588 69.8365C-0.121963 69.8331 -0.656842 69.7925 -1.32633 69.6538C-1.99582 69.505 -2.80345 69.2309 -3.58275 68.7606C-3.58984 68.8655 -3.22144 69.1362 -2.7822 69.4001C-2.56258 69.5388 -2.32171 69.6606 -2.10563 69.7959C-1.92498 69.9008 -1.7585 70.0023 -1.62744 70.1072C-1.93207 69.8501 -1.74077 69.8433 -1.5424 69.8534C-1.32987 69.867 -1.11381 69.8873 -1.45032 69.6843C-0.897729 69.8907 -0.320333 70.0632 0.260599 70.1783C0.427085 70.2155 0.636081 70.2628 0.83799 70.3034C1.04344 70.344 1.24534 70.3846 1.4508 70.4252L1.52519 70.4422C1.55353 70.4422 1.57832 70.4388 1.60666 70.4388L1.76606 70.4252C1.87233 70.4151 1.97861 70.4083 2.08488 70.3982C2.19114 70.3914 2.2974 70.3812 2.40367 70.3745L2.55953 70.361L2.65518 70.3474C3.66826 70.2087 4.73448 70.0835 5.81487 70.0361C5.47836 70.635 2.15927 70.4895 2.84293 71.2C3.90561 71.1087 3.90205 70.8177 4.75574 70.8617C5.47836 71.2203 7.26366 70.9057 8.71599 70.8922L8.07484 70.7128C8.62743 70.5673 9.64407 70.679 10.2888 70.7128L10.1223 70.7907L10.7528 70.679C10.852 70.6959 10.8732 70.7128 10.8732 70.7365C11.5675 70.5538 13.3422 70.7298 14.6705 70.6215C14.6705 70.3305 13.3528 70.608 12.7152 70.5775C12.5417 70.5098 11.3125 70.388 11.9076 70.185C13.5583 70.185 14.7095 69.8332 16.5798 69.8433L15.9883 69.7553C16.5798 69.5523 17.391 69.6538 18.2801 69.6403C19.8989 69.8399 17.0899 70.0463 18.0711 70.2155C17.4371 70.4726 16.3283 70.1816 16.1583 70.5538L17.1785 70.9598C18.0322 70.7095 18.9673 71.0816 19.566 71.0275L18.9248 70.8482C19.0523 70.5335 19.6439 70.7704 19.945 70.8143L19.5128 70.3542C18.5777 70.2764 17.9401 70.6824 17.2599 70.4117C18.9142 70.2628 18.5352 69.8907 20.533 69.8805C20.6216 70.0598 20.1469 69.9482 19.9414 70.0801C20.6216 70.2053 21.3406 69.8331 22.4458 69.9786C21.8118 70.0903 20.7916 70.273 21.5992 70.52L22.1908 70.1715C22.7009 70.229 22.4919 70.3643 22.7009 70.3745C23.427 70.4422 22.5379 70.0125 23.6821 70.1038C23.8521 70.1749 24.2347 70.2527 24.0682 70.3305C25.3859 70.344 24.7023 70.2189 25.935 70.0497C24.8333 70.0497 24.7873 69.5219 25.935 69.4643C27.5502 69.5219 28.6519 69.2275 29.7642 69.6674L30.4868 69.4407C30.0227 69.7689 31.5105 69.5557 32.0241 69.6065C32.1941 69.9685 29.5977 69.5963 29.5977 70.1816C30.6603 70.2392 30.1963 70.4219 29.8527 70.5741C31.004 70.52 30.2813 70.158 30.7879 69.9211C30.7879 70.0666 32.7467 69.9651 32.0666 70.2831C33.0443 70.3034 33.2143 69.9346 33.9369 70.0023C33.8271 70.1444 33.7032 70.3305 33.7705 70.5166C33.8555 70.3948 34.78 70.5471 34.9607 70.5538C34.7906 70.4861 35.3007 70.2493 34.4506 70.3508C34.6631 70.07 36.4484 70.3373 36.4024 70.1004C36.4909 70.4252 38.2337 70.1681 39.1264 70.3034C39.0378 69.5354 37.4721 70.5978 37.171 69.9651C38.3577 69.7046 41.1703 69.9414 43.0831 69.6031C44.7373 69.7486 43.0831 69.8941 43.4196 70.1783C41.8929 70.3034 41.5068 70.0768 40.1891 70.2155C41.6343 70.3474 44.0147 70.2696 45.0774 70.0328C46.6537 69.9989 46.8272 70.7974 48.7401 70.6046C48.485 70.361 48.524 70.3 47.9289 70.2087C48.439 70.1207 49.0376 70.2087 49.5867 70.2087C49.9232 70.0531 48.733 70.0192 49.4981 69.8839C49.7992 69.9279 50.4368 69.9617 50.3093 70.1309L50.1818 70.1546C52.0096 69.9279 51.5031 70.7534 53.0758 70.2798C52.9483 70.1546 52.6082 70.3136 52.2221 70.2324C51.9246 70.0395 52.8987 69.7722 53.6249 69.691C53.4938 69.8602 54.2625 69.7249 54.7726 69.779C55.1162 70.0598 53.4973 69.8602 53.2423 70.0497L54.6486 70.0937L54.351 70.0497L55.8777 69.779C54.8115 69.8704 55.3641 69.4305 55.8352 69.3967C56.8979 69.4542 57.9606 69.5083 57.8331 69.823C57.9606 69.505 59.2783 69.5185 60.2135 69.4508C59.1933 69.3392 60.086 69.1801 60.38 69.0786L61.9138 69.3933C60.2985 69.4846 62.2538 69.6741 61.8748 69.8907C61.4072 70.2155 60.4296 70.0497 59.5794 70.0057C61.2407 70.591 61.9173 69.691 63.3661 69.9685C63.3661 70.114 63.2386 70.2831 62.601 70.2527C62.856 70.3508 63.9187 69.9685 64.8964 70.1377C64.6413 70.0362 64.0887 69.7452 65.0593 69.62L66.3381 69.9786C67.8258 70.0564 66.8446 69.5963 68.0773 69.4271L67.2732 69.1768C67.3972 68.8621 68.9275 69.1768 68.97 68.8283C68.2048 68.8147 67.7798 69.0854 66.9757 68.9873C66.6746 68.6489 67.9958 68.8046 68.4563 68.6219C68.8708 68.6591 69.1612 68.6862 69.3809 68.7132C69.5013 68.7268 69.604 68.7403 69.6926 68.7504C69.7953 68.764 69.891 68.7674 69.976 68.7741C70.2771 68.8046 70.5179 68.8587 71.1839 68.9095C71.2477 69.17 70.734 69.4001 70.2204 69.6301C70.1531 69.6606 70.0964 69.6876 70.0149 69.7181C69.9299 69.7485 69.8449 69.779 69.7634 69.8061C69.7245 69.8196 69.682 69.8332 69.643 69.8433C69.6076 69.8568 69.558 69.8704 69.5403 69.8839C69.4942 69.911 69.4482 69.938 69.4092 69.9685C69.2498 70.0869 69.1719 70.2222 69.2356 70.3948C69.3384 70.388 69.4411 70.3812 69.5474 70.3745C69.6324 70.3711 69.7174 70.3677 69.8059 70.3643C69.8945 70.3576 69.9831 70.3474 70.0752 70.3373C70.2239 70.3204 70.3408 70.3034 70.4719 70.2831C70.5994 70.2628 70.7269 70.2425 70.8545 70.2256C71.3646 70.141 71.8817 70.0463 72.3776 69.9482C73.373 69.7587 74.2905 69.5523 74.8962 69.4948C75.6613 69.2072 75.9695 68.9467 76.0439 68.7538C76.1183 68.5576 75.9624 68.4189 75.803 68.3106C76.1041 68.1854 76.3308 68.0941 76.5398 68.0365C76.7488 67.9723 76.9365 67.9316 77.1526 67.8877C77.1526 67.8877 76.9932 67.9959 76.8373 68.1042C76.6744 68.2159 76.515 68.3174 76.515 68.3174C77.4218 67.8944 78.1055 67.4783 78.7856 67.0181C78.8706 66.9606 78.9556 66.9031 79.0406 66.8456C79.1257 66.7813 79.2107 66.7204 79.2957 66.6561C79.4692 66.5275 79.6428 66.4023 79.8199 66.2568C79.9971 66.1114 80.1848 65.9693 80.3725 65.7933C80.4646 65.7087 80.5638 65.6208 80.663 65.5328C80.7586 65.4414 80.8543 65.3365 80.957 65.235C81.1695 64.9948 81.2652 64.7986 81.3077 64.67C81.3502 64.5414 81.3289 64.4738 81.2758 64.4399C81.166 64.3757 80.9251 64.4501 80.7338 64.4805C80.7338 64.4805 80.7834 64.4163 80.8543 64.3181C80.9251 64.2166 81.0279 64.0948 81.1058 63.9493C81.1873 63.8106 81.2687 63.6685 81.3289 63.5636C81.3608 63.5095 81.3856 63.4655 81.3998 63.4317C81.4139 63.3979 81.421 63.3809 81.421 63.3809C81.421 63.3809 81.3856 63.4182 81.3467 63.452C81.3042 63.4858 81.2652 63.5197 81.2652 63.5197C81.2298 63.4215 81.2298 63.2828 81.2652 63.1272C81.2935 62.9681 81.375 62.799 81.4281 62.5993C81.5663 62.2136 81.708 61.7569 81.7646 61.3509C81.8355 61.3576 81.8851 61.4896 81.8957 61.6148C81.9099 61.7433 81.917 61.8652 81.9666 61.8482C82.0055 61.7603 82.0374 61.6621 82.0693 61.5572C82.0905 61.4557 82.1082 61.3475 82.1259 61.2358C82.1401 61.1242 82.1578 61.0125 82.1685 60.8975C82.1791 60.7825 82.1685 60.6708 82.1685 60.5558C82.1649 60.099 82.0409 59.6828 81.9276 59.402C82.002 59.3885 82.1437 59.4934 82.2676 59.72C82.3243 59.8351 82.3952 59.9772 82.42 60.1565C82.4448 60.3358 82.4518 60.5456 82.427 60.7757C82.3916 60.8738 82.3385 60.8231 82.2924 60.9178C82.2924 60.9178 82.296 61.0159 82.3031 61.1614C82.3031 61.2358 82.3066 61.3204 82.3102 61.4151C82.3137 61.5065 82.3208 61.608 82.3066 61.7095C82.2889 61.9091 82.2677 62.1121 82.257 62.2644C82.2535 62.3422 82.2322 62.4031 82.2251 62.4471C82.2145 62.4911 82.211 62.5148 82.211 62.5148C82.2251 62.4572 82.2393 62.3997 82.2535 62.3456C82.2641 62.2881 82.2712 62.2339 82.2818 62.1764C82.2995 62.0682 82.3172 61.9599 82.3349 61.8584C82.3527 61.7569 82.3775 61.6554 82.3881 61.5606C82.3987 61.4659 82.4129 61.3712 82.4235 61.2832C82.4448 61.1039 82.4837 60.9381 82.5014 60.7858C82.5191 60.637 82.5439 60.4982 82.5687 60.3697C82.5935 60.2479 82.6254 60.1328 82.6573 60.0347C82.6821 59.94 82.714 59.8588 82.7458 59.7911C82.8131 59.6591 82.8946 59.5847 82.9903 59.5847C82.9336 59.3513 82.8911 59.2024 82.8486 59.1212L82.8557 59.0941ZM57.2344 8.53203C57.1884 8.45421 57.1423 8.37638 57.1069 8.30871L57.1707 8.24445C57.3372 8.36963 57.2805 8.43391 57.2344 8.53203ZM58.9914 10.5147C58.871 10.5215 58.956 10.7854 58.917 10.9343C58.871 10.9241 58.832 10.9715 58.7966 11.0222C58.7682 10.9783 58.7364 10.9343 58.7116 10.8869C58.7293 10.8497 58.7328 10.8159 58.6939 10.7786C58.6832 10.7888 58.6761 10.8023 58.6655 10.8125C58.6053 10.711 58.5486 10.6061 58.4884 10.4944C58.6124 10.3997 58.8072 10.3895 58.9879 10.5113L58.9914 10.5147ZM57.6701 9.09031C57.7587 9.17489 57.7091 9.22901 57.6595 9.28653C57.532 9.16811 57.3867 9.05647 57.2203 8.96173C57.2911 8.9888 57.3407 9.00233 57.3761 8.99895C57.4647 9.10045 57.5462 9.14782 57.6701 9.09031Z" fill="#C2D832" fill-opacity="0.5"/>
<path d="M57.9423 9.60792C57.8998 9.55041 57.8538 9.49627 57.8042 9.44214C57.8644 9.48951 57.9175 9.54702 57.9423 9.60792Z" fill="#C2D832" fill-opacity="0.5"/>
<path d="M57.0038 7.561V7.63543C56.979 7.61175 56.9542 7.58468 56.9294 7.55762H57.0038V7.561Z" fill="#C2D832" fill-opacity="0.5"/>
<path d="M70.44 39.3518C70.4683 39.3789 70.5002 39.4093 70.5356 39.4432C70.5037 39.4059 70.4683 39.3755 70.44 39.3518Z" fill="#C2D832" fill-opacity="0.5"/>
<path d="M55.1973 25.7232C55.1973 25.7232 55.1619 25.6996 55.1442 25.686C55.1583 25.6996 55.1796 25.7131 55.1973 25.7232Z" fill="#C2D832" fill-opacity="0.5"/>
<path d="M52.5619 20.956C52.5229 20.9357 52.4875 20.929 52.4627 20.929C52.5016 20.9425 52.5335 20.9492 52.5619 20.956Z" fill="#C2D832" fill-opacity="0.5"/>
<path d="M55.24 24.1296C55.2719 24.177 55.3002 24.2243 55.3356 24.2683L55.2754 24.0552C55.2931 24.1262 55.2754 24.1398 55.24 24.1296Z" fill="#C2D832" fill-opacity="0.5"/>
<path d="M10.8873 70.7161C10.781 70.7465 10.6924 70.7804 10.6464 70.8277C10.7314 70.8142 10.8837 70.76 10.8873 70.7161Z" fill="#C2D832" fill-opacity="0.5"/>
<path d="M33.8228 70.5842C33.798 70.5538 33.7945 70.52 33.7803 70.4895C33.7626 70.5132 33.7661 70.5403 33.8228 70.5842Z" fill="#C2D832" fill-opacity="0.5"/>
<path d="M56.4265 21.4365L56.7417 21.7038C56.6496 21.5888 56.5752 21.5617 56.4265 21.4365Z" fill="#C2D832" fill-opacity="0.5"/>
<path d="M45.0699 7.63867L45.1691 7.69618C45.1691 7.69618 45.1407 7.66236 45.0699 7.63867Z" fill="#C2D832" fill-opacity="0.5"/>
<path d="M55.5662 3.65308C55.5946 3.70721 55.6229 3.7275 55.6512 3.7275C55.6264 3.69367 55.5981 3.66323 55.5662 3.65308Z" fill="#C2D832" fill-opacity="0.5"/>
<path d="M60.8794 8.98877C60.8617 8.98877 60.8475 8.99216 60.8334 8.99893C60.8475 9.0057 60.8652 9.0023 60.8794 8.98877Z" fill="#C2D832" fill-opacity="0.5"/>
<path d="M46.2173 8.31895C46.2173 8.31895 46.1925 8.29189 46.1819 8.28174C46.15 8.30881 46.1925 8.33248 46.2173 8.31895Z" fill="#C2D832" fill-opacity="0.5"/>
<path d="M49.2285 11.2388C49.2285 11.2388 49.1967 11.2219 49.179 11.2253C49.1967 11.2253 49.2108 11.2321 49.2285 11.2388Z" fill="#C2D832" fill-opacity="0.5"/>
<path d="M45.5788 7.92285C45.5788 7.92285 45.5585 7.933 45.5518 7.93638C45.5619 7.93638 45.5721 7.92624 45.5788 7.92285Z" fill="#C2D832" fill-opacity="0.5"/>
<path d="M63.8359 17.2985L63.8427 17.3121L63.8326 17.2816L63.8224 17.2613V17.2512L63.8156 17.2444H63.8089C63.8089 17.2444 63.8089 17.2511 63.8123 17.2545L63.8359 17.2985Z" fill="#C2D832" fill-opacity="0.5"/>
<path d="M62.5791 13.7966C62.5791 13.7966 62.596 13.8271 62.6062 13.844C62.596 13.8271 62.5893 13.8135 62.5791 13.7966Z" fill="#C2D832" fill-opacity="0.5"/>
<path d="M46.2176 8.31879C46.2176 8.31879 46.2312 8.33571 46.2379 8.34248L46.2312 8.28833C46.2312 8.30863 46.2278 8.31541 46.2176 8.31879Z" fill="#C2D832" fill-opacity="0.5"/>
<path d="M46.848 7.14126C46.8268 7.12435 46.8055 7.13449 46.7666 7.1311L46.848 7.14126Z" fill="#C2D832" fill-opacity="0.5"/>
</svg>
