<svg width="42" height="39" viewBox="0 0 42 39" fill="none" xmlns="http://www.w3.org/2000/svg">
<path d="M10.7554 37.8569C10.7927 36.4551 11.0775 35.2489 12.0206 34.4391C13.5087 33.155 14.0158 31.4771 14.3422 29.6914C14.6156 28.1781 14.7876 26.6413 15.0238 25.0042C14.32 24.9051 13.7447 24.7404 13.1721 24.7639C10.9397 24.8269 8.71471 24.9147 6.48732 25.0842C4.85358 25.2104 3.22598 25.2673 1.61907 24.8994C0.633148 24.669 0.0067167 23.8851 -0.000234949 22.8746C-0.00498005 21.5124 0.857475 20.3892 2.17816 20.0735C2.42919 20.0116 2.69016 20.0278 2.94491 19.9782C5.19923 19.4496 7.44864 18.9494 9.51697 17.8016C11.6063 16.6339 13.8009 15.6372 15.9484 14.5736C17.2627 13.9223 18.1884 13.0096 18.3443 11.4642C18.3934 11.0444 18.4921 10.6097 18.6587 10.2221C19.4674 8.29155 19.8901 6.28792 19.8823 4.19757C19.8787 2.65952 20.3726 1.56606 22.0469 1.17113C22.664 1.02628 23.183 0.465323 23.879 -0.000258965C24.7294 0.945901 25.6095 1.85616 26.3894 2.83699C28.3121 5.24325 29.6133 5.44641 32.3667 4.06581C34.7306 2.8697 37.2072 1.8693 39.664 0.847798C40.7805 0.390912 41.6121 1.00517 41.4138 2.18531C41.2686 3.09302 40.9428 4.02795 40.466 4.81923C39.3419 6.64203 38.0853 8.3831 36.8808 10.1626C36.5905 10.5873 36.2024 11.0009 36.1026 11.4764C35.8992 12.4151 35.9568 13.3698 36.7774 14.0819C36.9766 14.2516 37.1759 14.4213 37.4097 14.5266C38.4861 15.0133 38.3993 16.295 39.1098 16.9997C39.8363 17.713 40.815 18.1886 41.4748 18.949C42.2176 19.806 42.0861 20.9391 41.4956 21.8455C40.5752 23.2696 39.4703 24.3036 37.4787 23.9567C35.3734 23.59 33.2064 23.5119 31.0715 23.3161C28.9935 23.1302 27.172 23.5288 25.7844 25.2823C24.3967 27.0357 22.8099 28.6195 21.5225 30.4373C19.4468 33.356 16.6904 35.5341 14.0169 37.8088C13.0787 38.5902 12.0324 38.6074 10.7554 37.8569ZM19.6216 20.7879C20.4896 20.4461 21.1782 20.0908 21.9066 19.9125C22.6473 19.7305 23.4352 19.7504 24.1945 19.6303C24.5148 19.5746 24.9055 19.4842 25.1366 19.2663C26.6481 17.7456 28.1559 16.2127 28.8234 14.0815C29.1935 12.8902 28.3331 11.7311 27.1025 11.8982C26.4421 11.9885 25.7646 12.246 25.1909 12.5804C24.1562 13.1747 23.0806 13.7678 22.2031 14.5715C20.4158 16.1614 19.486 18.1823 19.6216 20.7879ZM18.285 27.8724C19.343 26.9066 20.0265 26.3097 20.6865 25.6795C20.8546 25.521 21.0053 25.2597 21.0286 25.0231C21.058 24.7173 21.0416 24.3037 20.8597 24.1018C20.6777 23.9 20.2447 23.76 19.969 23.8293C19.5906 23.916 19.1343 24.1475 18.9416 24.4484C18.4179 25.3078 18.092 26.2428 18.285 27.8724ZM22.4003 10.5158C23.4672 9.80383 24.2448 9.34072 24.5717 8.22993C24.1373 7.86088 23.7351 7.50919 23.2648 7.11041C22.3577 8.08494 21.9391 8.98023 22.4003 10.5158ZM13.7043 20.2971C14.5529 20.4743 15.2392 20.3356 15.7383 19.6186C15.8149 19.5146 15.8098 19.2731 15.7355 19.1605C15.6612 19.0478 15.4644 18.9313 15.3334 18.9437C14.48 19.065 14.4838 19.0774 13.7043 20.2971ZM33.9836 7.833C33.6706 7.77849 33.375 7.69181 33.1004 7.72028C33.0102 7.7339 32.9708 8.09671 32.9079 8.29113C33.2011 8.32458 33.5017 8.38283 33.7997 8.3878C33.8529 8.38533 33.8972 8.12896 33.9836 7.833ZM32.9491 18.5262C32.9539 18.3628 33.0094 18.1436 32.9302 18.0594C32.6219 17.7064 32.2162 17.6123 31.7922 17.8612C31.6759 17.9231 31.6452 18.1348 31.5797 18.276C31.9484 18.3812 32.3208 18.4989 32.6981 18.5881C32.7711 18.6067 32.8625 18.5522 32.9491 18.5262Z" fill="#C2D832"/>
</svg>
