<svg width="48" height="31" viewBox="0 0 48 31" fill="none" xmlns="http://www.w3.org/2000/svg">
<path d="M0.000167937 18.9121C1.04626 17.9782 2.11958 17.3586 3.35569 17.49C5.31075 17.693 6.87994 16.9118 8.4037 15.9252C9.69282 15.0868 10.9295 14.1584 12.2833 13.208C11.8729 12.6277 11.5985 12.0959 11.1888 11.6952C9.61241 10.1132 8.02312 8.55358 6.37267 7.04825C5.16074 5.9454 4.00347 4.79952 3.16964 3.37746C2.66145 2.50176 2.80269 1.50827 3.53358 0.810433C4.52201 -0.126908 5.93093 -0.269026 7.06619 0.476001C7.28335 0.616311 7.45053 0.817347 7.66123 0.968855C9.59159 2.24759 11.4978 3.54227 13.7515 4.26109C16.0339 4.98163 18.2641 5.89595 20.5107 6.73018C21.8859 7.24045 23.1849 7.28866 24.4169 6.34262C24.7562 6.0906 25.1403 5.86441 25.5367 5.72003C27.4965 4.98519 29.245 3.91929 30.7615 2.48054C31.8787 1.42344 33.0133 1.03336 34.4487 1.98154C34.9772 2.33146 35.7414 2.32474 36.5575 2.51222C36.4517 3.77999 36.3924 5.04474 36.2131 6.28497C35.7794 9.3343 36.5236 10.4209 39.4163 11.4789C41.9077 12.3798 44.3339 13.4969 46.7619 14.5851C47.8599 15.0847 47.9829 16.1112 46.9878 16.776C46.2274 17.2926 45.3234 17.6963 44.4205 17.8917C42.3228 18.323 40.1939 18.6019 38.0726 18.9449C37.5644 19.0247 36.9972 19.0258 36.5826 19.2791C35.7599 19.7746 35.1043 20.4711 35.1484 21.5567C35.1615 21.818 35.1746 22.0794 35.2582 22.3219C35.6418 23.4392 34.6492 24.2547 34.6233 25.255C34.6021 26.273 34.9268 27.3115 34.8256 28.3131C34.7109 29.4414 33.7959 30.1225 32.7312 30.314C31.0635 30.6203 29.5532 30.5248 28.4404 28.8371C27.264 27.053 25.8352 25.4219 24.5141 23.7335C23.2248 22.0932 21.6858 21.0404 19.458 21.2324C17.2302 21.4243 14.9893 21.3548 12.7833 21.6639C9.23546 22.1538 5.76005 21.6403 2.27117 21.2535C1.05917 21.1061 0.32924 20.3563 0.000167937 18.9121ZM18.5049 13.6646C19.3488 14.0622 20.0796 14.3199 20.7087 14.7279C21.349 15.1424 21.8747 15.7296 22.4827 16.2001C22.7428 16.395 23.0765 16.6175 23.3936 16.6364C25.5369 16.6943 27.6866 16.741 29.6957 15.7658C30.8167 15.2186 31.0706 13.7975 30.1054 13.0162C29.5869 12.5974 28.9349 12.2806 28.2982 12.0922C27.1561 11.7464 25.9869 11.37 24.8003 11.2821C22.4175 11.071 20.3088 11.7796 18.5049 13.6646ZM12.431 17.5486C13.8595 17.6566 14.7626 17.745 15.6739 17.7934C15.9045 17.8071 16.198 17.7377 16.3862 17.5925C16.6291 17.4042 16.9189 17.1088 16.9411 16.8379C16.9633 16.567 16.7684 16.1559 16.5289 16.0026C16.2063 15.7866 15.725 15.6132 15.3738 15.6792C14.3891 15.887 13.4851 16.2908 12.431 17.5486ZM27.888 8.6453C29.1378 8.93384 30.008 9.18244 31.0408 8.65891C31.0117 8.08964 30.9919 7.55572 30.9598 6.93995C29.6285 6.9477 28.6897 7.25674 27.888 8.6453ZM14.8054 9.02033C15.2582 9.75955 15.8297 10.1641 16.6938 10.036C16.8221 10.0204 16.9944 9.85114 17.0255 9.71979C17.0566 9.58844 17.0064 9.3654 16.9076 9.27844C16.2342 8.74039 16.2278 8.75159 14.8054 9.02033ZM37.7823 15.2387C37.6074 14.9735 37.4678 14.6988 37.2589 14.5184C37.1871 14.4621 36.896 14.6822 36.7113 14.7696C36.888 15.006 37.0516 15.2648 37.2524 15.4852C37.2906 15.5222 37.5077 15.3787 37.7823 15.2387ZM29.2884 21.8166C29.4107 21.708 29.6083 21.5981 29.6153 21.4827C29.6609 21.0163 29.4513 20.6564 28.9794 20.5183C28.8546 20.4762 28.6794 20.5989 28.5318 20.6481C28.7079 20.9886 28.8775 21.3404 29.0712 21.6762C29.1077 21.7421 29.2101 21.7714 29.2884 21.8166Z" fill="#C2D832"/>
</svg>
