<svg width="83" height="7" viewBox="0 0 83 7" fill="none" xmlns="http://www.w3.org/2000/svg">
<path d="M83 1.72C81.6964 2.18192 80.4894 2.5861 79.3146 3.01594C78.2202 3.41371 77.0776 3.80505 76.0958 4.24772C74.583 4.91494 72.6035 5.23572 70.5274 5.46027C67.6789 5.76821 64.8142 5.78746 61.9496 5.45385C60.7908 5.31913 59.7608 5.12666 58.8918 4.78022C57.9905 4.41453 56.9766 4.09376 56.1236 3.70882C54.3855 2.91971 52.3255 2.80423 50.0081 3.18274C47.0146 3.67674 44.2948 4.35679 41.9774 5.2678C40.3036 5.92219 39.3058 5.94785 37.7608 5.25497C36.9239 4.87645 36.2802 4.42095 35.5399 4.00394C34.9122 3.65108 34.1397 3.5356 33.0293 3.65108C31.1463 3.84355 29.3921 4.06168 27.815 4.57492C25.1595 5.44102 22.1339 6.10182 19.0117 6.67281C18.2392 6.81395 17.515 6.78829 16.9195 6.56375C15.9217 6.17881 14.9561 5.77463 14.0388 5.35762C13.395 5.05609 12.703 4.8123 11.7535 4.68399C10.3211 4.49152 9.00147 4.50435 7.9071 4.97269C6.82883 5.44102 5.78276 5.92861 4.70449 6.40336C4.28605 6.58941 3.86765 6.77546 3.36875 7C1.30876 6.55733 0.600611 5.80671 0.037334 5.04326C-0.0914151 4.87004 0.133927 4.61341 0.391425 4.44019C1.85595 3.43295 3.67451 2.5476 6.24949 1.93171C7.90713 1.53395 9.53256 1.54678 11.0454 2.01512C12.2363 2.3808 13.3628 2.77857 14.4089 3.20841C16.5011 4.05526 16.5494 4.18358 19.575 3.48428C22.4557 2.81706 25.3365 2.16908 28.2494 1.52111C29.1829 1.31582 30.1324 1.1041 31.1463 0.975791C33.0453 0.732 34.7513 0.853901 35.9905 1.55961C36.2963 1.73283 36.6504 1.89964 36.924 2.07927C37.9057 2.75932 39.6437 2.68875 40.8025 2.36797C42.1221 2.00228 43.474 1.65584 44.7454 1.26449C46.564 0.706337 48.7045 0.417637 50.8127 0.109691C52.2612 -0.102023 53.5647 -0.00578619 54.7235 0.385563C55.4638 0.629354 56.2846 0.873145 56.7835 1.18751C57.6686 1.75849 58.9561 2.14343 60.2758 2.49628C63.1404 3.26615 66.2465 3.4137 69.4491 2.86838C70.7205 2.65025 71.8632 2.31023 73.1346 2.07927C74.8727 1.75849 76.6269 1.42489 78.4616 1.20676C80.1031 0.982213 81.7447 1.12335 83 1.72Z" fill="#C2D832"/>
</svg>
