<svg width="32" height="24" viewBox="0 0 32 24" fill="none" xmlns="http://www.w3.org/2000/svg">
<mask id="mask0_715_542" style="mask-type:luminance" maskUnits="userSpaceOnUse" x="0" y="0" width="32" height="24">
<rect width="32" height="24" fill="white"/>
</mask>
<g mask="url(#mask0_715_542)">
<path fill-rule="evenodd" clip-rule="evenodd" d="M0 0H32V24H0V0Z" fill="#F7FCFF"/>
<path fill-rule="evenodd" clip-rule="evenodd" d="M0 14.667V16.667H32V14.667H0Z" fill="#E31D1C"/>
<path fill-rule="evenodd" clip-rule="evenodd" d="M0 18.333V20.333H32V18.333H0Z" fill="#E31D1C"/>
<path fill-rule="evenodd" clip-rule="evenodd" d="M0 7.33301V9.33301H32V7.33301H0Z" fill="#E31D1C"/>
<path fill-rule="evenodd" clip-rule="evenodd" d="M0 22V24H32V22H0Z" fill="#E31D1C"/>
<path fill-rule="evenodd" clip-rule="evenodd" d="M0 11V13H32V11H0Z" fill="#E31D1C"/>
<path fill-rule="evenodd" clip-rule="evenodd" d="M0 0V2H32V0H0Z" fill="#E31D1C"/>
<path fill-rule="evenodd" clip-rule="evenodd" d="M0 3.66699V5.66699H32V3.66699H0Z" fill="#E31D1C"/>
<rect width="20" height="13" fill="#2E42A5"/>
<path d="M2.05273 9.96777H2.77051L2.20605 10.541L2.4248 11.4473L1.72266 10.9385L0.996094 11.4473L1.24121 10.541L0.59668 9.96777H1.43848L1.72168 9.22852L2.05273 9.96777ZM6.05273 9.96777H6.77051L6.20605 10.541L6.4248 11.4473L5.72266 10.9385L4.99609 11.4473L5.24121 10.541L4.59668 9.96777H5.43848L5.72168 9.22852L6.05273 9.96777ZM10.0527 9.96777H10.7705L10.2061 10.541L10.4248 11.4473L9.72266 10.9385L8.99609 11.4473L9.24121 10.541L8.59668 9.96777H9.43848L9.72168 9.22852L10.0527 9.96777ZM14.0527 9.96777H14.7705L14.2061 10.541L14.4248 11.4473L13.7227 10.9385L12.9961 11.4473L13.2412 10.541L12.5967 9.96777H13.4385L13.7217 9.22852L14.0527 9.96777ZM18.0527 9.96777H18.7705L18.2061 10.541L18.4248 11.4473L17.7227 10.9385L16.9961 11.4473L17.2412 10.541L16.5967 9.96777H17.4385L17.7217 9.22852L18.0527 9.96777ZM4.05273 7.96777H4.77051L4.20605 8.54102L4.4248 9.44727L3.72266 8.93848L2.99609 9.44727L3.24121 8.54102L2.59668 7.96777H3.43848L3.72168 7.22852L4.05273 7.96777ZM8.05273 7.96777H8.77051L8.20605 8.54102L8.4248 9.44727L7.72266 8.93848L6.99609 9.44727L7.24121 8.54102L6.59668 7.96777H7.43848L7.72168 7.22852L8.05273 7.96777ZM12.0527 7.96777H12.7705L12.2061 8.54102L12.4248 9.44727L11.7227 8.93848L10.9961 9.44727L11.2412 8.54102L10.5967 7.96777H11.4385L11.7217 7.22852L12.0527 7.96777ZM16.0527 7.96777H16.7705L16.2061 8.54102L16.4248 9.44727L15.7227 8.93848L14.9961 9.44727L15.2412 8.54102L14.5967 7.96777H15.4385L15.7217 7.22852L16.0527 7.96777ZM2.05273 5.96777H2.77051L2.20605 6.54102L2.4248 7.44727L1.72266 6.93848L0.996094 7.44727L1.24121 6.54102L0.59668 5.96777H1.43848L1.72168 5.22852L2.05273 5.96777ZM6.05273 5.96777H6.77051L6.20605 6.54102L6.4248 7.44727L5.72266 6.93848L4.99609 7.44727L5.24121 6.54102L4.59668 5.96777H5.43848L5.72168 5.22852L6.05273 5.96777ZM10.0527 5.96777H10.7705L10.2061 6.54102L10.4248 7.44727L9.72266 6.93848L8.99609 7.44727L9.24121 6.54102L8.59668 5.96777H9.43848L9.72168 5.22852L10.0527 5.96777ZM14.0527 5.96777H14.7705L14.2061 6.54102L14.4248 7.44727L13.7227 6.93848L12.9961 7.44727L13.2412 6.54102L12.5967 5.96777H13.4385L13.7217 5.22852L14.0527 5.96777ZM18.0527 5.96777H18.7705L18.2061 6.54102L18.4248 7.44727L17.7227 6.93848L16.9961 7.44727L17.2412 6.54102L16.5967 5.96777H17.4385L17.7217 5.22852L18.0527 5.96777ZM4.05273 3.96777H4.77051L4.20605 4.54102L4.4248 5.44727L3.72266 4.93848L2.99609 5.44727L3.24121 4.54102L2.59668 3.96777H3.43848L3.72168 3.22852L4.05273 3.96777ZM8.05273 3.96777H8.77051L8.20605 4.54102L8.4248 5.44727L7.72266 4.93848L6.99609 5.44727L7.24121 4.54102L6.59668 3.96777H7.43848L7.72168 3.22852L8.05273 3.96777ZM12.0527 3.96777H12.7705L12.2061 4.54102L12.4248 5.44727L11.7227 4.93848L10.9961 5.44727L11.2412 4.54102L10.5967 3.96777H11.4385L11.7217 3.22852L12.0527 3.96777ZM16.0527 3.96777H16.7705L16.2061 4.54102L16.4248 5.44727L15.7227 4.93848L14.9961 5.44727L15.2412 4.54102L14.5967 3.96777H15.4385L15.7217 3.22852L16.0527 3.96777ZM2.05273 1.96777H2.77051L2.20605 2.54102L2.4248 3.44727L1.72266 2.93848L0.996094 3.44727L1.24121 2.54102L0.59668 1.96777H1.43848L1.72168 1.22852L2.05273 1.96777ZM6.05273 1.96777H6.77051L6.20605 2.54102L6.4248 3.44727L5.72266 2.93848L4.99609 3.44727L5.24121 2.54102L4.59668 1.96777H5.43848L5.72168 1.22852L6.05273 1.96777ZM10.0527 1.96777H10.7705L10.2061 2.54102L10.4248 3.44727L9.72266 2.93848L8.99609 3.44727L9.24121 2.54102L8.59668 1.96777H9.43848L9.72168 1.22852L10.0527 1.96777ZM14.0527 1.96777H14.7705L14.2061 2.54102L14.4248 3.44727L13.7227 2.93848L12.9961 3.44727L13.2412 2.54102L12.5967 1.96777H13.4385L13.7217 1.22852L14.0527 1.96777ZM18.0527 1.96777H18.7705L18.2061 2.54102L18.4248 3.44727L17.7227 2.93848L16.9961 3.44727L17.2412 2.54102L16.5967 1.96777H17.4385L17.7217 1.22852L18.0527 1.96777Z" fill="#F7FCFF"/>
</g>
</svg>
