<svg width="16" height="16" viewBox="0 0 16 16" fill="none" xmlns="http://www.w3.org/2000/svg">
<path fill-rule="evenodd" clip-rule="evenodd" d="M0.666667 6.33333C0.666667 3.20372 3.20372 0.666667 6.33333 0.666667C9.46295 0.666667 12 3.20372 12 6.33333C12 7.65791 11.5455 8.87635 10.784 9.84121L15.1381 14.1953L14.1953 15.1381L9.84121 10.784C8.87635 11.5455 7.65791 12 6.33333 12C3.20372 12 0.666667 9.46295 0.666667 6.33333ZM6.33333 2C3.9401 2 2 3.9401 2 6.33333C2 8.72657 3.9401 10.6667 6.33333 10.6667C8.72657 10.6667 10.6667 8.72657 10.6667 6.33333C10.6667 3.9401 8.72657 2 6.33333 2Z" fill="#1C1B1B"/>
</svg>
