<svg preserveAspectRatio="none" width="100%" height="100%" overflow="visible" style="display: block;" viewBox="0 0 346 324" fill="none" xmlns="http://www.w3.org/2000/svg">
<path id="Vector" d="M272.333 2.2058C259.388 4.31132 247.648 11.079 237.111 18.8996C217.795 33.2873 201.539 51.7357 189.598 72.6406C174.094 54.9441 158.44 37.0973 139.475 23.2109C121.061 9.7255 99.0351 0.0501315 76.2064 0C76.9088 0.701841 77.3101 1.905 76.5575 2.70711C75.0524 4.26118 72.4935 3.70974 70.3863 3.25856C53.6285 -0.300781 37.7235 11.43 25.0298 22.9602C21.2166 26.4193 17.5038 29.9285 14.2426 33.8388C-3.61905 55.5457 -3.31805 87.7803 7.61969 113.648C18.5574 139.516 38.3257 160.421 57.7426 180.774C80.1198 204.236 102.497 227.647 124.874 251.109C139.424 266.349 153.975 281.639 168.926 296.478C176.502 303.998 184.881 313.823 181.62 324C205.252 317.683 221.006 295.976 234.804 275.773C270.025 224.088 305.397 172.202 332.591 115.854C339.314 101.968 345.586 87.3792 345.987 71.9387C346.338 56.4982 339.515 40.0049 325.717 33.0868C317.79 29.1264 314.328 19.7518 308.407 13.1846C299.627 3.45906 285.278 0.150407 272.333 2.2058ZM336.153 76.25C335.601 76.25 335.601 75.1973 336.153 75.1471C336.705 75.1471 336.655 76.1999 336.153 76.25ZM339.766 56.047C341.321 56.4982 342.174 58.4533 341.471 59.9071L341.271 59.5562C339.816 59.2554 338.963 57.3003 339.715 56.047H339.766ZM336.103 58.6038C337.207 59.1552 336.404 61.1103 335.3 61.1103C335.15 61.1103 334.999 61.1103 334.849 61.01C333.544 60.3583 334.849 57.9019 336.053 58.6038H336.103ZM331.688 41.9601C333.193 42.0604 334.046 43.7648 334.297 45.2186C334.447 46.0207 334.497 46.9231 334.046 47.6249C333.795 48.0761 333.243 48.3769 332.691 48.3769C332.39 48.3769 332.139 48.2766 331.939 48.0761C331.136 47.2239 332.089 45.9205 332.992 45.1685C331.939 44.5168 331.437 43.1632 331.738 41.9601H331.688ZM333.494 91.5402C333.996 91.5402 334.046 92.2921 333.895 92.7934C333.394 94.9992 332.892 97.1549 332.34 99.3607C330.835 96.9544 331.337 93.4953 333.444 91.5402H333.494ZM323.409 35.6937C324.664 35.0921 325.868 37.348 324.714 38.0498C323.71 37.6488 323.008 36.6461 323.008 35.5934L323.459 35.6937H323.409ZM248.701 44.1659L248.952 44.4165C248.601 43.9653 249.604 43.1632 249.906 43.7147C249.203 44.8176 248.451 45.9706 247.297 46.6223C246.143 47.3242 244.537 47.3743 243.634 46.3717C245.29 45.6197 246.995 44.9178 248.651 44.1659H248.701ZM233.499 58.1024L231.743 58.704L231.392 58.6038C230.94 57.4006 233.399 56.8491 233.549 58.1024H233.499ZM226.475 63.7172C227.478 64.2686 227.428 65.8728 226.575 66.5746C226.073 67.0258 225.421 67.1762 224.719 67.1762C224.267 67.1762 223.765 67.076 223.364 66.9256L224.719 65.4717L224.919 65.3715C224.167 64.5694 225.521 63.1156 226.525 63.6169L226.475 63.7172ZM209.466 82.0653H209.667C209.817 80.9624 211.874 81.4637 211.925 82.6167C211.975 83.7697 210.921 84.622 209.918 85.2236C209.366 84.3212 209.165 83.1181 209.466 82.0653ZM208.162 88.1813C209.215 87.0784 211.072 85.9755 212.075 87.1787C210.52 88.2315 209.366 89.8357 208.964 91.6905L208.663 91.5402C208.663 91.5402 208.312 91.7407 208.162 91.7407C207.559 91.7407 206.907 91.089 206.907 90.4373C206.907 89.5349 207.559 88.833 208.162 88.1813ZM188.945 75.9493C188.343 76.1498 187.741 76.3503 187.189 76.5508H186.838C186.386 75.2975 188.845 74.696 188.995 75.9493H188.945ZM183.527 68.8306C183.727 69.4321 183.928 69.9836 184.129 70.5852L184.028 70.9862C184.028 70.9862 183.828 71.0363 183.727 71.0363C182.724 71.0363 182.322 68.9809 183.476 68.8306H183.527ZM93.5161 4.4617C94.068 3.60947 95.523 3.60947 96.0247 4.4617C95.4728 5.31394 94.0178 5.31394 93.4659 4.4617H93.5161ZM63.7634 15.3904L64.3655 17.145L64.2652 17.4959C64.2652 17.4959 64.0645 17.546 63.9641 17.546C62.9607 17.546 62.5593 15.4906 63.7132 15.3402L63.7634 15.3904ZM55.8863 5.21368C56.4382 5.21368 56.4382 6.26645 55.8863 6.31658C55.3344 6.31658 55.3344 5.26381 55.8863 5.21368ZM49.5143 7.7704C50.0662 7.7704 50.0662 8.82313 49.5143 8.87326C48.9623 8.87326 48.9623 7.82053 49.5143 7.7704ZM33.0073 50.9336C33.2582 51.5352 33.5592 52.1368 33.81 52.7885L33.6094 52.8888C33.3084 53.2898 32.8066 53.5405 32.3049 53.5405C31.8032 53.5405 31.3015 53.3399 31.0506 52.8888C31.7028 52.2371 32.3551 51.5853 33.0073 50.9837V50.9336ZM20.9657 101.216C20.464 98.5084 19.9623 95.7011 20.4138 92.994C20.7651 90.9386 21.4173 88.2315 19.5609 87.2288C20.163 86.6273 20.7651 86.0758 21.3671 85.4743C23.4744 86.8278 23.625 89.8357 23.1232 92.2921C22.6215 94.7485 21.7685 97.3554 22.7218 99.6113C24.7288 104.424 25.7322 109.588 25.7322 114.801C22.8221 110.891 21.8689 105.978 20.9657 101.216ZM23.8257 74.5456C22.5212 77.5033 21.8187 80.7619 21.8689 84.0204C20.5142 83.7196 19.6111 82.2157 20.0124 80.9123C21.5678 75.4981 23.1734 70.0337 24.779 64.5694C26.0835 65.7725 26.3343 67.8279 25.9329 69.5825C25.5315 71.3371 24.5782 72.8912 23.8758 74.5456H23.8257ZM27.7893 105.828L26.0333 105.226C26.0835 104.574 26.7859 104.123 27.4381 104.274C28.0402 104.424 28.4416 105.176 28.1907 105.777H27.7893V105.828ZM31.1007 120.917C30.1474 121.068 29.144 119.864 29.746 119.062L29.9468 119.163C30.4987 118.11 31.0506 117.007 31.6025 115.954C32.1042 116.806 32.5558 117.709 32.6059 118.711C32.6059 119.664 32.054 120.767 31.1007 120.917ZM37.0211 128.688C35.0142 127.184 33.4087 125.128 32.5056 122.772C33.0575 121.92 34.4623 122.421 35.2149 123.173C36.5696 124.627 37.272 126.732 37.0211 128.688ZM178.81 290.261C178.309 290.261 177.807 290.061 177.506 289.61V289.459C176.302 289.159 175.9 287.254 176.854 286.451C177.907 287.504 179.011 288.607 180.065 289.66C179.814 290.061 179.312 290.312 178.81 290.312V290.261ZM184.58 297.932C183.527 296.879 182.423 295.776 181.319 294.723L181.219 294.623C182.122 293.971 183.527 294.071 184.329 294.874C185.132 295.676 185.232 297.079 184.58 297.982V297.932ZM196.02 314.425V314.525C194.665 314.375 193.461 313.573 192.859 312.369C194.414 311.517 196.421 311.517 197.926 312.42C197.274 313.071 196.622 313.723 196.02 314.375V314.425ZM214.483 295.926H214.584C214.333 295.275 214.584 294.422 215.186 294.021C215.587 294.523 215.989 295.124 215.888 295.726C215.738 296.327 214.634 296.528 214.534 295.876L214.483 295.926ZM218.046 290.211C216.741 289.71 215.788 288.457 215.688 287.053H215.838C215.587 286.401 215.838 285.599 216.34 285.198C217.594 286.502 218.246 288.407 218.046 290.211ZM220.253 282.491C219.701 282.491 219.701 281.438 220.253 281.388C220.805 281.388 220.805 282.441 220.253 282.491ZM227.227 278.13C226.976 278.531 226.525 278.731 226.073 278.731C225.622 278.731 225.02 278.531 224.719 278.13C225.17 277.729 225.572 277.277 226.023 276.826L225.772 276.726C226.475 276.024 227.779 277.277 227.278 278.13H227.227ZM308.056 64.3688C307.655 72.1392 305.096 79.659 302.286 86.928C273.938 160.922 222.561 223.587 186.236 294.021C150.161 250.708 112.632 208.597 73.6977 167.79C62.1077 155.658 50.2668 143.527 41.4364 129.239C32.6059 114.952 26.8862 98.1575 28.7426 81.4637C30.5488 65.2211 39.8308 49.9811 53.4277 40.9073C67.0247 31.8335 84.6856 29.0763 100.39 33.6382C105.758 35.1923 110.826 37.4984 115.843 40.0551C130.193 47.3743 143.689 56.4481 155.881 67.076C170.582 79.8094 184.129 96.7037 183.928 116.155C183.878 122.221 192.558 124.928 197.826 121.87C203.094 118.762 205.553 112.646 207.961 107.081C217.293 85.7249 231.442 66.4242 249.002 51.1341C256.328 44.7674 264.456 38.9522 273.888 36.5459C283.321 34.1897 294.208 35.844 300.982 42.8123C306.401 48.3769 308.508 56.6486 308.106 64.419L308.056 64.3688Z" fill="#BDCABA" fill-opacity="0.3"/>
</svg>
