<svg width="18" height="18" viewBox="0 0 18 18" fill="none" xmlns="http://www.w3.org/2000/svg">
<path d="M15.1875 2.25H13.5V0.421875C13.5 0.189844 13.3102 0 13.0781 0H11.6719C11.4398 0 11.25 0.189844 11.25 0.421875V2.25H6.75V0.421875C6.75 0.189844 6.56016 0 6.32812 0H4.92188C4.68984 0 4.5 0.189844 4.5 0.421875V2.25H2.8125C1.88086 2.25 1.125 3.00586 1.125 3.9375V16.3125C1.125 17.2441 1.88086 18 2.8125 18H15.1875C16.1191 18 16.875 17.2441 16.875 16.3125V3.9375C16.875 3.00586 16.1191 2.25 15.1875 2.25ZM14.9766 16.3125H3.02344C2.90742 16.3125 2.8125 16.2176 2.8125 16.1016V5.625H15.1875V16.1016C15.1875 16.2176 15.0926 16.3125 14.9766 16.3125Z" fill="#3E4A3D"/>
</svg>
