<svg width="48" height="57" viewBox="0 0 48 57" fill="none" xmlns="http://www.w3.org/2000/svg">
<path d="M45.822 22.6747C42.7173 25.3946 42.2967 25.4426 42.2967 25.4426C38.6222 20.7557 32.0475 19.1453 26.6346 20.1443C19.4288 21.479 16.5003 30.2372 6.76827 30.8092C4.49916 30.9406 20.5549 43.2308 31.8045 41.7323C40.0259 40.633 43.3475 34.0036 43.9183 31.9022C44.4329 29.9902 43.8322 27.8516 43.8322 27.8516C46.7171 26.0061 47.8272 24.8302 47.8272 24.8302C48.6749 24.0405 46.8656 21.7617 45.822 22.6747ZM41.6215 28.5872C36.2828 32.0951 29.3801 33.2524 24.4362 33.6067C24.0308 33.6366 23.9622 33.0445 24.3527 32.9712C28.676 32.1681 34.6912 30.4512 40.6466 26.772C41.1454 27.17 41.6072 28.0407 41.6215 28.5872Z" fill="#BDCABA"/>
</svg>
