<svg width="24" height="24" viewBox="0 0 24 24" fill="none" xmlns="http://www.w3.org/2000/svg">
<path d="M12 24.0013C12.7956 24.0013 13.5587 23.6852 14.1213 23.1226C14.6839 22.56 15 21.797 15 21.0013H9C9 21.797 9.31607 22.56 9.87868 23.1226C10.4413 23.6852 11.2044 24.0013 12 24.0013ZM13.4925 1.64981C13.5134 1.44124 13.4904 1.2306 13.4249 1.03147C13.3595 0.832343 13.253 0.649147 13.1124 0.493699C12.9717 0.338252 12.8001 0.214004 12.6085 0.128969C12.4169 0.0439342 12.2096 0 12 0C11.7904 0 11.5831 0.0439342 11.3915 0.128969C11.1999 0.214004 11.0283 0.338252 10.8876 0.493699C10.747 0.649147 10.6405 0.832343 10.5751 1.03147C10.5096 1.2306 10.4866 1.44124 10.5075 1.64981C8.81208 1.99466 7.28793 2.91485 6.19315 4.25456C5.09836 5.59427 4.50022 7.27117 4.5 9.00131C4.5 10.6483 3.75 18.0013 1.5 19.5013H22.5C20.25 18.0013 19.5 10.6483 19.5 9.00131C19.5 5.37131 16.92 2.34131 13.4925 1.64981Z" fill="#009540"/>
</svg>
