<svg width="22" height="22" viewBox="0 0 22 22" fill="none" xmlns="http://www.w3.org/2000/svg">
<path d="M11.0001 15.4001C13.4301 15.4001 15.4001 13.4301 15.4001 11.0001C15.4001 8.57004 13.4301 6.6001 11.0001 6.6001C8.57004 6.6001 6.6001 8.57004 6.6001 11.0001C6.6001 13.4301 8.57004 15.4001 11.0001 15.4001Z" fill="#3E4A3D"/>
<path fill-rule="evenodd" clip-rule="evenodd" d="M22 11C22 17.0751 17.0751 22 11 22C4.92487 22 0 17.0751 0 11C0 4.92487 4.92487 0 11 0C17.0751 0 22 4.92487 22 11ZM19.8 11C19.8 15.8601 15.8601 19.8 11 19.8C6.13989 19.8 2.2 15.8601 2.2 11C2.2 6.13989 6.13989 2.2 11 2.2C15.8601 2.2 19.8 6.13989 19.8 11Z" fill="#3E4A3D"/>
</svg>
