<svg width="24" height="24" viewBox="0 0 24 24" fill="none" xmlns="http://www.w3.org/2000/svg">
<rect width="24" height="24" fill="#1E1E1E"/>
<g id="Weather Icons (imported from react-icons v4.6.0)">
<rect width="1000" height="568" transform="translate(-368 -32)" fill="white"/>
<g id="Row 1">
<rect width="936" height="24" transform="translate(-336)" fill="white"/>
<g id="react-icons/wi/WiCloudy">
<path id="Vector" d="M3.11182 14.08C3.11182 13.288 3.35982 12.576 3.85582 11.96C4.35182 11.344 4.98382 10.944 5.75982 10.768C5.96782 9.832 6.43982 9.056 7.18382 8.464C7.92782 7.864 8.78382 7.568 9.75982 7.568C10.7038 7.568 11.5518 7.856 12.2878 8.44C13.0318 9.024 13.5118 9.768 13.7278 10.68H13.9438C14.8878 10.68 15.6878 11.008 16.3518 11.672C17.0158 12.336 17.3518 13.136 17.3518 14.072C17.3518 15.016 17.0158 15.816 16.3518 16.48C15.6878 17.144 14.8878 17.48 13.9438 17.48H6.52782C6.06382 17.48 5.62382 17.392 5.20782 17.208C4.79182 17.024 4.41582 16.8 4.11182 16.496C3.80782 16.192 3.56782 15.824 3.38382 15.408C3.19982 14.992 3.11182 14.536 3.11182 14.08ZM4.27182 14.08C4.27182 14.688 4.49582 15.216 4.92782 15.648C5.35982 16.08 5.89582 16.304 6.51982 16.304H13.9438C14.5598 16.304 15.0958 16.088 15.5358 15.648C15.9758 15.208 16.1998 14.688 16.1998 14.08C16.1998 13.472 15.9838 12.944 15.5358 12.512C15.0958 12.08 14.5678 11.856 13.9438 11.856H12.8318C12.7518 11.856 12.7118 11.816 12.7118 11.736L12.6558 11.344C12.5758 10.592 12.2558 9.96 11.7038 9.464C11.1518 8.968 10.4958 8.72 9.74382 8.72C8.99182 8.72 8.33582 8.968 7.77582 9.472C7.21582 9.968 6.90382 10.6 6.83182 11.344L6.77582 11.68C6.77582 11.76 6.73582 11.8 6.64782 11.8L6.28782 11.856C5.71182 11.904 5.23182 12.144 4.83982 12.568C4.47182 12.992 4.27182 13.496 4.27182 14.08ZM11.3518 7.104C11.2718 7.176 11.2878 7.232 11.4078 7.272C11.7518 7.424 12.0398 7.568 12.2718 7.712C12.3598 7.736 12.4238 7.728 12.4478 7.688C12.9358 7.232 13.4958 7 14.1438 7C14.7918 7 15.3438 7.216 15.8238 7.648C16.2958 8.08 16.5598 8.616 16.6158 9.248L16.6878 9.76H17.8238C18.3438 9.76 18.7918 9.944 19.1678 10.32C19.5438 10.696 19.7278 11.136 19.7278 11.648C19.7278 12.128 19.5598 12.544 19.2318 12.904C18.9038 13.264 18.4958 13.464 18.0078 13.52C17.9278 13.52 17.8878 13.56 17.8878 13.648V14.552C17.8878 14.64 17.9278 14.68 18.0078 14.68C18.8158 14.632 19.4958 14.312 20.0478 13.728C20.5998 13.144 20.8798 12.448 20.8798 11.648C20.8798 10.8 20.5838 10.08 19.9838 9.488C19.3838 8.888 18.6638 8.592 17.8238 8.592H17.7038C17.4958 7.792 17.0558 7.136 16.3838 6.616C15.7198 6.096 14.9678 5.84 14.1438 5.84C13.0238 5.832 12.0878 6.256 11.3518 7.104Z" fill="black"/>
</g>
</g>
</g>
</svg>
