<svg width="24" height="24" viewBox="0 0 24 24" fill="none" xmlns="http://www.w3.org/2000/svg">
<rect width="24" height="24" fill="#1E1E1E"/>
<g id="Weather Icons (imported from react-icons v4.6.0)">
<rect width="1000" height="568" transform="translate(-416 -128)" fill="white"/>
<g id="Row 3">
<rect width="936" height="24" transform="translate(-384)" fill="white"/>
<g id="react-icons/wi/WiFog">
<path id="Vector" d="M2.09619 16.84C2.09619 16.648 2.16019 16.48 2.29619 16.352C2.43219 16.224 2.60019 16.16 2.80019 16.16H17.7362C17.9362 16.16 18.0962 16.224 18.2242 16.352C18.3522 16.48 18.4162 16.64 18.4162 16.84C18.4162 17.024 18.3522 17.184 18.2162 17.304C18.0802 17.432 17.9202 17.488 17.7362 17.488H2.80019C2.60019 17.488 2.43219 17.424 2.29619 17.304C2.16019 17.176 2.09619 17.024 2.09619 16.84ZM4.19219 14.328C4.19219 14.136 4.26419 13.976 4.40019 13.848C4.52019 13.728 4.68019 13.664 4.87219 13.664H19.8082C19.9922 13.664 20.1442 13.728 20.2722 13.856C20.4002 13.984 20.4562 14.136 20.4562 14.328C20.4562 14.52 20.3922 14.68 20.2722 14.808C20.1442 14.944 19.9922 15.008 19.8082 15.008H4.87219C4.68019 15.008 4.52019 14.944 4.39219 14.808C4.25619 14.672 4.19219 14.512 4.19219 14.328ZM4.29619 12.416C4.29619 12.488 4.33619 12.52 4.41619 12.52H5.56019C5.60819 12.52 5.66419 12.48 5.72019 12.392C5.91219 11.976 6.19219 11.64 6.56819 11.376C6.94419 11.112 7.36019 10.96 7.80819 10.928L8.24819 10.872C8.33619 10.872 8.38419 10.824 8.38419 10.728L8.44019 10.328C8.52819 9.464 8.88819 8.744 9.53619 8.168C10.1842 7.592 10.9442 7.304 11.8162 7.304C12.6802 7.304 13.4322 7.592 14.0802 8.16C14.7202 8.728 15.0882 9.448 15.1762 10.304L15.2402 10.76C15.2402 10.848 15.2962 10.896 15.4002 10.896H16.6722C17.1842 10.896 17.6562 11.032 18.0802 11.312C18.5042 11.592 18.8162 11.952 19.0242 12.408C19.0802 12.496 19.1362 12.536 19.1922 12.536H20.3362C20.4322 12.536 20.4722 12.48 20.4482 12.352C20.2162 11.536 19.7442 10.864 19.0562 10.344C18.3602 9.824 17.5682 9.568 16.6802 9.568H16.4242C16.1602 8.504 15.6002 7.632 14.7442 6.952C13.8882 6.272 12.9202 5.936 11.8242 5.936C10.7042 5.936 9.71219 6.288 8.84019 6.992C7.96819 7.696 7.41619 8.592 7.16819 9.68C6.48819 9.84 5.88819 10.16 5.37619 10.648C4.86419 11.136 4.50419 11.712 4.30419 12.392V12.36C4.29619 12.36 4.29619 12.384 4.29619 12.416ZM5.58419 19.288C5.58419 19.096 5.65619 18.944 5.79219 18.816C5.91219 18.696 6.07219 18.632 6.27219 18.632H21.2162C21.4082 18.632 21.5682 18.696 21.6962 18.816C21.8322 18.944 21.8962 19.096 21.8962 19.28C21.8962 19.472 21.8322 19.632 21.6962 19.768C21.5602 19.904 21.4002 19.968 21.2162 19.968H6.27219C6.08819 19.968 5.92819 19.896 5.79219 19.76C5.65619 19.64 5.58419 19.472 5.58419 19.288Z" fill="black"/>
</g>
</g>
</g>
</svg>
