<svg width="24" height="24" viewBox="0 0 24 24" fill="none" xmlns="http://www.w3.org/2000/svg">
<rect width="24" height="24" fill="#1E1E1E"/>
<g id="Weather Icons (imported from react-icons v4.6.0)">
<rect width="1000" height="568" transform="translate(-896 -320)" fill="white"/>
<g id="Row 7">
<rect width="936" height="24" transform="translate(-864)" fill="white"/>
<g id="react-icons/wi/WiNightClear">
<path id="Vector" d="M6.32788 11.584C6.32788 10.816 6.47988 10.088 6.77588 9.38401C7.07188 8.68001 7.47988 8.08001 7.98388 7.57601C8.48788 7.07201 9.09588 6.66401 9.79988 6.36001C10.5039 6.05601 11.2399 5.90401 11.9999 5.90401H12.9119C13.0399 5.93601 13.0959 6.01601 13.0959 6.12801L13.1359 6.83201C13.1679 7.84801 13.5279 8.71201 14.2319 9.42401C14.9359 10.136 15.7839 10.52 16.7839 10.56L17.4399 10.616C17.5679 10.616 17.6319 10.68 17.6319 10.8V11.584C17.6399 12.608 17.3919 13.56 16.8879 14.432C16.3839 15.304 15.7039 15.992 14.8319 16.504C13.9679 17.008 13.0159 17.264 11.9919 17.264C11.2159 17.264 10.4719 17.112 9.76788 16.816C9.06388 16.52 8.46388 16.112 7.95988 15.608C7.45588 15.104 7.05588 14.496 6.75988 13.8C6.47988 13.096 6.32788 12.36 6.32788 11.584ZM7.79188 11.584C7.79188 12.192 7.91188 12.768 8.15188 13.312C8.39188 13.848 8.71188 14.304 9.10388 14.672C9.49588 15.04 9.94388 15.328 10.4559 15.536C10.9599 15.752 11.4799 15.856 12.0079 15.856C12.4719 15.856 12.9439 15.768 13.4159 15.584C13.8879 15.4 14.3279 15.144 14.7359 14.816C15.1439 14.488 15.4879 14.072 15.7839 13.56C16.0799 13.048 16.2639 12.496 16.3519 11.888C15.0479 11.616 13.9999 11.056 13.2159 10.208C12.4319 9.36001 11.9759 8.36801 11.8559 7.21601C11.0879 7.26401 10.3999 7.49601 9.76788 7.92001C9.14388 8.34401 8.65588 8.88001 8.31188 9.53601C7.96788 10.192 7.79188 10.872 7.79188 11.584Z" fill="black"/>
</g>
</g>
</g>
</svg>
