<svg width="24" height="24" viewBox="0 0 24 24" fill="none" xmlns="http://www.w3.org/2000/svg">
<rect width="24" height="24" fill="#1E1E1E"/>
<g id="Weather Icons (imported from react-icons v4.6.0)">
<rect width="1000" height="568" transform="translate(-512 -32)" fill="white"/>
<g id="Row 1">
<rect width="936" height="24" transform="translate(-480)" fill="white"/>
<g id="react-icons/wi/WiDayCloudy">
<path id="Vector" d="M1.24805 13.52C1.24805 14.24 1.42405 14.904 1.77605 15.512C2.12805 16.12 2.60805 16.6 3.21605 16.952C3.82405 17.304 4.48005 17.48 5.19205 17.48H13.856C14.568 17.48 15.232 17.304 15.84 16.952C16.448 16.6 16.936 16.12 17.288 15.512C17.64 14.904 17.824 14.24 17.824 13.52C17.824 12.992 17.712 12.456 17.488 11.92C18.096 11.184 18.4 10.296 18.4 9.28C18.4 8.712 18.288 8.168 18.072 7.648C17.856 7.128 17.552 6.688 17.176 6.312C16.8 5.936 16.36 5.632 15.84 5.416C15.32 5.192 14.776 5.088 14.208 5.088C13.024 5.088 11.992 5.552 11.104 6.48C10.488 6.128 9.76805 5.952 8.94405 5.952C7.81605 5.952 6.82405 6.304 5.96005 7C5.09605 7.696 4.53605 8.592 4.29605 9.68C3.40005 9.888 2.67205 10.344 2.10405 11.064C1.53605 11.784 1.24805 12.6 1.24805 13.52ZM2.61605 13.52C2.61605 12.848 2.84005 12.272 3.28805 11.784C3.73605 11.296 4.29605 11.016 4.96805 10.936L5.36805 10.912C5.46405 10.912 5.52005 10.864 5.52005 10.768L5.57605 10.336C5.68805 9.472 6.06405 8.744 6.70405 8.168C7.34405 7.584 8.09605 7.296 8.95205 7.296C9.83205 7.296 10.6 7.592 11.248 8.176C11.904 8.76 12.264 9.48 12.344 10.344L12.4 10.808C12.416 10.896 12.472 10.944 12.568 10.944H13.856C14.56 10.944 15.168 11.2 15.68 11.712C16.192 12.224 16.448 12.824 16.448 13.528C16.448 14.256 16.192 14.872 15.688 15.384C15.184 15.896 14.568 16.152 13.864 16.152H5.19205C4.48805 16.152 3.88805 15.896 3.37605 15.376C2.87205 14.856 2.61605 14.24 2.61605 13.52ZM7.97605 3.704C7.97605 3.896 8.04005 4.064 8.16805 4.208L8.69605 4.72C8.89605 4.872 9.06405 4.936 9.20805 4.92C9.37605 4.92 9.52005 4.848 9.64805 4.712C9.77605 4.576 9.84005 4.408 9.84005 4.216C9.84005 4.024 9.76805 3.864 9.63205 3.744L9.16005 3.216C9.01605 3.088 8.85605 3.024 8.67205 3.024C8.48005 3.024 8.31205 3.088 8.17605 3.224C8.04005 3.352 7.97605 3.512 7.97605 3.704ZM12.248 7.248C12.8 6.712 13.456 6.448 14.208 6.448C15 6.448 15.672 6.72 16.224 7.272C16.776 7.824 17.056 8.488 17.056 9.28C17.056 9.776 16.92 10.272 16.648 10.752C15.872 9.984 14.944 9.6 13.856 9.6H13.6C13.4 8.728 12.952 7.944 12.248 7.248ZM13.552 3.024C13.552 3.232 13.616 3.392 13.736 3.52C13.856 3.648 14.016 3.704 14.208 3.704C14.416 3.704 14.576 3.64 14.704 3.52C14.832 3.392 14.888 3.232 14.888 3.024V1.384C14.888 1.192 14.824 1.04 14.696 0.912001C14.568 0.784001 14.408 0.728001 14.208 0.728001C14.016 0.728001 13.864 0.792001 13.736 0.912001C13.608 1.032 13.552 1.192 13.552 1.384V3.024ZM17.968 4.856C17.968 5.064 18.024 5.224 18.144 5.352C18.312 5.48 18.48 5.544 18.64 5.544C18.784 5.544 18.944 5.48 19.112 5.352L20.256 4.208C20.384 4.064 20.448 3.896 20.448 3.696C20.448 3.504 20.384 3.344 20.256 3.216C20.128 3.088 19.968 3.024 19.784 3.024C19.592 3.024 19.44 3.088 19.32 3.216L18.144 4.36C18.024 4.512 17.968 4.672 17.968 4.856ZM18.6 14.328C18.6 14.52 18.664 14.688 18.8 14.832L19.32 15.336C19.44 15.464 19.592 15.528 19.784 15.528C19.976 15.528 20.136 15.464 20.264 15.328C20.392 15.192 20.456 15.032 20.456 14.832C20.456 14.656 20.392 14.496 20.264 14.368L19.744 13.848C19.616 13.72 19.464 13.656 19.288 13.656C19.096 13.656 18.936 13.72 18.808 13.848C18.672 13.976 18.6 14.136 18.6 14.328ZM19.776 9.28C19.776 9.464 19.848 9.616 19.984 9.744C20.112 9.872 20.28 9.936 20.472 9.936H22.104C22.288 9.936 22.44 9.872 22.568 9.752C22.696 9.632 22.752 9.472 22.752 9.28C22.752 9.088 22.688 8.928 22.568 8.8C22.448 8.672 22.288 8.6 22.104 8.6H20.472C20.28 8.6 20.12 8.664 19.984 8.8C19.84 8.936 19.776 9.096 19.776 9.28Z" fill="black"/>
</g>
</g>
</g>
</svg>
