<svg width="24" height="24" viewBox="0 0 24 24" fill="none" xmlns="http://www.w3.org/2000/svg">
<rect width="24" height="24" fill="#1E1E1E"/>
<g id="Weather Icons (imported from react-icons v4.6.0)">
<rect width="1000" height="568" transform="translate(-944 -368)" fill="white"/>
<g id="Row 8">
<rect width="936" height="24" transform="translate(-912)" fill="white"/>
<g id="react-icons/wi/WiRain">
<path id="Vector" d="M3.71191 13.528C3.71191 12.608 3.99991 11.792 4.57591 11.072C5.15191 10.352 5.87991 9.896 6.75991 9.688C7.00791 8.6 7.57591 7.704 8.44791 7C9.31991 6.296 10.3199 5.952 11.4479 5.952C12.5519 5.952 13.5279 6.296 14.3919 6.976C15.2559 7.656 15.8159 8.536 16.0719 9.608H16.3279C17.0399 9.608 17.7039 9.784 18.3119 10.128C18.9199 10.472 19.4079 10.952 19.7599 11.552C20.1119 12.152 20.2959 12.816 20.2959 13.528C20.2959 14.232 20.1279 14.88 19.7919 15.48C19.4559 16.08 18.9919 16.56 18.4079 16.92C17.8239 17.28 17.1839 17.472 16.4879 17.488C16.3839 17.488 16.3279 17.44 16.3279 17.352V16.288C16.3279 16.192 16.3839 16.144 16.4879 16.144C17.1679 16.112 17.7519 15.84 18.2319 15.328C18.7119 14.816 18.9519 14.216 18.9519 13.52C18.9519 12.824 18.6879 12.224 18.1679 11.712C17.6479 11.2 17.0319 10.944 16.3199 10.944H15.0319C14.9359 10.944 14.8879 10.896 14.8879 10.808L14.8239 10.344C14.7359 9.48 14.3599 8.752 13.7119 8.176C13.0559 7.592 12.3039 7.304 11.4319 7.304C10.5599 7.304 9.79191 7.592 9.15191 8.176C8.50391 8.76 8.14391 9.48 8.06391 10.344L8.00791 10.768C8.00791 10.864 7.95191 10.92 7.84791 10.92L7.42391 10.944C6.75991 11.024 6.19991 11.312 5.74391 11.8C5.28791 12.288 5.06391 12.864 5.06391 13.528C5.06391 14.224 5.30391 14.824 5.78391 15.336C6.26391 15.848 6.84791 16.12 7.52791 16.152C7.61591 16.152 7.66391 16.2 7.66391 16.296V17.36C7.66391 17.448 7.61591 17.496 7.52791 17.496C6.45591 17.448 5.55191 17.04 4.80791 16.272C4.06391 15.504 3.71191 14.592 3.71191 13.528ZM7.99191 18.88C7.99191 18.848 7.99991 18.792 8.02391 18.72L9.32791 14.104C9.37591 13.952 9.46391 13.832 9.58391 13.752C9.70391 13.672 9.83191 13.632 9.95191 13.632C10.0079 13.632 10.0719 13.64 10.1439 13.656C10.3359 13.688 10.4799 13.792 10.5759 13.952C10.6719 14.112 10.6959 14.288 10.6399 14.488L9.33591 19.072C9.23991 19.416 9.01591 19.584 8.67991 19.584C8.64791 19.584 8.62391 19.576 8.59191 19.568C8.54391 19.552 8.51991 19.544 8.51191 19.544C8.33591 19.496 8.20791 19.408 8.11991 19.28C8.03191 19.144 7.99191 19.016 7.99191 18.88ZM10.0879 21.128L12.0399 14.112C12.0719 13.96 12.1519 13.84 12.2799 13.76C12.4079 13.68 12.5359 13.64 12.6719 13.64C12.7439 13.64 12.8159 13.648 12.8879 13.664C13.0639 13.712 13.1919 13.816 13.2799 13.976C13.3679 14.136 13.3839 14.304 13.3359 14.488L11.3919 21.512C11.3599 21.648 11.2879 21.76 11.1599 21.856C11.0319 21.952 10.9039 22 10.7519 22C10.6799 22 10.6079 21.984 10.5519 21.96C10.3919 21.92 10.2559 21.816 10.1359 21.648C10.0479 21.504 10.0319 21.336 10.0879 21.128ZM13.3919 18.896C13.3919 18.864 13.3999 18.808 13.4239 18.712L14.7279 14.096C14.7759 13.944 14.8559 13.824 14.9679 13.744C15.0879 13.664 15.2079 13.624 15.3359 13.624C15.3999 13.624 15.4719 13.632 15.5439 13.648C15.7119 13.696 15.8319 13.776 15.9119 13.896C15.9919 14.016 16.0319 14.144 16.0319 14.272C16.0319 14.296 16.0239 14.336 16.0159 14.384C16.0079 14.432 15.9999 14.464 15.9999 14.48L14.6959 19.064C14.6639 19.216 14.5919 19.344 14.4719 19.432C14.3519 19.52 14.2159 19.568 14.0639 19.568L13.8719 19.528C13.7119 19.48 13.5919 19.4 13.5039 19.272C13.4319 19.152 13.3919 19.024 13.3919 18.896Z" fill="black"/>
</g>
</g>
</g>
</svg>
