<svg width="24" height="24" viewBox="0 0 24 24" fill="none" xmlns="http://www.w3.org/2000/svg">
<rect width="24" height="24" fill="#1E1E1E"/>
<g id="Weather Icons (imported from react-icons v4.6.0)">
<rect width="1000" height="568" transform="translate(-368 -416)" fill="white"/>
<g id="Row 9">
<rect width="936" height="24" transform="translate(-336)" fill="white"/>
<g id="react-icons/wi/WiShowers">
<path id="Vector" d="M3.68018 13.544C3.68018 12.616 3.96818 11.8 4.55218 11.08C5.12818 10.36 5.87218 9.89601 6.77618 9.69601C7.00818 8.59201 7.56018 7.69601 8.43218 6.98401C9.30418 6.27201 10.3042 5.92001 11.4402 5.92001C12.5522 5.92001 13.5442 6.26401 14.4162 6.94401C15.2802 7.62401 15.8482 8.50401 16.1122 9.58401H16.3842C17.1042 9.58401 17.7682 9.76001 18.3682 10.112C18.9762 10.464 19.4482 10.944 19.8002 11.552C20.1442 12.16 20.3202 12.824 20.3202 13.544C20.3202 14.616 19.9522 15.528 19.2242 16.296C18.4882 17.064 17.5922 17.464 16.5282 17.496C16.4322 17.496 16.3842 17.448 16.3842 17.36V16.288C16.3842 16.2 16.4322 16.152 16.5282 16.152C17.2002 16.096 17.7842 15.816 18.2642 15.312C18.7442 14.808 18.9842 14.216 18.9842 13.536C18.9842 12.824 18.7282 12.208 18.2162 11.688C17.7042 11.176 17.0962 10.912 16.3842 10.912H15.0802C14.9842 10.912 14.9282 10.864 14.9042 10.768L14.8482 10.312C14.7922 9.74401 14.6082 9.22401 14.2882 8.76001C13.9682 8.29601 13.5602 7.93601 13.0642 7.67201C12.5682 7.40801 12.0242 7.28001 11.4482 7.28001C10.5682 7.28001 9.80818 7.56801 9.16018 8.15201C8.51218 8.73601 8.14418 9.46401 8.06418 10.328L8.00818 10.76C8.00818 10.832 7.96818 10.872 7.88018 10.872L7.44818 10.96C6.77618 11.016 6.20818 11.288 5.76018 11.784C5.30418 12.28 5.08018 12.864 5.08018 13.544C5.08018 14.24 5.32018 14.84 5.79218 15.344C6.26418 15.848 6.84018 16.12 7.52818 16.16C7.62418 16.16 7.67218 16.208 7.67218 16.296V17.368C7.67218 17.456 7.62418 17.504 7.52818 17.504C7.00018 17.48 6.50418 17.36 6.02418 17.144C5.54418 16.928 5.13618 16.64 4.80018 16.288C4.45618 15.936 4.18418 15.528 3.98418 15.048C3.78418 14.568 3.68018 14.072 3.68018 13.544ZM8.01618 18.96C8.01618 18.936 8.02418 18.896 8.03218 18.856C8.04018 18.816 8.04818 18.784 8.04818 18.768L8.26418 17.944C8.32018 17.768 8.42418 17.624 8.58418 17.536C8.74418 17.44 8.91218 17.424 9.09618 17.48C9.28018 17.536 9.41618 17.64 9.51218 17.8C9.60818 17.96 9.62418 18.128 9.56818 18.312L9.37618 19.12C9.27218 19.472 9.07218 19.648 8.76818 19.648C8.74418 19.648 8.72818 19.648 8.69618 19.648C8.67218 19.648 8.64018 19.64 8.60818 19.64C8.57618 19.632 8.55218 19.632 8.52818 19.632C8.36018 19.584 8.23218 19.488 8.14418 19.36C8.05618 19.232 8.01618 19.088 8.01618 18.96ZM9.07218 15.104C9.07218 15.088 9.07218 15.056 9.08018 15.016C9.08818 14.976 9.08818 14.952 9.08818 14.944L9.32818 14.104C9.37618 13.952 9.46418 13.832 9.58418 13.744C9.70418 13.664 9.83218 13.624 9.96018 13.624C9.97618 13.624 10.0002 13.624 10.0242 13.624C10.0482 13.624 10.0722 13.632 10.0962 13.632C10.1202 13.64 10.1442 13.64 10.1602 13.64C10.3442 13.696 10.4802 13.8 10.5682 13.96C10.6642 14.12 10.6802 14.288 10.6242 14.472L10.4322 15.272C10.3762 15.496 10.2722 15.648 10.1122 15.744C9.95218 15.84 9.77618 15.84 9.59218 15.76C9.41618 15.712 9.28818 15.624 9.20018 15.488C9.11218 15.352 9.07218 15.232 9.07218 15.104ZM10.0562 21.464C10.0562 21.44 10.0642 21.408 10.0722 21.36C10.0802 21.312 10.0882 21.288 10.0882 21.264L10.3202 20.472C10.3682 20.28 10.4802 20.136 10.6402 20.04C10.8002 19.944 10.9762 19.92 11.1602 19.976C11.3442 20.032 11.4722 20.136 11.5682 20.304C11.6642 20.472 11.6722 20.64 11.6242 20.824L11.4242 21.656C11.3362 21.984 11.1282 22.144 10.7842 22.144C10.7442 22.144 10.6802 22.136 10.5922 22.112C10.4162 22.08 10.2882 22 10.2002 21.872C10.1042 21.744 10.0562 21.608 10.0562 21.464ZM11.1282 17.648C11.1282 17.6 11.1362 17.536 11.1602 17.448L11.3762 16.624C11.4322 16.44 11.5362 16.304 11.7042 16.216C11.8642 16.12 12.0402 16.104 12.2242 16.16C12.4082 16.208 12.5362 16.312 12.6322 16.472C12.7202 16.632 12.7362 16.8 12.6802 16.992L12.4882 17.784C12.3842 18.144 12.1922 18.328 11.9122 18.328C11.8802 18.328 11.7922 18.312 11.6642 18.28C11.4882 18.248 11.3602 18.168 11.2722 18.04C11.1762 17.92 11.1282 17.784 11.1282 17.648ZM13.3842 18.992C13.3842 18.936 13.3922 18.872 13.4082 18.8L13.6322 18.008C13.6882 17.816 13.7922 17.672 13.9602 17.576C14.1282 17.48 14.2882 17.456 14.4642 17.504C14.6482 17.56 14.7922 17.664 14.8882 17.832C14.9842 17.992 15.0082 18.16 14.9602 18.336L14.7282 19.184C14.6482 19.512 14.4402 19.672 14.0962 19.672C14.0242 19.672 13.9522 19.664 13.8882 19.648C13.7282 19.616 13.6082 19.536 13.5202 19.408C13.4402 19.264 13.3922 19.128 13.3842 18.992ZM14.4882 15.184C14.4882 15.16 14.5042 15.088 14.5282 14.976L14.7682 14.152C14.8002 13.984 14.8722 13.856 15.0002 13.776C15.1282 13.696 15.2562 13.656 15.3922 13.664C15.4242 13.656 15.4962 13.664 15.5842 13.688C15.7602 13.728 15.8962 13.832 16.0002 13.992C16.0962 14.128 16.1122 14.296 16.0562 14.512L15.8642 15.336C15.7602 15.68 15.5602 15.856 15.2562 15.856C15.2082 15.856 15.1202 15.84 14.9842 15.808C14.8162 15.76 14.6962 15.672 14.6162 15.56C14.5282 15.432 14.4882 15.312 14.4882 15.184Z" fill="black"/>
</g>
</g>
</g>
</svg>
