<svg width="24" height="24" viewBox="0 0 24 24" fill="none" xmlns="http://www.w3.org/2000/svg">
<rect width="24" height="24" fill="#1E1E1E"/>
<g id="Weather Icons (imported from react-icons v4.6.0)">
<rect width="1000" height="568" transform="translate(-512 -80)" fill="white"/>
<g id="Row 2">
<rect width="936" height="24" transform="translate(-480)" fill="white"/>
<g id="react-icons/wi/WiDaySunny">
<path id="Vector" d="M3.49609 11.696C3.49609 11.504 3.56009 11.336 3.69609 11.2C3.83209 11.072 4.00009 11.008 4.17609 11.008H5.80809C5.99209 11.008 6.14409 11.072 6.27209 11.208C6.39209 11.344 6.45609 11.504 6.45609 11.696C6.45609 11.888 6.40009 12.048 6.28009 12.184C6.16009 12.32 6.00009 12.384 5.81609 12.384H4.18409C4.00009 12.384 3.84009 12.32 3.70409 12.184C3.56809 12.048 3.49609 11.888 3.49609 11.696ZM5.78409 17.24C5.78409 17.056 5.84809 16.896 5.96809 16.752L7.14409 15.608C7.26409 15.48 7.42409 15.424 7.61609 15.424C7.80809 15.424 7.96809 15.488 8.09609 15.608C8.22409 15.728 8.28809 15.88 8.28809 16.064C8.28809 16.256 8.22409 16.432 8.09609 16.576L6.96009 17.712C6.63209 17.968 6.30409 17.968 5.97609 17.712C5.84809 17.584 5.78409 17.424 5.78409 17.24ZM5.78409 6.168C5.78409 5.984 5.84809 5.824 5.96809 5.68C6.12809 5.544 6.29609 5.48 6.48009 5.48C6.65609 5.48 6.81609 5.544 6.95209 5.672L8.09609 6.848C8.22409 6.968 8.28809 7.128 8.28809 7.32C8.28809 7.512 8.22409 7.672 8.09609 7.8C7.96809 7.928 7.80809 7.992 7.61609 7.992C7.42409 7.992 7.26409 7.928 7.14409 7.8L5.97609 6.656C5.84809 6.528 5.78409 6.36 5.78409 6.168ZM7.82409 11.696C7.82409 10.952 8.00809 10.256 8.38409 9.616C8.76009 8.976 9.26409 8.464 9.91209 8.088C10.5601 7.712 11.2481 7.528 11.9921 7.528C12.5521 7.528 13.0881 7.64 13.6081 7.864C14.1201 8.088 14.5681 8.384 14.9361 8.76C15.3121 9.136 15.6081 9.576 15.8241 10.088C16.0401 10.6 16.1521 11.144 16.1521 11.704C16.1521 12.456 15.9681 13.152 15.5921 13.792C15.2161 14.432 14.7121 14.936 14.0721 15.312C13.4321 15.688 12.7361 15.872 11.9841 15.872C11.2321 15.872 10.5361 15.688 9.89609 15.312C9.25609 14.936 8.75209 14.432 8.37609 13.792C8.01609 13.144 7.82409 12.448 7.82409 11.696ZM9.18409 11.696C9.18409 12.48 9.45609 13.144 10.0081 13.696C10.5521 14.248 11.2161 14.528 12.0001 14.528C12.7841 14.528 13.4481 14.248 14.0001 13.696C14.5521 13.144 14.8321 12.48 14.8321 11.696C14.8321 10.928 14.5521 10.272 14.0001 9.72C13.4481 9.176 12.7841 8.904 12.0001 8.904C11.2241 8.904 10.5601 9.176 10.0161 9.72C9.45609 10.272 9.18409 10.928 9.18409 11.696ZM11.3121 17.92C11.3121 17.728 11.3761 17.568 11.5121 17.44C11.6481 17.312 11.8081 17.248 11.9921 17.248C12.1841 17.248 12.3521 17.312 12.4801 17.44C12.6081 17.568 12.6721 17.728 12.6721 17.92V19.512C12.6721 19.704 12.6081 19.872 12.4721 20.008C12.3361 20.144 12.1761 20.208 11.9921 20.208C11.8081 20.208 11.6401 20.144 11.5121 20.008C11.3761 19.872 11.3121 19.704 11.3121 19.512V17.92ZM11.3121 5.52V3.888C11.3121 3.704 11.3761 3.544 11.5121 3.408C11.6481 3.272 11.8081 3.2 12.0001 3.2C12.1921 3.2 12.3441 3.264 12.4801 3.4C12.6161 3.536 12.6801 3.696 12.6801 3.88V5.52C12.6801 5.704 12.6161 5.856 12.4801 5.984C12.3441 6.112 12.1841 6.168 12.0001 6.168C11.8161 6.168 11.6481 6.104 11.5201 5.984C11.3921 5.864 11.3121 5.704 11.3121 5.52ZM15.7281 16.064C15.7281 15.88 15.7921 15.728 15.9121 15.616C16.0321 15.488 16.1841 15.432 16.3601 15.432C16.5521 15.432 16.7121 15.496 16.8401 15.616L18.0081 16.76C18.1361 16.896 18.2001 17.064 18.2001 17.248C18.2001 17.432 18.1361 17.592 18.0081 17.72C17.6881 17.968 17.3681 17.968 17.0481 17.72L15.9121 16.584C15.7921 16.44 15.7281 16.272 15.7281 16.064ZM15.7281 7.328C15.7281 7.128 15.7921 6.968 15.9121 6.856L17.0481 5.68C17.1841 5.552 17.3441 5.488 17.5201 5.488C17.7121 5.488 17.8721 5.552 18.0001 5.688C18.1361 5.824 18.2001 5.984 18.2001 6.168C18.2001 6.368 18.1361 6.536 18.0081 6.664L16.8401 7.808C16.6961 7.936 16.5361 8 16.3601 8C16.1761 8 16.0321 7.936 15.9121 7.808C15.7921 7.68 15.7281 7.52 15.7281 7.328ZM17.5361 11.696C17.5361 11.504 17.6001 11.344 17.7281 11.2C17.8561 11.072 18.0081 11.008 18.1841 11.008H19.8001C19.9841 11.008 20.1441 11.08 20.2801 11.216C20.4161 11.352 20.4881 11.512 20.4881 11.696C20.4881 11.88 20.4161 12.04 20.2801 12.176C20.1441 12.312 19.9841 12.376 19.8001 12.376H18.1841C18.0001 12.376 17.8401 12.312 17.7201 12.176C17.6001 12.04 17.5361 11.888 17.5361 11.696Z" fill="black"/>
</g>
</g>
</g>
</svg>
