<svg width="24" height="24" viewBox="0 0 24 24" fill="none" xmlns="http://www.w3.org/2000/svg">
<rect width="24" height="24" fill="#1E1E1E"/>
<g id="Weather Icons (imported from react-icons v4.6.0)">
<rect width="1000" height="568" transform="translate(-320 -464)" fill="white"/>
<g id="Row 10">
<rect width="936" height="24" transform="translate(-288)" fill="white"/>
<g id="react-icons/wi/WiThunderstorm">
<path id="Vector" d="M3.7041 13.528C3.7041 14.416 3.9681 15.208 4.4961 15.904C5.0241 16.6 5.7121 17.08 6.5601 17.336L6.0321 18.68C6.0081 18.792 6.0481 18.856 6.1441 18.856H7.8481L7.0641 22.296H7.2881L10.4241 17.696C10.4561 17.664 10.4561 17.624 10.4321 17.584C10.4081 17.544 10.3681 17.528 10.3121 17.528H8.5681L10.5521 13.816C10.6081 13.704 10.5681 13.64 10.4401 13.64H8.0881C8.0161 13.64 7.9521 13.68 7.9041 13.76L7.0481 16.056C6.4801 15.912 6.0081 15.6 5.6321 15.128C5.2561 14.656 5.0721 14.12 5.0721 13.52C5.0721 12.856 5.2961 12.28 5.7521 11.784C6.2081 11.296 6.7681 11.008 7.4321 10.928L7.8561 10.872C7.9601 10.872 8.0161 10.824 8.0161 10.728L8.0721 10.32C8.1601 9.45601 8.5201 8.72801 9.1681 8.14401C9.8161 7.56001 10.5761 7.26401 11.4481 7.26401C12.3201 7.26401 13.0801 7.56001 13.7281 8.14401C14.3841 8.72801 14.7521 9.45601 14.8481 10.32L14.9041 10.784C14.9041 10.872 14.9521 10.92 15.0481 10.92H16.3281C17.0561 10.92 17.6721 11.176 18.1841 11.68C18.6961 12.184 18.9601 12.8 18.9601 13.504C18.9601 14.184 18.7201 14.776 18.2481 15.272C17.7761 15.768 17.1841 16.048 16.4881 16.104C16.3841 16.104 16.3281 16.152 16.3281 16.248V17.344C16.3281 17.432 16.3841 17.48 16.4881 17.48C17.5521 17.448 18.4561 17.04 19.2001 16.272C19.9441 15.504 20.3121 14.584 20.3121 13.512C20.3121 12.792 20.1361 12.128 19.7761 11.52C19.4241 10.912 18.9361 10.432 18.3281 10.08C17.7121 9.72801 17.0481 9.55201 16.3281 9.55201H16.0801C15.8161 8.48801 15.2481 7.61601 14.3921 6.94401C13.5361 6.27201 12.5521 5.92801 11.4481 5.92801C10.3201 5.92801 9.3121 6.28001 8.4401 6.97601C7.5681 7.67201 7.0081 8.56801 6.7601 9.66401C5.8721 9.87201 5.1441 10.328 4.5681 11.048C3.9921 11.768 3.7041 12.608 3.7041 13.528ZM10.2161 21.296C10.2161 21.608 10.3681 21.816 10.6801 21.912C10.6881 21.912 10.7201 21.912 10.7681 21.92C10.8161 21.928 10.8561 21.928 10.8801 21.928C11.0161 21.928 11.1441 21.888 11.2721 21.808C11.4001 21.728 11.4881 21.6 11.5281 21.424L13.3281 14.472C13.3761 14.28 13.3601 14.112 13.2721 13.952C13.1841 13.8 13.0561 13.696 12.8721 13.64C12.7361 13.624 12.6641 13.616 12.6641 13.616C12.5361 13.616 12.4081 13.656 12.2881 13.736C12.1681 13.816 12.0801 13.936 12.0401 14.096L10.2321 21.072C10.2241 21.152 10.2161 21.224 10.2161 21.296ZM13.5441 18.848C13.5441 18.952 13.5681 19.056 13.6241 19.152C13.7361 19.328 13.8721 19.448 14.0321 19.504C14.1201 19.528 14.2001 19.544 14.2721 19.544C14.3441 19.544 14.4321 19.528 14.5281 19.48C14.6961 19.408 14.8081 19.256 14.8641 19.024L16.0161 14.488C16.0401 14.376 16.0561 14.304 16.0561 14.272C16.0561 14.152 16.0161 14.032 15.9281 13.912C15.8401 13.792 15.7201 13.704 15.5601 13.656C15.4241 13.64 15.3521 13.632 15.3521 13.632C15.2161 13.632 15.0881 13.672 14.9761 13.752C14.8641 13.832 14.7841 13.952 14.7361 14.112L13.5681 18.672C13.5681 18.688 13.5681 18.712 13.5601 18.76C13.5441 18.8 13.5441 18.824 13.5441 18.848Z" fill="black"/>
</g>
</g>
</g>
</svg>
