<svg width="18" height="18" viewBox="0 0 18 18" fill="none" xmlns="http://www.w3.org/2000/svg">
<path id="Vector (Stroke)" fill-rule="evenodd" clip-rule="evenodd" d="M9.00005 2.25005C5.27213 2.25005 2.25005 5.27213 2.25005 9.00005C2.25005 12.728 5.27213 15.75 9.00005 15.75C12.728 15.75 15.75 12.728 15.75 9.00005C15.75 5.27213 12.728 2.25005 9.00005 2.25005ZM0.750048 9.00005C0.750048 4.4437 4.4437 0.750048 9.00005 0.750048C13.5564 0.750048 17.25 4.4437 17.25 9.00005C17.25 13.5564 13.5564 17.25 9.00005 17.25C4.4437 17.25 0.750048 13.5564 0.750048 9.00005Z" fill="#3E4A3D"/>
<path id="Vector (Stroke)_2" fill-rule="evenodd" clip-rule="evenodd" d="M9.00005 3.75C9.41426 3.75 9.75005 4.08579 9.75005 4.5V8.53648L12.3355 9.82918C12.7059 10.0144 12.8561 10.4649 12.6709 10.8354C12.4856 11.2059 12.0351 11.3561 11.6646 11.1708L8.66464 9.67082C8.41055 9.54378 8.25005 9.28408 8.25005 9V4.5C8.25005 4.08579 8.58584 3.75 9.00005 3.75Z" fill="#3E4A3D"/>
</svg>
