<svg width="18" height="18" viewBox="0 0 18 18" fill="none" xmlns="http://www.w3.org/2000/svg">
<path id="Vector" d="M7.06993 12.6984L4.68633 14.4176C4.55625 14.5441 4.50352 14.7375 4.5 14.9062C4.49649 15.075 4.54219 15.2156 4.66524 15.3457C4.7918 15.4828 4.97461 15.5637 5.14336 15.5637C5.30157 15.5637 5.58282 15.3914 5.70586 15.2684L8.15625 13.4543C8.28282 13.3313 8.35664 13.159 8.35664 12.9797L8.67657 11.134L7.06993 9.49219V12.6984Z" fill="#3E4A3D"/>
<path id="Vector_2" d="M10.95 2.64635C11.066 1.93148 10.5806 1.2579 9.86568 1.14187C9.15081 1.02585 8.47724 1.51131 8.36121 2.22618C8.24518 2.94105 8.73064 3.61463 9.44551 3.73065C10.1604 3.84668 10.834 3.36122 10.95 2.64635Z" fill="#3E4A3D"/>
<path id="Vector_3" d="M12.3293 16.1438L11.7949 12.0164C11.7773 11.8934 11.7281 11.7773 11.6473 11.6824L9.64336 9.26367V5.05898C9.64336 4.66172 9.42188 4.5 9 4.5H7.69922C7.60078 4.5 7.51641 4.53516 7.42852 4.58086L5.03789 5.69531C4.68633 5.88164 4.5 6.23672 4.5 6.7043V9C4.5 9.36211 4.78828 9.65742 5.14336 9.65742C5.49844 9.65742 5.78672 9.36211 5.78672 9V6.95391C5.78672 6.84844 5.84648 6.75 5.94141 6.7043L7.07344 6.12773V8.775C7.07344 8.92266 7.12969 9.06328 7.23516 9.16875L10.4836 12.4875C10.5258 12.5297 10.5539 12.5859 10.5609 12.6457L11.0602 16.3266C11.1059 16.6535 11.3801 16.8785 11.6965 16.8785H11.7668C12.1148 16.8258 12.3785 16.5023 12.3293 16.1438Z" fill="#3E4A3D"/>
<path id="Vector_4" d="M13.3032 8.17033L9.96332 4.7883V6.63752L12.3961 9.10197C12.6493 9.35861 13.0536 9.3551 13.3067 9.09846C13.4297 8.97189 13.5 8.83478 13.5 8.66955C13.5 8.5008 13.4297 8.30041 13.3032 8.17033Z" fill="#3E4A3D"/>
</svg>
