<svg width="12" height="13" viewBox="0 0 12 13" fill="none" xmlns="http://www.w3.org/2000/svg">
<path d="M8.48393 1.11962C8.4997 1.14722 8.53913 1.15707 8.56278 1.1413C8.59038 1.12553 8.60418 1.10187 8.59629 1.09004C8.58841 1.07624 8.5549 1.06836 8.51744 1.06836C8.48393 1.06836 8.46816 1.09399 8.48393 1.11962Z" fill="white"/>
<path d="M10.0133 9.42551C10.1336 9.18499 10.2341 8.96419 10.2361 8.93856C10.242 8.84788 10.4352 8.40429 10.4549 8.43583C10.512 8.52849 10.449 9.21062 10.3662 9.38805C10.2499 9.63448 10.2341 9.8612 10.3327 9.83754C10.3701 9.82966 10.449 9.8336 10.514 9.84937C10.6185 9.87303 10.6481 9.85528 10.79 9.66996C11.4582 8.79661 11.1389 6.1529 11.0522 6.0149C11.0029 5.93407 10.991 5.43528 10.9083 5.03311C10.8767 4.87933 10.8511 4.65263 10.8491 4.52448C10.8491 4.40028 10.8294 4.28988 10.8077 4.28593C10.786 4.28002 10.7269 4.09076 10.6757 3.86601C10.5593 3.33963 9.91082 2.12917 9.74918 2.13508C9.63288 2.13903 9.42787 1.93202 9.4673 1.8512C9.48307 1.81965 9.43773 1.79205 9.36676 1.78811C9.23075 1.78022 9.06123 1.58505 9.10853 1.49042C9.12233 1.46282 9.08291 1.41551 9.0218 1.38396C8.96069 1.35439 8.89761 1.35242 8.88382 1.38396C8.86805 1.41353 8.84636 1.3879 8.83059 1.32481C8.80497 1.22427 8.61967 1.14344 8.53491 1.19667C8.52111 1.20653 8.47972 1.16908 8.44621 1.11387C8.4127 1.06065 8.22346 0.952213 8.03225 0.877298C7.84104 0.802383 7.61829 0.703803 7.54733 0.660431C7.47439 0.617059 7.3167 0.56581 7.19843 0.546096C7.08015 0.526381 6.95202 0.465268 6.9126 0.412039C6.86726 0.346981 6.81207 0.331199 6.75687 0.364714C6.70956 0.394285 6.62086 0.380492 6.56172 0.335149C6.4533 0.252348 6.06695 0.175462 5.51303 0.126176C5.34154 0.110404 5.19567 0.0768866 5.18581 0.0492863C5.17596 0.021686 5.10893 0 5.03403 0C4.92167 0 4.91181 0.00591676 4.97489 0.0394314C5.01629 0.0611174 4.98672 0.0709679 4.91181 0.0571677C4.65161 0.0157673 3.8513 0.216862 3.55956 0.396264C3.50831 0.427807 3.26979 0.540171 3.0293 0.64663C2.52073 0.871375 1.85248 1.31102 1.87417 1.40762C1.88402 1.44705 1.83277 1.49238 1.74604 1.52393C1.63959 1.56139 1.62777 1.57716 1.70267 1.58111C1.83869 1.58899 1.80912 1.69348 1.68493 1.67771C1.58046 1.66391 1.30054 1.90245 1.18621 2.0996C1.10145 2.24549 1.02063 2.54712 1.05808 2.57669C1.07188 2.58852 1.03837 2.624 0.979235 2.65949C0.920099 2.69497 0.878703 2.74426 0.886588 2.77581C0.933897 2.98872 0.912215 3.05378 0.793942 3.05575C0.707208 3.05575 0.667784 3.08138 0.644129 3.15432C0.523885 3.52298 0.466719 3.65901 0.417439 3.69252C0.38787 3.71224 0.391812 3.75364 0.429265 3.78124C0.472632 3.81476 0.456864 3.91333 0.3859 4.05725C0.324792 4.17948 0.265655 4.36677 0.257771 4.46534C0.249886 4.56391 0.214403 4.66643 0.182863 4.68614C0.151324 4.70586 0.135555 4.73937 0.151325 4.75514C0.249886 4.85765 0.208489 5.35643 0.0783892 5.61271C0.0330512 5.70537 0.00742602 5.86704 0.025167 5.97547C0.0429079 6.0839 0.0389653 6.2219 0.0172819 6.28499C-0.00440146 6.35004 -0.0063731 6.42496 0.0153103 6.45848C0.0350225 6.49002 0.0468507 6.62802 0.0409371 6.76207C0.0350234 6.89613 0.0488218 7.03611 0.068534 7.06962C0.0882462 7.10116 0.0921877 7.20959 0.0783892 7.30028C0.0626194 7.39688 0.0843032 7.4994 0.129641 7.53883C0.210461 7.60783 0.383929 8.1421 0.407583 8.39444C0.423353 8.56399 1.14087 9.75277 1.42867 10.0919C1.51343 10.1904 1.62777 10.3087 1.75787 10.4309C1.79532 10.2693 1.81306 10.1609 1.77758 10.149C1.78941 10.1175 1.65536 10.1313 1.93528 9.35256C2.54635 7.64923 2.19745 9.44719 2.62323 9.59899C2.913 9.70348 2.02989 10.5788 2.53255 10.7602C2.67448 10.8114 2.71588 10.9889 2.68237 11.1978C2.81247 11.2905 2.91891 11.3536 2.98002 11.3733C3.05098 11.395 3.22445 11.4837 3.37032 11.5744C3.67783 11.7637 4.62796 11.9983 5.25086 12.0397C5.72396 12.0712 6.51441 11.9904 6.78053 11.8839C6.8712 11.8484 6.97568 11.8189 7.0151 11.8189C7.09986 11.8189 7.12746 11.809 7.63209 11.5902C7.84301 11.4975 8.13081 11.3359 8.26485 11.2353C9.41013 10.3679 9.68807 10.08 10.0153 9.42353L10.0133 9.42551Z" fill="white"/>
<path d="M6.43364 1.56302C6.3134 1.58668 6.34297 1.50781 6.4297 1.50781C6.53615 1.50781 6.53812 1.5433 6.43364 1.56302Z" fill="white"/>
<path d="M5.70594 2.82582C5.7434 2.70359 5.89124 2.8199 5.91884 2.73513C5.94052 2.66613 6.06471 2.66218 6.0036 2.85538C5.93658 3.07421 5.67638 2.92242 5.70594 2.82582Z" fill="white"/>
<path d="M5.74807 3.5958C5.58446 3.5544 5.32228 3.41837 5.28483 3.35923C5.22964 3.26854 5.45436 3.32375 5.66922 3.45189C5.87422 3.57412 5.90774 3.6372 5.74807 3.5958Z" fill="white"/>
<path d="M5.9158 3.62851C5.9434 3.61274 5.96902 3.6088 5.97494 3.61866C5.98282 3.63048 5.97494 3.664 5.95917 3.69752C5.91974 3.77441 5.85272 3.66597 5.9158 3.62851Z" fill="white"/>
<path d="M6.07615 3.82901C5.99927 3.76987 6.01701 3.66933 6.0998 3.68904C6.16879 3.70482 6.19836 3.7679 6.16879 3.82901C6.15499 3.85661 6.11163 3.85464 6.07615 3.82901Z" fill="white"/>
<path d="M1.43919 9.81933C1.49241 9.85679 1.57915 9.95338 1.62646 10.0303C1.70136 10.1525 1.69939 10.1624 1.61463 10.1032C1.56141 10.0658 1.47467 9.96916 1.42737 9.89228C1.35246 9.77005 1.35443 9.76019 1.43919 9.81933Z" fill="white"/>
<path d="M8.06466 3.69267C8.02524 3.56255 8.23024 3.89376 8.15139 3.83462C8.11986 3.81096 8.07846 3.7459 8.06466 3.69267Z" fill="white"/>
<path d="M0.657208 8.62083C0.598071 8.60703 0.558647 8.42171 0.645381 8.54394C0.678891 8.59126 0.684805 8.62675 0.657208 8.62083Z" fill="white"/>
<path d="M5.36295 5.54963C5.46742 5.62257 5.65666 5.2066 5.71185 5.33475C5.76508 5.45698 5.4418 5.80987 5.53444 5.87492C5.5719 5.90055 5.52656 6.0287 5.43391 6.16276C5.00616 6.77588 5.09092 5.36234 5.36295 5.5516V5.54963Z" fill="white"/>
<path d="M8.54079 4.33739C8.51319 4.33148 8.48756 4.29206 8.47968 4.24868C8.45997 4.14025 8.6019 4.35316 8.54079 4.33739Z" fill="white"/>
<path d="M10.2462 3.7758C10.3428 3.99464 10.3073 4.03406 10.0846 3.94732C9.6233 3.76792 10.1122 3.47023 10.2462 3.7758Z" fill="white"/>
<path d="M9.20043 7.04774C9.16495 7.04774 9.12552 6.86244 9.11172 6.62784C9.0861 6.22172 8.98556 5.85305 8.71551 5.17881C8.64257 4.99941 8.60118 4.83775 8.62483 4.82395C8.64652 4.81015 8.68988 4.86338 8.72142 4.94421C8.75099 5.02307 8.85349 5.26753 8.94614 5.47848C9.2024 6.06597 9.36207 7.04774 9.20043 7.04774Z" fill="white"/>
<path d="M9.16845 7.3474C9.33206 7.12068 9.16253 7.90137 9.12114 7.927C9.07777 7.9546 9.12114 7.41245 9.16845 7.3474Z" fill="white"/>
<path d="M5.79348 10.6754C5.80136 10.6852 6.09113 10.6576 5.85656 10.8528C5.66141 11.0145 5.43866 10.6695 5.79348 10.6754Z" fill="white"/>
<path d="M7.70971 10.2015C7.24056 10.3119 7.20114 9.49773 7.36869 9.45633C7.58947 9.40508 7.27013 8.60072 7.49879 8.67563C7.58947 8.70521 7.67423 8.61847 7.69394 8.47258C7.75702 8.00535 8.65984 7.9324 8.76629 8.38386C8.92004 9.03444 8.19858 8.77027 8.26954 9.07782C8.33853 9.36762 7.78659 9.12908 7.93049 9.73431C7.89501 9.7422 8.11973 10.103 7.70971 10.1976V10.2015Z" fill="white"/>
</svg>
