<svg width="24" height="24" viewBox="0 0 24 24" fill="none" xmlns="http://www.w3.org/2000/svg">
<path d="M20.5167 10.5334C20.1458 10.5334 19.7375 10.8126 19.7375 11.4792H21.2667C21.2667 10.8126 20.8792 10.5334 20.5167 10.5334ZM15.625 10.6417C15.2833 10.6417 15.0708 10.7626 14.9167 10.9334L14.925 13.1334C15.0708 13.2876 15.2792 13.4126 15.625 13.4126C16.1708 13.4126 16.5375 12.8167 16.5375 12.0209C16.5375 11.2459 16.1625 10.6376 15.625 10.6417ZM22 2.66675H2C0.895833 2.66675 0 3.56258 0 4.66675V19.3334C0 20.4376 0.895833 21.3334 2 21.3334H22C23.1042 21.3334 24 20.4376 24 19.3334V4.66675C24 3.56258 23.1042 2.66675 22 2.66675ZM5.09167 13.0459C5.09167 14.1126 4.24583 14.7167 3.0125 14.7251C2.50417 14.7251 1.94583 14.6251 1.39583 14.3876V12.9751C1.89583 13.2417 2.525 13.4459 3.01667 13.4459C3.34583 13.4459 3.58333 13.3584 3.58333 13.0834C3.58333 12.3751 1.33333 12.6417 1.33333 11.0042C1.33333 9.95425 2.13333 9.32925 3.33333 9.32925C3.825 9.32925 4.3125 9.40425 4.80417 9.60008V10.9917C4.35417 10.7501 3.78333 10.6126 3.33333 10.6126C3.02083 10.6126 2.82917 10.7042 2.82917 10.9334C2.82917 11.6001 5.09167 11.2834 5.09167 13.0459ZM7.95833 10.6876H6.83333V12.7917C6.83333 13.6626 7.77083 13.3917 7.95833 13.3167V14.5209C7.7625 14.6292 7.40417 14.7167 6.92083 14.7167C6.04167 14.7167 5.38333 14.0709 5.38333 13.1959L5.39167 8.45008L6.8375 8.14175V9.42508H7.95833V10.6876ZM11.0417 10.7876C10.8542 10.7251 10.2625 10.6376 9.9125 11.0959V14.6126H8.43333V9.42508H9.7125L9.80417 9.86258C10.15 9.22508 10.8417 9.35425 11.0375 9.42508H11.0417V10.7876ZM12.8792 14.6126H11.3917V9.42508H12.8792V14.6126ZM12.8792 8.65841L11.3917 8.97508V7.77092L12.8792 7.45425V8.65841ZM15.9667 14.7209C15.45 14.7209 15.1333 14.5001 14.9208 14.3459L14.9167 16.0209L13.4375 16.3334V9.42508H14.7417L14.8167 9.79175C15.0208 9.60425 15.3958 9.32925 15.975 9.32925C17.0125 9.32925 17.9917 10.2667 17.9917 11.9876C17.9917 13.8667 17.025 14.7167 15.9667 14.7209ZM22.65 12.5751H19.7542C19.8208 13.2667 20.3292 13.4709 20.9042 13.4709C21.4917 13.4709 21.9542 13.3459 22.3583 13.1417V14.3334C21.9542 14.5542 21.425 14.7167 20.7167 14.7167C19.275 14.7167 18.2667 13.8126 18.2667 12.0292C18.2667 10.5209 19.1208 9.32508 20.5292 9.32508C21.9333 9.32508 22.6667 10.5209 22.6667 12.0376C22.6667 12.1834 22.6542 12.4917 22.65 12.5751Z" fill="#3E4A3D"/>
</svg>
