<svg width="96" height="75" viewBox="0 0 96 75" fill="none" xmlns="http://www.w3.org/2000/svg">
<path d="M0.00672346 47.7252C-0.122389 45.527 1.63351 44.2598 3.07957 45.2167C4.4998 46.1218 5.89418 47.2339 6.92708 48.5528C8.52807 50.57 9.84506 52.8198 11.2395 54.9663C11.601 55.5352 11.8334 56.2076 12.195 56.8024C14.5448 60.785 15.7842 61.0436 19.3735 58.0179C21.336 56.3628 23.0661 54.4232 24.9254 52.6647C26.423 51.2423 27.895 49.7941 29.4701 48.4752C35.2543 43.5875 41.0644 38.7515 46.9002 33.9414C47.5458 33.3983 48.3462 33.0104 49.0435 32.519C51.5224 30.6829 54.0014 28.8468 56.4804 27.0106C57.3067 26.39 58.0296 25.5883 58.9592 25.1487C62.5485 23.3384 65.3374 20.5712 68.2553 17.8558C69.8563 16.3559 71.8963 15.2956 73.7297 14.0543C75.1499 13.0974 76.8026 12.3475 77.913 11.1061C81.115 7.61492 85.0141 5.13223 88.9649 2.72716C90.4368 1.82203 91.8312 0.813506 93.3547 0.0635382C93.7937 -0.143349 94.6717 0.192792 95.1623 0.528985C95.4205 0.710011 95.4463 1.5376 95.2656 1.92551C94.8266 2.85651 94.2326 3.70991 93.6904 4.56332C92.8641 5.85636 92.0378 7.17525 91.1598 8.41657C90.3852 9.52859 89.6105 10.6923 88.6293 11.5975C84.8334 15.0887 80.805 18.3213 77.8613 22.6401C77.1124 23.7521 75.9246 24.5797 74.8659 25.459C71.8446 27.9933 68.8492 30.6053 65.6731 32.9328C61.5157 35.9843 58.3395 40.1997 53.6656 42.5789C53.2267 42.8116 52.8911 43.2513 52.4779 43.5616C43.3884 51.1906 34.4538 58.9747 26.3456 67.6381C25.1836 68.8795 24.2798 70.3794 23.2727 71.7759C20.4065 75.7585 15.9391 76.1464 12.9953 72.2414C10.9554 69.5518 8.63146 66.9658 7.67603 63.4746C7.21123 61.716 5.97165 60.1126 4.86129 58.5868C3.00207 56.0524 1.73685 53.2336 0.678131 50.3113C0.34244 49.3544 0.161658 48.32 0.00672346 47.7252Z" fill="#FCF9F8"/>
</svg>
