<svg width="24" height="24" viewBox="0 0 24 24" fill="none" xmlns="http://www.w3.org/2000/svg">
<path fill-rule="evenodd" clip-rule="evenodd" d="M12.0002 1.88184L23.2363 7.49987L18.2363 9.99987L23.2363 12.4999L18.2363 14.9999L23.2363 17.4999L12.0002 23.1179L0.76416 17.4999L5.76416 14.9999L0.76416 12.4999L5.76416 9.99987L0.76416 7.49987L12.0002 1.88184ZM7.91225 11.0739L7.94744 11.1443L5.2363 12.4999L12.0002 15.8818L18.7642 12.4999L16.053 11.1443L16.0882 11.0739L12.0002 13.1179L7.91225 11.0739ZM7.91225 16.0739L7.94744 16.1443L5.2363 17.4999L12.0002 20.8818L18.7642 17.4999L16.053 16.1443L16.0882 16.0739L12.0002 18.1179L7.91225 16.0739ZM5.2363 7.49987L12.0002 10.8818L18.7642 7.49987L12.0002 4.1179L5.2363 7.49987Z" fill="#3E4A3D"/>
</svg>
