<svg width="18" height="16" viewBox="0 0 18 16" fill="none" xmlns="http://www.w3.org/2000/svg">
<path fill-rule="evenodd" clip-rule="evenodd" d="M8.15625 5.625C6.26228 5.625 4.59548 6.95478 4.21128 9.28826L4.21117 9.28894C4.17233 9.52304 4.06062 9.73891 3.89194 9.90582C3.72359 10.0724 3.50706 10.1818 3.27308 10.2183C2.72154 10.3064 2.17476 10.53 1.77596 10.888C1.39064 11.2339 1.125 11.7192 1.125 12.4031C1.125 13.2066 1.41546 13.7339 1.84231 14.0738C2.28744 14.4282 2.94128 14.625 3.72656 14.625H11.9531C13.783 14.625 15.1875 13.3715 15.1875 11.6438C15.1875 10.7693 14.8789 10.1099 14.4016 9.63336C13.9157 9.14824 13.2265 8.82605 12.4392 8.69771L12.439 8.69768C12.2471 8.66632 12.0666 8.5855 11.9155 8.4632C11.7643 8.34089 11.6476 8.18132 11.5768 8.00019L11.5767 7.99975C11.0947 6.76272 9.9142 5.625 8.15625 5.625ZM3.10132 9.1049C3.56739 6.27568 5.665 4.5 8.15625 4.5C10.4698 4.5 12.0091 6.01437 12.6236 7.58792C13.5928 7.74651 14.5125 8.15435 15.1964 8.83721C15.8898 9.52946 16.3125 10.4774 16.3125 11.6438C16.3125 14.0925 14.2998 15.75 11.9531 15.75H3.72656C2.77161 15.75 1.84342 15.5127 1.14158 14.9539C0.421455 14.3805 0 13.5157 0 12.4031C0 11.3831 0.414108 10.5988 1.02441 10.0509C1.62099 9.51528 2.38531 9.22067 3.09695 9.10721L3.09928 9.10684L3.09928 9.10684C3.09979 9.10676 3.10027 9.10653 3.10064 9.10616C3.10099 9.10582 3.10122 9.10538 3.10132 9.1049Z" fill="#3E4A3D"/>
<path fill-rule="evenodd" clip-rule="evenodd" d="M11.8125 0C12.1232 0 12.375 0.25184 12.375 0.5625V1.6875C12.375 1.99816 12.1232 2.25 11.8125 2.25C11.5019 2.25 11.25 1.99816 11.25 1.6875V0.5625C11.25 0.25184 11.5019 0 11.8125 0ZM7.43721 1.81217C7.65688 1.5925 8.01304 1.5925 8.23271 1.81217L9.02829 2.60776C9.24796 2.82743 9.24796 3.18359 9.02829 3.40326C8.80862 3.62293 8.45247 3.62293 8.2328 3.40326L7.43721 2.60767C7.21754 2.388 7.21754 2.03184 7.43721 1.81217ZM16.1879 1.81217C16.4075 2.03184 16.4075 2.388 16.1879 2.60767L15.3923 3.40326C15.1726 3.62293 14.8165 3.62293 14.5968 3.40326C14.3771 3.18359 14.3771 2.82743 14.5968 2.60776L15.3924 1.81217C15.612 1.5925 15.9682 1.5925 16.1879 1.81217ZM10.8706 2.94784C11.3711 2.80271 11.8984 2.77545 12.4112 2.86819C12.924 2.96092 13.4083 3.17114 13.8262 3.48236C14.2442 3.79359 14.5844 4.19736 14.8202 4.66205C15.056 5.12674 15.181 5.63972 15.1854 6.1608C15.1898 6.68188 15.0735 7.1969 14.8456 7.66551C14.6177 8.13412 14.2843 8.54359 13.8717 8.86182C13.6257 9.05155 13.2725 9.00593 13.0827 8.75993C12.893 8.51393 12.9386 8.16071 13.1846 7.97099C13.4597 7.75883 13.682 7.48585 13.8339 7.17345C13.9859 6.86104 14.0634 6.51769 14.0605 6.17031C14.0575 5.82292 13.9742 5.48093 13.817 5.17114C13.6598 4.86134 13.433 4.59216 13.1543 4.38468C12.8757 4.1772 12.5528 4.03705 12.211 3.97523C11.8691 3.91341 11.5176 3.93158 11.1839 4.02833C10.8503 4.12508 10.5436 4.29777 10.2878 4.53289C10.0321 4.768 9.83422 5.05913 9.7098 5.38349C9.59854 5.67354 9.27321 5.81848 8.98315 5.70722C8.6931 5.59596 8.54816 5.27063 8.65942 4.98057C8.84605 4.49404 9.14281 4.05734 9.52643 3.70467C9.91006 3.35201 10.3701 3.09296 10.8706 2.94784ZM15.75 6.1875C15.75 5.87684 16.0019 5.625 16.3125 5.625H17.4375C17.7482 5.625 18 5.87684 18 6.1875C18 6.49816 17.7482 6.75 17.4375 6.75H16.3125C16.0019 6.75 15.75 6.49816 15.75 6.1875Z" fill="#3E4A3D"/>
</svg>
