<svg width="18" height="18" viewBox="0 0 18 18" fill="none" xmlns="http://www.w3.org/2000/svg">
<path d="M4.5 0.5625C4.5 0.413316 4.44074 0.270242 4.33525 0.164752C4.22976 0.0592632 4.08668 0 3.9375 0C3.78832 0 3.64524 0.0592632 3.53975 0.164752C3.43426 0.270242 3.375 0.413316 3.375 0.5625V1.125H2.25C1.65326 1.125 1.08097 1.36205 0.65901 1.78401C0.237053 2.20597 0 2.77826 0 3.375L0 4.5H18V3.375C18 2.77826 17.7629 2.20597 17.341 1.78401C16.919 1.36205 16.3467 1.125 15.75 1.125H14.625V0.5625C14.625 0.413316 14.5657 0.270242 14.4602 0.164752C14.3548 0.0592632 14.2117 0 14.0625 0C13.9133 0 13.7702 0.0592632 13.6648 0.164752C13.5593 0.270242 13.5 0.413316 13.5 0.5625V1.125H4.5V0.5625ZM18 15.75V5.625H0V15.75C0 16.3467 0.237053 16.919 0.65901 17.341C1.08097 17.7629 1.65326 18 2.25 18H15.75C16.3467 18 16.919 17.7629 17.341 17.341C17.7629 16.919 18 16.3467 18 15.75ZM9.5625 9.5625V11.25H11.25C11.3992 11.25 11.5423 11.3093 11.6477 11.4148C11.7532 11.5202 11.8125 11.6633 11.8125 11.8125C11.8125 11.9617 11.7532 12.1048 11.6477 12.2102C11.5423 12.3157 11.3992 12.375 11.25 12.375H9.5625V14.0625C9.5625 14.2117 9.50324 14.3548 9.39775 14.4602C9.29226 14.5657 9.14918 14.625 9 14.625C8.85082 14.625 8.70774 14.5657 8.60225 14.4602C8.49676 14.3548 8.4375 14.2117 8.4375 14.0625V12.375H6.75C6.60082 12.375 6.45774 12.3157 6.35225 12.2102C6.24676 12.1048 6.1875 11.9617 6.1875 11.8125C6.1875 11.6633 6.24676 11.5202 6.35225 11.4148C6.45774 11.3093 6.60082 11.25 6.75 11.25H8.4375V9.5625C8.4375 9.41332 8.49676 9.27024 8.60225 9.16475C8.70774 9.05926 8.85082 9 9 9C9.14918 9 9.29226 9.05926 9.39775 9.16475C9.50324 9.27024 9.5625 9.41332 9.5625 9.5625Z" fill="#3E4A3D"/>
</svg>
