<svg width="24" height="24" viewBox="0 0 24 24" fill="none" xmlns="http://www.w3.org/2000/svg">
<path d="M21.6468 8.51719C21.7078 8.44219 21.7031 8.33906 21.6375 8.26875C21.0984 7.70156 18.764 5.28281 17.4609 4.34531C16.5 3.65625 15.5625 3 14.5312 3C13.5 3 13.5 3.375 12 3.375C10.5 3.375 10.5 3 9.46873 3C8.43748 3 7.49998 3.65625 6.53904 4.34531C5.23591 5.28281 2.90154 7.70156 2.36248 8.26875C2.29685 8.33906 2.29216 8.44219 2.3531 8.51719L5.24529 11.5172C5.35779 11.6531 5.5781 11.5734 5.5781 11.4V9.29531C5.5781 9.08438 5.7281 8.89688 5.93435 8.86406C6.19685 8.82188 6.42185 9.02812 6.42185 9.28125V20.625C6.42185 20.8312 6.5906 21 6.79685 21H17.2031C17.4093 21 17.5781 20.8312 17.5781 20.625V9.29531C17.5781 9.08438 17.7281 8.89688 17.9344 8.86406C18.1968 8.82188 18.4219 9.02812 18.4219 9.28125V11.4C18.4219 11.5781 18.6422 11.6531 18.7547 11.5172L21.6468 8.51719ZM12 6.70312C10.5937 6.70312 9.46873 6.10781 9.46873 5.01562C9.46873 3.60938 10.5937 4.51406 12 4.51406C13.3969 4.51406 14.5312 3.60938 14.5312 5.01562C14.5312 6.10781 13.3969 6.70312 12 6.70312Z" fill="#3E4A3D"/>
</svg>
