<svg width="24" height="24" viewBox="0 0 24 24" fill="none" xmlns="http://www.w3.org/2000/svg">
<path d="M7.2 8.40006H8.4V3.60006H7.2C5.87438 3.60006 4.8 4.67443 4.8 6.00006C4.8 7.32568 5.87438 8.40006 7.2 8.40006ZM0 18.0001C0 19.3257 1.07438 20.4001 2.4 20.4001H3.6V15.6001H2.4C1.07438 15.6001 0 16.6744 0 18.0001ZM12.6547 13.2001C11.3456 13.2001 9.79875 13.6921 8.72738 14.4001C7.79775 15.0143 7.05788 15.6001 4.8 15.6001V20.4001L6.95738 20.9989C7.94025 21.2719 8.94525 21.4909 9.969 21.5633C11.1949 21.6499 12.429 21.5884 13.6283 21.3308C17.7338 20.4488 19.2 18.4958 19.2 16.8001C19.2 14.4001 16.0433 13.2001 12.6547 13.2001ZM18.4283 2.66968C17.229 2.41206 15.9949 2.35018 14.769 2.43718C13.7453 2.50956 12.7403 2.72856 11.7574 3.00118L9.6 3.60006V8.40006C11.8575 8.40006 12.5978 8.98581 13.5274 9.60006C14.5988 10.3081 16.1456 10.8001 17.4548 10.8001C20.8433 10.8001 24 9.60006 24 7.20006C24 5.50431 22.5338 3.55131 18.4283 2.66968Z" fill="#3E4A3D"/>
</svg>
