<svg preserveAspectRatio="none" width="100%" height="100%" overflow="visible" style="display: block;" viewBox="0 0 79 79" fill="none" xmlns="http://www.w3.org/2000/svg">
<g id="Icon">
<path id="Vector" d="M39.5 7.40625C21.8037 7.40625 7.40625 21.8037 7.40625 39.5C7.40625 57.1963 21.8037 71.5938 39.5 71.5938C57.1963 71.5938 71.5938 57.1963 71.5938 39.5C71.5938 21.8037 57.1963 7.40625 39.5 7.40625ZM56.2026 28.744L35.4651 53.4315C35.2377 53.7024 34.9546 53.9213 34.6352 54.0733C34.3157 54.2253 33.9673 54.3069 33.6136 54.3125H33.5719C33.2259 54.3124 32.8837 54.2395 32.5677 54.0986C32.2516 53.9577 31.9687 53.752 31.7373 53.4947L22.8498 43.6197C22.6241 43.3803 22.4485 43.0982 22.3334 42.79C22.2183 42.4818 22.1659 42.1537 22.1794 41.8249C22.1929 41.4962 22.272 41.1734 22.412 40.8757C22.552 40.5779 22.7501 40.3112 22.9947 40.0911C23.2392 39.871 23.5253 39.702 23.8361 39.5941C24.147 39.4861 24.4762 39.4414 24.8046 39.4625C25.1329 39.4836 25.4537 39.5702 25.7481 39.717C26.0426 39.8639 26.3046 40.0682 26.519 40.3178L33.5071 48.082L52.4224 25.5685C52.8467 25.078 53.4469 24.7741 54.0935 24.7226C54.74 24.6711 55.3808 24.8761 55.8774 25.2932C56.3741 25.7104 56.6866 26.3062 56.7474 26.9519C56.8083 27.5976 56.6126 28.2414 56.2026 28.744Z" fill="var(--fill-0, #009540)"/>
</g>
</svg>
